<svg id="Layer_1" data-name="Layer 1" xmlns="http://www.w3.org/2000/svg" viewBox="0 0 512 512"><defs><style>.cls-1{fill:#989999;}</style></defs><path class="cls-1" d="M49.55,462.45H66.06V479H49.55Z"/><path class="cls-1" d="M82.58,462.45H99.1V479H82.58Z"/><path class="cls-1" d="M115.61,462.45h16.52V479H115.61Z"/><path class="cls-1" d="M396.39,462.45h66.06V479H396.39Z"/><path class="cls-1" d="M495.48,429.42V156.9a41.34,41.34,0,0,0-41.29-41.29H429.42a115.62,115.62,0,0,0-231.23,0H57.81A41.34,41.34,0,0,0,16.52,156.9V429.42H0v41.29A41.33,41.33,0,0,0,41.29,512H470.71A41.33,41.33,0,0,0,512,470.71V429.42ZM454.19,132.13A24.81,24.81,0,0,1,479,156.9V429.42H462.45V165.16a16.53,16.53,0,0,0-16.51-16.51H424.55a116,116,0,0,0,3.55-16.52ZM219.51,85.27l87.65,36.52,30,90A98.94,98.94,0,0,1,219.51,85.27ZM352.86,206.66l-29.61-88.82L389.4,51.69a98.92,98.92,0,0,1-36.54,155ZM313.81,16.52A98.63,98.63,0,0,1,377.73,40l-65.85,65.85L225.91,70A99.12,99.12,0,0,1,313.81,16.52ZM33,156.9a24.81,24.81,0,0,1,24.78-24.77H199.52a113.3,113.3,0,0,0,3.54,16.52h-137a16.53,16.53,0,0,0-16.51,16.51V429.42H33ZM495.48,470.71a24.8,24.8,0,0,1-24.77,24.77H41.29a24.8,24.8,0,0,1-24.77-24.77V445.94H186.65a64.19,64.19,0,0,0,43.16,16.51h52.38a64.21,64.21,0,0,0,43.17-16.51H429.42V429.42H318.65l-2.42,2.42a47.85,47.85,0,0,1-34,14.1H229.81a47.83,47.83,0,0,1-34-14.1l-2.42-2.42H66.06V165.16H209.51a115.35,115.35,0,0,0,208.59,0h27.84V445.94h49.54Z"/><path class="cls-1" d="M404.65,346.84A24.6,24.6,0,0,0,390.93,351l-28.81-21.6a24.72,24.72,0,1,0-48.31-7.35,24.31,24.31,0,0,0,1.46,8.08l-46.25,37a24.24,24.24,0,0,0-27.79,1.21l-35.61-23.74a24.52,24.52,0,0,0,.83-6,24.78,24.78,0,0,0-49.55,0,24.06,24.06,0,0,0,.84,6l-35.61,23.74a24.5,24.5,0,0,0-14.78-5,24.78,24.78,0,1,0,24.78,24.78,24.06,24.06,0,0,0-.84-6l35.61-23.74a24.33,24.33,0,0,0,29.55,0l35.61,23.74a24.12,24.12,0,0,0-.83,6,24.77,24.77,0,1,0,49.54,0,24.4,24.4,0,0,0-1.46-8.08l46.25-37a24.46,24.46,0,0,0,26.74-.38l28.81,21.6a24.19,24.19,0,0,0-1.24,7.34,24.78,24.78,0,1,0,24.78-24.77Zm-297.3,49.55a8.26,8.26,0,1,1,8.26-8.26A8.27,8.27,0,0,1,107.35,396.39Zm74.33-49.55a8.26,8.26,0,1,1,8.26-8.26A8.28,8.28,0,0,1,181.68,346.84ZM256,396.39a8.26,8.26,0,1,1,8.26-8.26A8.28,8.28,0,0,1,256,396.39Zm82.58-66.07a8.26,8.26,0,1,1,8.26-8.26A8.28,8.28,0,0,1,338.58,330.32Zm66.07,49.55a8.26,8.26,0,1,1,8.25-8.26A8.28,8.28,0,0,1,404.65,379.87Z"/><path class="cls-1" d="M214.71,181.68H82.58V297.29H214.71Zm-16.52,99.09H99.1V198.19h99.09Z"/><path class="cls-1" d="M115.61,214.71h66.07v16.52H115.61Z"/><path class="cls-1" d="M115.61,247.74h66.07v16.52H115.61Z"/><path class="cls-1" d="M231.23,264.26h16.51v16.51H231.23Z"/><path class="cls-1" d="M264.26,264.26H429.42v16.51H264.26Z"/></svg>