<svg id="Layer_1" data-name="Layer 1" xmlns="http://www.w3.org/2000/svg" viewBox="0 0 461.97 511.93"><defs><style>.cls-1{fill:#989999;}</style></defs><g id="Page-1"><g id="_050---Human-Brain" data-name="050---Human-Brain"><path id="Shape" class="cls-1" d="M490.67,196.84a255.75,255.75,0,0,0-8.94-72.46,141.37,141.37,0,0,0-51-73.38C382.55,13.25,337.53-2.39,284.89.28a572.9,572.9,0,0,0-82.54,11.8c-38.49,7.74-66.46,21.28-85.49,41.38a162,162,0,0,0-34.24,55.77,224.62,224.62,0,0,0-7.75,27.92l-.68,2.95a107.75,107.75,0,0,1-7.25,19.29c-1.75,4-3.52,7.89-5,12a28.73,28.73,0,0,0-2.29,14.35,32.55,32.55,0,0,0,12.45,19c4.19,3.84,6.93,6.53,7,9a14.83,14.83,0,0,1-1.49,3.64,330.09,330.09,0,0,1-37.36,60.77c-6.13,7.48-12.55,16.21-11.24,25.08a26.53,26.53,0,0,0,12.36,15.92,63.92,63.92,0,0,0,8.9,5.12c3.68,1.88,9.85,5,10.24,7.28a14.52,14.52,0,0,1-.93,8.53c-1.27,2.66-2.56,5-3.71,7-3.13,5.54-8.38,14.82-.48,21.46,1.84,1.63,5,4.11,7.88,6.32a21.56,21.56,0,0,0-2.75,12.35,12.28,12.28,0,0,0,5,8.3,64.82,64.82,0,0,0,6,3.69c5,2.85,7,4.19,7.68,6.82a23.71,23.71,0,0,1-.92,10.35c-.49,2.25-1,4.48-1.27,6.72a49.48,49.48,0,0,0,2.86,22.93A31.57,31.57,0,0,0,117,468.48,697.77,697.77,0,0,0,189,447c19.18,11.33,31.3,45.61,34.46,58.47a8.54,8.54,0,0,0,8.29,6.5l214.18-.59a8.53,8.53,0,0,0,8.14-11,66,66,0,0,0-8.7-16.32,80,80,0,0,1-5.46-9.06,167.22,167.22,0,0,1-9.64-24.4,284.59,284.59,0,0,1-10.06-50.47,144,144,0,0,1,11.17-74.9,191.31,191.31,0,0,1,23.16-36.58c5.12-6.94,10.47-14.1,15.27-21.67A131.18,131.18,0,0,0,490.67,196.84ZM440.8,278.48a207.66,207.66,0,0,0-25.11,39.92,161.25,161.25,0,0,0-12.46,83.78,298.63,298.63,0,0,0,10.64,53.45,185.52,185.52,0,0,0,10.58,26.81,94.28,94.28,0,0,0,6.58,11l.61.93-193.49.54a136.32,136.32,0,0,0-30.08-54.51c2.17-.76,4.26-1.47,6.15-2.15,6.47-2.26,11.36-4,13.8-4.74C264.6,422,282.9,405.42,282.4,384.11a8.86,8.86,0,0,0-8.74-8.34,8.54,8.54,0,0,0-8.32,8.74c.2,8.79-7,21.61-42.45,32.74-2.56.8-7.6,2.56-14.32,4.92-6.08,2.13-13.55,4.74-21.72,7.53a706.86,706.86,0,0,1-73.36,22.14,15.14,15.14,0,0,1-17.61-11.45,33.16,33.16,0,0,1-2.06-15.05c.23-1.77.64-3.54,1-5.31a37.93,37.93,0,0,0,.8-18.24,28.19,28.19,0,0,0-15.74-17.46l-1.82-1.05A31.58,31.58,0,0,1,81.36,378a8.55,8.55,0,0,0-1.64-12.12c-2-1.52-6.93-5.17-10.43-8,.44-.8.92-1.71,1.37-2.47,1.32-2.31,2.81-5,4.27-8a31.62,31.62,0,0,0,2.3-19.08c-2-10.47-12-15.57-19.3-19.3a49.3,49.3,0,0,1-7.1-4.12,44.43,44.43,0,0,1-5-4.06c0-1.28,1.36-4.4,7.92-12.41a344.59,344.59,0,0,0,39-63.39,24.55,24.55,0,0,0,3.35-11.56,29.76,29.76,0,0,0-12.5-21.34c-3.42-3.15-6.71-6.14-7.08-8.77a14.85,14.85,0,0,1,1.37-6c1.4-3.71,3-7.34,4.66-11A123.53,123.53,0,0,0,90.81,144l.69-3a209.84,209.84,0,0,1,7.14-25.84,144.94,144.94,0,0,1,30.61-50c16.52-17.4,41.54-29.35,76.46-36.37a555.63,555.63,0,0,1,80-11.49c48.29-2.56,89.73,12.07,134.41,47.12a123.16,123.16,0,0,1,45.12,64.6,238.4,238.4,0,0,1,8.31,67.54,114.58,114.58,0,0,1-18.25,61.26c-4.47,7-9.61,13.94-14.58,20.63Z" transform="translate(-28.75 0.01)"/><path id="Shape-2" data-name="Shape" class="cls-1" d="M200.53,145.07h8.54a8.54,8.54,0,0,0,0-17.07h-8.54a25.6,25.6,0,0,0-25.6,25.6v8.53a25.6,25.6,0,0,0,25.6,25.6h8.54a8.53,8.53,0,0,0,0-17.06h-8.54a8.53,8.53,0,0,1-8.53-8.54V153.6A8.53,8.53,0,0,1,200.53,145.07Z" transform="translate(-28.75 0.01)"/><path id="Shape-3" data-name="Shape" class="cls-1" d="M260.27,119.47a8.53,8.53,0,0,0-8.54,8.53v17.07a8.53,8.53,0,0,1-8.53,8.53h-8.53a8.54,8.54,0,1,0,0,17.07h8.53a25.6,25.6,0,0,0,25.6-25.6V128A8.53,8.53,0,0,0,260.27,119.47Z" transform="translate(-28.75 0.01)"/><path id="Shape-4" data-name="Shape" class="cls-1" d="M294.4,119.47v-8.54a25.6,25.6,0,0,0-25.6-25.6H251.73a25.6,25.6,0,0,0-25.6,25.6v8.54a8.54,8.54,0,0,0,17.07,0v-8.54a8.53,8.53,0,0,1,8.53-8.53H268.8a8.53,8.53,0,0,1,8.53,8.53v8.54a8.54,8.54,0,0,0,17.07,0Z" transform="translate(-28.75 0.01)"/><path id="Shape-5" data-name="Shape" class="cls-1" d="M320,179.2h-8.53a8.53,8.53,0,0,1-8.54-8.53v-8.54a8.53,8.53,0,0,0-17.06,0v8.54a25.6,25.6,0,0,0,25.6,25.6H320a8.54,8.54,0,0,0,0-17.07Z" transform="translate(-28.75 0.01)"/><path id="Shape-6" data-name="Shape" class="cls-1" d="M362.67,153.6a8.53,8.53,0,0,0-8.54-8.53H345.6a8.54,8.54,0,0,1,0-17.07h8.53a8.54,8.54,0,1,0,0-17.07H345.6a25.6,25.6,0,0,0,0,51.2h8.53A8.53,8.53,0,0,0,362.67,153.6Z" transform="translate(-28.75 0.01)"/><path id="Shape-7" data-name="Shape" class="cls-1" d="M388.27,153.6a8.53,8.53,0,0,0-8.54,8.53V179.2a8.53,8.53,0,0,1-8.53,8.53h-8.53a8.54,8.54,0,1,0,0,17.07h8.53a25.6,25.6,0,0,0,25.6-25.6V162.13A8.53,8.53,0,0,0,388.27,153.6Z" transform="translate(-28.75 0.01)"/><path id="Shape-8" data-name="Shape" class="cls-1" d="M456.19,179.2c0-.14-.07-.25-.07-.38a210.47,210.47,0,0,0-7.24-45.09,106.54,106.54,0,0,0-39.19-55.81c-38.6-30.28-73.6-43.79-113.51-43.79-3.14,0-6.31.09-9.56.24-2.91.16-5.82.49-8.73.73-.2,0-.36-.11-.56-.11a7.52,7.52,0,0,0-1.32.26,600.09,600.09,0,0,0-66.94,10.3,199.94,199.94,0,0,0-28.54,7.86c-.2.08-.39.12-.58.2a98.79,98.79,0,0,0-38.3,23.33,126.75,126.75,0,0,0-24.59,38.49,8.35,8.35,0,0,0-.64,1.51c-.57,1.4-1.23,2.72-1.76,4.15-2.62,7.11-6.74,24.8-7.26,27-1.92,9.55-6.68,42.28,12.68,62.81,12.29,13,31.08,17.83,55.76,14.33l11.48-1.64c54.75-7.87,82.23-11.82,105.88,11.3,4.55,4.45,9.2,9,14.05,13.4-5.37,16.88-12.33,52.91,16.21,74.24,30.67,23,30.67,29.28,30.67,44.37a8.53,8.53,0,0,0,12.35,7.68c2.24-1.16,21.79-12.05,21.79-50.34,0-20.95,15.61-39.06,31-54l.26-.24a82.56,82.56,0,0,0,21.33-21.33A98.62,98.62,0,0,0,454,216.84a8.35,8.35,0,0,0,.77-3.51,101.68,101.68,0,0,0,1.79-17c.09-5.73,0-11.4-.35-17A.76.76,0,0,0,456.19,179.2Zm-85,145.07a65.5,65.5,0,0,1-3,20.94c-4-10-13.22-20.31-34.55-36.31-16.95-12.7-15.76-33.81-12.1-48.64a91.57,91.57,0,0,0,56.32,20.15q5,0,9.95-.58A74.22,74.22,0,0,0,371.2,324.27Zm55.3-84.71a55.41,55.41,0,0,1-24.32,20.21,74.94,74.94,0,0,1-48.05-.72V247.47a8.54,8.54,0,0,1,8.54-8.54h25.6a8.53,8.53,0,1,0,0-17.06h-25.6a25.6,25.6,0,0,0-25.6,25.6v2.65a231.77,231.77,0,0,1-32-27.39,72.73,72.73,0,0,0-36.31-20v-6.48a8.54,8.54,0,1,0-17.07,0v4.4a379.61,379.61,0,0,0-66.86,6.07l-11.45,1.63a82.54,82.54,0,0,1-15.55.8V204.8a8.54,8.54,0,0,0-17.07,0v.41a28.69,28.69,0,0,1-8.34-6,38.36,38.36,0,0,1-9-20h8.81a25.6,25.6,0,0,0,25.6-25.6,8.54,8.54,0,0,0-17.07,0,8.53,8.53,0,0,1-8.53,8.53H122.7a82.9,82.9,0,0,1,1.36-10.4c1.12-4.85,4.26-17.92,6.25-23.73h27.56a8.54,8.54,0,0,0,0-17.07H138.09A106,106,0,0,1,154,88.67a71,71,0,0,1,20.91-14.49V85.33a25.6,25.6,0,0,0,25.6,25.6,8.53,8.53,0,1,0,0-17.06A8.53,8.53,0,0,1,192,85.33V67.5a198.13,198.13,0,0,1,20.48-5.21c7.27-1.46,14.71-2.87,22.19-4.21v1.65a8.53,8.53,0,1,0,17.06,0V55.24c5.69-.86,11.38-1.64,17.07-2.27v6.76a8.54,8.54,0,1,0,17.07,0V51.56c.53,0,1.08-.1,1.61-.14,5.27-.22,10.4-.22,15.45,0V85.33a8.54,8.54,0,0,0,8.54,8.54h17.06a8.54,8.54,0,1,0,0-17.07H320V53.27a144,144,0,0,1,42.78,14.44c0,.2-.11.36-.11.56v25.6a8.53,8.53,0,0,0,17.06,0V77.57c5.6,3.62,11.27,7.58,17.07,12.05v21.31a8.53,8.53,0,0,1-8.53,8.54,8.53,8.53,0,1,0,0,17.06,25.6,25.6,0,0,0,25.6-25.6v-5.84a83.81,83.81,0,0,1,18.59,33.28,186.25,186.25,0,0,1,5.84,32.3H422.4a8.53,8.53,0,1,0,0,17.06h16.89c.06,2.79.19,5.57.15,8.38,0,3-.37,5.83-.69,8.69H422.4a8.54,8.54,0,0,0,0,17.07h12.49A83.1,83.1,0,0,1,426.5,239.56Z" transform="translate(-28.75 0.01)"/></g></g></svg>