<svg id="Layer_1" data-name="Layer 1" xmlns="http://www.w3.org/2000/svg" viewBox="0 0 442.45 512"><defs><style>.cls-1{fill:#989999;}</style></defs><path class="cls-1" d="M468.18,352.7A33.73,33.73,0,0,0,420.56,351l-4,3.74-38.2-24.95L381,272.08c2-42.7-.13-56.33-14.89-97.22-11.43-31.65-27-71.2-39.55-103-9-22.75-16.71-42.39-19.19-49.76l0-.1C300.81,3.26,283.65-2.71,270.07,1.09A29.59,29.59,0,0,0,256,9.94a29.59,29.59,0,0,0-14.07-8.85C228.35-2.71,211.19,3.26,204.66,22l0,.1c-2,5.9-7.42,19.84-13,34a10,10,0,0,0,18.62,7.32c6.53-16.63,11.3-28.93,13.32-34.92,2.61-7.45,8.39-9.49,13-8.21,4.78,1.33,9.07,6.54,6.82,17.14L220,137.93c-5,3.64-9.88,9.68-13.9,19.32-11.58,27.78-21.32,57.4-26.72,81.27a10,10,0,1,0,19.51,4.41c5.16-22.8,14.51-51.22,25.67-78,5.23-12.54,9.74-12.13,11.44-12a9.94,9.94,0,0,1,9,10.81c-.46,5.15-2.46,23.91-4.39,42.06-2,19.06-4,37.07-4.44,42.39-1.16,13.09,1.14,29,3.58,45.79,7,48.74,15.78,109.05-49.29,149.34l-79.91-74.52,38.86-25.39a10,10,0,0,0,4.52-8.83L151,271.16c-1.85-40.14-.18-51,13.72-89.51,3.61-10,7.81-21.26,12.83-34.43a10,10,0,1,0-18.69-7.13c-5.06,13.29-9.3,24.66-13,34.77C131.12,215.75,129,229.38,131,272.08l2.65,57.75-38.2,25-4-3.75a33.7,33.7,0,1,0-46,49.28L155.52,503a33.69,33.69,0,0,0,49.63-45.26c24.83-16.3,41.62-36.43,50.85-61,9.23,24.58,26,44.71,50.84,61A33.7,33.7,0,0,0,356.47,503l110-102.64h0a33.72,33.72,0,0,0,1.66-47.62Zm-279.66,135a13.71,13.71,0,0,1-19.35.67l-110-102.64a13.69,13.69,0,0,1,18.68-20L187.85,468.31a13.7,13.7,0,0,1,.67,19.35Zm53-354L256,71.41l14.47,62.21A29.73,29.73,0,0,0,256,141.48a29.73,29.73,0,0,0-14.47-7.86ZM256,250.84a84.21,84.21,0,0,1,0,10.9A84.21,84.21,0,0,1,256,250.84ZM272.29,294c2.44-16.82,4.74-32.7,3.57-45.79-.47-5.32-2.39-23.33-4.43-42.39-1.93-18.15-3.94-36.92-4.39-42.07a9.94,9.94,0,0,1,9-10.8c1.7-.15,6.21-.56,11.44,12,11.16,26.76,20.51,55.18,25.67,78a10,10,0,1,0,19.51-4.41c-5.4-23.87-15.14-53.49-26.72-81.27-4-9.65-8.89-15.68-13.9-19.32L268.65,37.49c-2.25-10.6,2-15.81,6.81-17.14,4.58-1.28,10.36.76,13,8.21,2.66,7.89,10.11,26.77,19.53,50.66,12.47,31.66,28,71.05,39.34,102.43,13.9,38.5,15.56,49.37,13.72,89.51l-2.92,63.45a10,10,0,0,0,4.52,8.83l38.86,25.39-79.9,74.53c-65.07-40.3-56.34-100.6-49.29-149.34Zm180.59,91.67-110,102.65a13.72,13.72,0,0,1-19.35-.68,13.7,13.7,0,0,1,.67-19.35L434.2,365.67a13.69,13.69,0,1,1,18.68,20Z" transform="translate(-34.78 0)"/><path class="cls-1" d="M180.51,110.89a10,10,0,0,0,13.13-5.25h0a10,10,0,1,0-13.14,5.26Z" transform="translate(-34.78 0)"/></svg>