<svg id="Layer_1" data-name="Layer 1" xmlns="http://www.w3.org/2000/svg" viewBox="0 0 496 496"><defs><style>.cls-1{fill:#989999;}</style></defs><path class="cls-1" d="M425.5,240l36.63-57.58a31.75,31.75,0,1,0-13.53-8.53l-37,58.13H308.37L241.69,128.28,284.3,69.7a31.83,31.83,0,1,0-13-9.36L227.93,120H150.86a31.94,31.94,0,1,0-54.34,29.73L62.4,202.81A39.48,39.48,0,0,0,48,200a40,40,0,1,0,14.41,77.2l47.9,74.52L67.7,410.3a31.83,31.83,0,1,0,13,9.36L124.07,360H227.63l57.52,89.47A23.87,23.87,0,1,0,326.53,472h50.28a40,40,0,1,0,67.06-36.57L497.5,352ZM472,136a16,16,0,0,1,0,32,15.62,15.62,0,0,1-8.61-2.52A16,16,0,0,1,472,136ZM296,24a16,16,0,0,1,0,32,15.47,15.47,0,0,1-9.46-3.17A15.7,15.7,0,0,1,280,40,16,16,0,0,1,296,24ZM150.86,136h76.77l66.86,104L227.63,344H124.37l-48.5-75.44a39.7,39.7,0,0,0,0-57.13L110,158.31A31.35,31.35,0,0,0,120,160a32,32,0,0,0,30.86-24ZM120,112a16,16,0,0,1,0,32,16.07,16.07,0,0,1-16-16A16,16,0,0,1,120,112ZM24,240a24,24,0,0,1,24-24,24,24,0,0,1,0,48A24,24,0,0,1,24,240ZM56,456a16,16,0,0,1,0-32,15.47,15.47,0,0,1,9.46,3.17A15.7,15.7,0,0,1,72,440,16,16,0,0,1,56,456Zm248,16a8,8,0,0,1-8-8,8.1,8.1,0,0,1,3.84-6.82A7.36,7.36,0,0,1,304,456a8,8,0,0,1,0,16Zm72.81-16H326.53A24,24,0,0,0,304,440a24.34,24.34,0,0,0-5.49.68l-57-88.68,66.86-104H411.63l66.86,104L430.4,426.81A39.48,39.48,0,0,0,416,424a40.08,40.08,0,0,0-39.19,32ZM416,488a24,24,0,0,1,0-48,24.1,24.1,0,0,1,24,24A24,24,0,0,1,416,488Z" transform="translate(-8 -8)"/><path class="cls-1" d="M120,200h64v16H120Z" transform="translate(-8 -8)"/><path class="cls-1" d="M200,200h32v16H200Z" transform="translate(-8 -8)"/><path class="cls-1" d="M120,232H232v16H120Z" transform="translate(-8 -8)"/><path class="cls-1" d="M216,264h16v16H216Z" transform="translate(-8 -8)"/><path class="cls-1" d="M184,264h16v16H184Z" transform="translate(-8 -8)"/><path class="cls-1" d="M120,264h48v16H120Z" transform="translate(-8 -8)"/><path class="cls-1" d="M304,312h64v16H304Z" transform="translate(-8 -8)"/><path class="cls-1" d="M384,312h32v16H384Z" transform="translate(-8 -8)"/><path class="cls-1" d="M304,344H416v16H304Z" transform="translate(-8 -8)"/><path class="cls-1" d="M400,376h16v16H400Z" transform="translate(-8 -8)"/><path class="cls-1" d="M368,376h16v16H368Z" transform="translate(-8 -8)"/><path class="cls-1" d="M304,376h48v16H304Z" transform="translate(-8 -8)"/></svg>