<svg id="Layer_1" data-name="Layer 1" xmlns="http://www.w3.org/2000/svg" viewBox="0 0 512 512"><defs><style>.cls-1{fill:#ffc107;}</style></defs><path class="cls-1" d="M467,121H247L210.23,10.27A15,15,0,0,0,196,0H45A45.05,45.05,0,0,0,0,45V346a45.05,45.05,0,0,0,45,45H210.3l36.51,110.43A15.05,15.05,0,0,0,261.13,512H467a45.05,45.05,0,0,0,45-45V166a45.05,45.05,0,0,0-45-45ZM45,361a15,15,0,0,1-15-15V45A15,15,0,0,1,45,30H185.18l110,331Zm247.73,30-29.4,64.84L241.89,391ZM482,467a15,15,0,0,1-15,15H284.41l45.25-99.81a15.1,15.1,0,0,0,.57-10.93L257,151H467a15,15,0,0,1,15,15Z" transform="translate(0 0)"/><path class="cls-1" d="M196,181H151a15,15,0,0,0,0,30h27.42a45,45,0,1,1-10.6-46.82A15,15,0,0,0,189,143a75,75,0,1,0,22,53,15,15,0,0,0-15-15Z" transform="translate(0 0)"/><path class="cls-1" d="M436,241H391V226a15,15,0,0,0-30,0v15H316a15,15,0,0,0,0,30h87.14c-4.77,14.18-15,31-26.94,47.17-2.57-3.46-5.1-7-7.55-10.61a15,15,0,1,0-24.8,16.87c4.2,6.19,8.62,12.21,13,17.92-7.49,8.7-14.88,16.57-21.37,22.94a15,15,0,1,0,21,21.41c.51-.5,8.69-8.56,19.62-20.93C386.79,378,394.77,386,395.39,386.6a15,15,0,1,0,21.22-21.21c-.16-.15-9.34-9.39-21.06-23.05C416.78,314.89,429.73,291,434.21,271H436a15,15,0,0,0,0-30Z" transform="translate(0 0)"/></svg>