<svg id="Layer_1" data-name="Layer 1" xmlns="http://www.w3.org/2000/svg" viewBox="0 0 512 512"><defs><style>.cls-1{fill:#989999;}</style></defs><path class="cls-1" d="M330.32,353.8V297.29h16.52V280.77h-99.1v16.52h16.52V353.8A81.51,81.51,0,0,0,248.7,363l-50.51-92.59V231.23h16.52V214.71H198.19V189.94a8.25,8.25,0,0,0-8.25-8.26h-8.26V156.9a8.25,8.25,0,0,0-8.26-8.25H123.87a8.25,8.25,0,0,0-8.26,8.25v24.78h-8.26a8.25,8.25,0,0,0-8.25,8.26v24.77H82.58v16.52H99.1v39.18L5,442.85a41.36,41.36,0,0,0-5,19.77v8.09A41.33,41.33,0,0,0,41.29,512H256a41.45,41.45,0,0,0,16.9-3.68A82.55,82.55,0,0,0,330.32,353.8Zm-16.51-56.51v16.52h-33V297.29ZM275.27,367.2a8.25,8.25,0,0,0,5.5-7.78v-29.1h33v29.1a8.25,8.25,0,0,0,5.5,7.78A66.14,66.14,0,0,1,361.08,413a24.61,24.61,0,0,0-16.66,7.18L337.58,427a8.3,8.3,0,0,1-5.84,2.42H328.9a8.32,8.32,0,0,1-5.84-2.42l-6.83-6.84a24.61,24.61,0,0,0-17.52-7.26h-2.84a24.61,24.61,0,0,0-17.52,7.26L271.52,427a8.34,8.34,0,0,1-5.84,2.42h-2.84A8.32,8.32,0,0,1,257,427l-6.84-6.84A24.62,24.62,0,0,0,233.5,413,66.12,66.12,0,0,1,275.27,367.2Zm-143.14-202h33v16.52h-33Zm-16.52,33h66.07v16.52H115.61Zm-1,78.28a8.15,8.15,0,0,0,1-4V231.23h66.07v41.29a8.15,8.15,0,0,0,1,4l29.43,54a24.59,24.59,0,0,0-16.35,7.14l-6.83,6.84a8.34,8.34,0,0,1-5.84,2.42h-2.84a8.3,8.3,0,0,1-5.84-2.42l-6.84-6.84a24.6,24.6,0,0,0-17.52-7.26h-2.83a24.6,24.6,0,0,0-17.52,7.26l-6.84,6.84a8.3,8.3,0,0,1-5.84,2.42h-2.84a8.32,8.32,0,0,1-5.84-2.42l-6.83-6.84a24.57,24.57,0,0,0-16.35-7.14Zm-73.31,219a24.8,24.8,0,0,1-24.77-24.77v-8.09a24.84,24.84,0,0,1,3-11.87L76.22,346.84H84a8.32,8.32,0,0,1,5.84,2.42l6.84,6.84a24.58,24.58,0,0,0,17.51,7.25H117a24.6,24.6,0,0,0,17.52-7.25l6.84-6.84a8.3,8.3,0,0,1,5.84-2.42h2.83a8.28,8.28,0,0,1,5.84,2.42l6.84,6.84a24.6,24.6,0,0,0,17.52,7.25h2.84a24.58,24.58,0,0,0,17.51-7.25l6.84-6.84a8.34,8.34,0,0,1,5.84-2.42h7.78l15,27.4A82.18,82.18,0,0,0,248,495.48Zm256,0a66.13,66.13,0,0,1-66.06-66.06h1.42a8.28,8.28,0,0,1,5.83,2.42l6.84,6.84a24.61,24.61,0,0,0,17.52,7.26h2.84a24.59,24.59,0,0,0,17.51-7.26l6.84-6.84a8.34,8.34,0,0,1,5.84-2.42h2.84a8.32,8.32,0,0,1,5.84,2.42l6.84,6.84a24.59,24.59,0,0,0,17.51,7.26h2.84a24.61,24.61,0,0,0,17.52-7.26l6.84-6.84a8.3,8.3,0,0,1,5.84-2.42h1.41A66.13,66.13,0,0,1,297.29,495.48Z"/><path class="cls-1" d="M57.81,429.42a24.78,24.78,0,1,0,24.77,24.77A24.81,24.81,0,0,0,57.81,429.42Zm0,33a8.26,8.26,0,1,1,8.25-8.26A8.27,8.27,0,0,1,57.81,462.45Z"/><path class="cls-1" d="M123.87,412.9a24.78,24.78,0,1,0,24.78,24.78A24.8,24.8,0,0,0,123.87,412.9Zm0,33a8.26,8.26,0,1,1,8.26-8.26A8.27,8.27,0,0,1,123.87,445.94Z"/><path class="cls-1" d="M181.68,379.87a24.78,24.78,0,1,0,24.77,24.78A24.81,24.81,0,0,0,181.68,379.87Zm0,33a8.26,8.26,0,1,1,8.26-8.25A8.27,8.27,0,0,1,181.68,412.9Z"/><path class="cls-1" d="M189.94,462.45h16.51V479H189.94Z"/><path class="cls-1" d="M173.42,445.94h16.52v16.51H173.42Z"/><path class="cls-1" d="M156.9,462.45h16.52V479H156.9Z"/><path class="cls-1" d="M90.84,388.13h16.51v16.52H90.84Z"/><path class="cls-1" d="M503.74,115.61H388.13a8.26,8.26,0,0,0-8.26,8.26v33a8.26,8.26,0,0,0,8.26,8.26h8.26V462.45a49.55,49.55,0,1,0,99.09,0V165.16h8.26A8.26,8.26,0,0,0,512,156.9v-33A8.26,8.26,0,0,0,503.74,115.61Zm-57.8,379.87a33.07,33.07,0,0,1-33-33V280.77H479V462.45A33.06,33.06,0,0,1,445.94,495.48Zm33-231.22H412.9v-99.1H479Zm16.51-115.61H396.39V132.13h99.09Z"/><path class="cls-1" d="M429.42,454.19h16.52v16.52H429.42Z"/><path class="cls-1" d="M445.94,421.16h16.51v16.52H445.94Z"/><path class="cls-1" d="M429.42,388.13h16.52v16.52H429.42Z"/><path class="cls-1" d="M445.94,355.1h16.51v16.51H445.94Z"/><path class="cls-1" d="M429.42,322.06h16.52v16.52H429.42Z"/><path class="cls-1" d="M132.13,90.84a8.27,8.27,0,0,1,8.26-8.26h24.77v49.55h16.52V82.58h82.58V264.26h16.51V82.58h24.78a8.28,8.28,0,0,1,8.26,8.26V264.26h16.51V90.84a24.8,24.8,0,0,0-24.77-24.78H280.77V57.81A8.28,8.28,0,0,1,289,49.55h99.1a8.27,8.27,0,0,1,8.26,8.26V99.1H412.9V57.81A24.8,24.8,0,0,0,388.13,33H289a24.8,24.8,0,0,0-24.77,24.78v8.25H181.68V24.77a8.27,8.27,0,0,1,8.26-8.25H470.71A8.27,8.27,0,0,1,479,24.77V99.1h16.51V24.77A24.8,24.8,0,0,0,470.71,0H189.94a24.81,24.81,0,0,0-24.78,24.77V66.06H140.39a24.81,24.81,0,0,0-24.78,24.78v41.29h16.52Z"/><path class="cls-1" d="M49.55,123.87A24.78,24.78,0,1,0,74.32,99.1,24.81,24.81,0,0,0,49.55,123.87Zm33,0a8.26,8.26,0,1,1-8.26-8.26A8.27,8.27,0,0,1,82.58,123.87Z"/><path class="cls-1" d="M41.29,82.58A41.29,41.29,0,1,0,0,41.29,41.33,41.33,0,0,0,41.29,82.58Zm0-66.06A24.77,24.77,0,1,1,16.52,41.29,24.8,24.8,0,0,1,41.29,16.52Z"/><path class="cls-1" d="M33,231.23a33,33,0,1,0-33-33A33.07,33.07,0,0,0,33,231.23Zm0-49.55a16.52,16.52,0,1,1-16.51,16.51A16.53,16.53,0,0,1,33,181.68Z"/></svg>