<svg id="Layer_1" data-name="Layer 1" xmlns="http://www.w3.org/2000/svg" viewBox="0 0 512 512"><defs><style>.cls-1{fill:#989999;}</style></defs><path class="cls-1" d="M504.5,248.5H383.74V231.44h32.58a7.5,7.5,0,0,0,0-15H383.74V199.37h22.62a31.34,31.34,0,0,0,22.31-9.24L478,140.81a23.51,23.51,0,1,0-10.61-10.61l-49.33,49.33a16.44,16.44,0,0,1-11.7,4.84H383.74V167.82a39.61,39.61,0,0,0-39.56-39.56H327.63V61.87a23.53,23.53,0,1,0-15,0v66.39H295.57V95.68a7.5,7.5,0,0,0-15,0v32.58H263.5V7.5a7.5,7.5,0,0,0-15,0V128.26H231.44V95.68a7.5,7.5,0,0,0-15,0v32.58H199.37V105.64a31.34,31.34,0,0,0-9.24-22.31L140.79,34A23.55,23.55,0,1,0,130.18,44.6l49.35,49.34a16.44,16.44,0,0,1,4.84,11.7v22.62H167.82a39.52,39.52,0,0,0-9.88,1.25A7.5,7.5,0,1,0,161.68,144a24.77,24.77,0,0,1,6.14-.77H344.18a24.59,24.59,0,0,1,24.56,24.56V344.18a24.77,24.77,0,0,1-.77,6.14,7.5,7.5,0,0,0,5.39,9.13,7.63,7.63,0,0,0,1.88.24,7.51,7.51,0,0,0,7.26-5.64,39.91,39.91,0,0,0,1.24-9.87V327.63h66.39a23.53,23.53,0,1,0,0-15H383.74V295.56h32.58a7.5,7.5,0,0,0,0-15H383.74V263.5H504.5a7.5,7.5,0,0,0,0-15ZM482.43,113.69a8.56,8.56,0,1,1-2.49,6A8.51,8.51,0,0,1,482.43,113.69ZM125.76,29.57a8.53,8.53,0,1,1,0-12.07A8.56,8.56,0,0,1,125.76,29.57ZM320.13,48.1a8.54,8.54,0,1,1,8.53-8.53A8.54,8.54,0,0,1,320.13,48.1ZM472.44,311.6a8.53,8.53,0,1,1-8.54,8.53A8.54,8.54,0,0,1,472.44,311.6Z" transform="translate(0 0)"/><path class="cls-1" d="M408.91,471.83a23.55,23.55,0,0,0-27.09-4.42l-49.34-49.35a16.41,16.41,0,0,1-4.85-11.7V383.74h16.55a40,40,0,0,0,9.88-1.24A7.5,7.5,0,1,0,350.32,368a24.77,24.77,0,0,1-6.14.77H167.82a24.59,24.59,0,0,1-24.56-24.56V167.82a24.77,24.77,0,0,1,.77-6.14,7.5,7.5,0,1,0-14.52-3.74,39.52,39.52,0,0,0-1.25,9.88v16.55H61.86a23.53,23.53,0,1,0,0,15h66.4v17.07H95.68a7.5,7.5,0,0,0,0,15h32.58V248.5H7.5a7.5,7.5,0,0,0,0,15H128.26v17.07H95.68a7.5,7.5,0,0,0,0,15h32.58v17.06H105.64a31.34,31.34,0,0,0-22.31,9.24L34,371.2a23.52,23.52,0,1,0,10.61,10.6l49.33-49.32a16.41,16.41,0,0,1,11.7-4.85h22.62v16.55a39.61,39.61,0,0,0,39.56,39.56h16.55v66.39a23.53,23.53,0,1,0,15,0V383.74h17.07v32.58a7.5,7.5,0,0,0,15,0V383.74H248.5V504.5a7.5,7.5,0,0,0,15,0V383.74h17.06v32.58a7.5,7.5,0,0,0,15,0V383.74h17.07v22.62a31.34,31.34,0,0,0,9.24,22.31L371.21,478a23.52,23.52,0,1,0,37.7-6.18ZM39.56,200.4a8.53,8.53,0,1,1,8.54-8.53A8.54,8.54,0,0,1,39.56,200.4Zm-10,197.91a8.56,8.56,0,1,1,2.49-6A8.51,8.51,0,0,1,29.57,398.31ZM200.4,472.44a8.53,8.53,0,1,1-8.53-8.54A8.54,8.54,0,0,1,200.4,472.44ZM398.31,494.5a8.53,8.53,0,1,1,0-12.06A8.54,8.54,0,0,1,398.31,494.5Z" transform="translate(0 0)"/><path class="cls-1" d="M335.64,236c0-16-11.73-29.62-27.79-34a25.35,25.35,0,0,0,.74-6c0-15.18-13.48-27.54-30-27.54A31.19,31.19,0,0,0,256,177.71a31.18,31.18,0,0,0-22.54-9.37c-16.57,0-30.05,12.36-30.05,27.54a25.35,25.35,0,0,0,.74,6c-16.06,4.41-27.79,18-27.79,34a32.89,32.89,0,0,0,7.9,21.34,37.06,37.06,0,0,0-7.9,22.75c0,12.75,6.81,24.66,18,32.05h0c0,17.4,15.5,31.55,34.56,31.55a35.79,35.79,0,0,0,27.05-12,35.81,35.81,0,0,0,27.05,12c18.34,0,33.38-13.11,34.49-29.6,11.13-6.46,18.1-17.78,18.1-30A33.79,33.79,0,0,0,325.21,260,33.79,33.79,0,0,0,335.64,236ZM309.1,266.64c7.23,3.82,11.54,10.33,11.54,17.42a19.19,19.19,0,0,1-6.6,14.1,33.73,33.73,0,0,0-19.72-15.88,7.5,7.5,0,0,0-4.5,14.31c7.65,2.4,12.79,8.64,12.79,15.53,0,9.12-8.78,16.54-19.56,16.54s-19.55-7.42-19.55-16.54V264c0-9.13,8.77-16.55,19.55-16.55a7.5,7.5,0,0,0,0-15A36.66,36.66,0,0,0,263.5,238v-9.58a7.5,7.5,0,0,0-15,0v41.63a35.86,35.86,0,0,0-8.29-3.83,7.5,7.5,0,0,0-4.5,14.31c7.65,2.4,12.79,8.64,12.79,15.52v16c0,9.13-8.77,16.55-19.56,16.55s-19.55-7.42-19.55-16.55a15.11,15.11,0,0,1,4.67-10.7,7.5,7.5,0,0,0-10.58-10.64,32.64,32.64,0,0,0-4.63,5.81,22.89,22.89,0,0,1-7.5-16.53c0-11.11,8.72-20.87,21.21-23.74a7.5,7.5,0,0,0-3.35-14.62,45.71,45.71,0,0,0-13.76,5.6,18.09,18.09,0,0,1-4.1-11.33c0-11.28,10.7-20.47,23.88-20.55h.2A7.5,7.5,0,0,0,221.8,204l-.17-.27-.1-.14c-.12-.16-.24-.32-.37-.47v0a11.12,11.12,0,0,1-2.74-7.19c0-6.92,6.75-12.54,15-12.54S248.5,189,248.5,195.88a7.5,7.5,0,0,0,15,0c0-6.92,6.75-12.54,15-12.54s15,5.62,15,12.54a10.57,10.57,0,0,1-1.13,4.72,41.39,41.39,0,0,0-12.31,3.09A7.5,7.5,0,0,0,286,217.51a27.05,27.05,0,0,1,10.37-2.1h.42c13.18.08,23.87,9.27,23.87,20.55,0,7.09-4.31,13.6-11.54,17.42a7.49,7.49,0,0,0,0,13.26Z" transform="translate(0 0)"/></svg>