<svg id="Layer_1" data-name="Layer 1" xmlns="http://www.w3.org/2000/svg" viewBox="0 0 471.19 512"><defs><style>.cls-1{fill:#989999;}</style></defs><path class="cls-1" d="M228.59,58.8a43.79,43.79,0,1,0,43.79,43.79A43.83,43.83,0,0,0,228.59,58.8Zm0,72.58a28.79,28.79,0,1,1,28.79-28.79,28.83,28.83,0,0,1-28.79,28.79Z" transform="translate(-20.4 0)"/><path class="cls-1" d="M125.3,114.15a43.8,43.8,0,1,0,43.79,43.79A43.84,43.84,0,0,0,125.3,114.15Zm0,72.59A28.8,28.8,0,1,1,154.09,158,28.82,28.82,0,0,1,125.3,186.74Z" transform="translate(-20.4 0)"/><path class="cls-1" d="M99.46,222.82a43.79,43.79,0,1,0,43.8,43.79,43.84,43.84,0,0,0-43.8-43.79Zm0,72.58a28.79,28.79,0,1,1,28.8-28.79A28.82,28.82,0,0,1,99.46,295.4Z" transform="translate(-20.4 0)"/><path class="cls-1" d="M240.54,357.16a43.8,43.8,0,1,0,43.79-43.79,43.84,43.84,0,0,0-43.79,43.79Zm43.79-28.79a28.79,28.79,0,1,1-28.79,28.79A28.83,28.83,0,0,1,284.33,328.37Z" transform="translate(-20.4 0)"/><path class="cls-1" d="M485,61.45a7.5,7.5,0,0,0-8.38,6.5A68.4,68.4,0,0,1,472.09,86a36.16,36.16,0,0,1-10.57,13.73L401,74.06a35.53,35.53,0,0,1,2.91-16.77c8.64-19.66,41.2-48.57,58.58-41.19,8.59,3.65,12.13,16.07,13.48,23.15a7.5,7.5,0,1,0,14.73-2.8C487.39,18.9,479.66,7.09,468.37,2.3,440.86-9.38,401.3,26,390.2,51.26A50.61,50.61,0,0,0,386,69.69a16,16,0,0,0-13.35,9.46l-5.74,13.07a15.8,15.8,0,0,0,8.37,20.9l2.56,1.09-19.88,49a72.53,72.53,0,0,1-38-65.88,65.35,65.35,0,0,0-15.73-44.79c-17.85-20.82-39.82-23.8-67.05-23.91a217.08,217.08,0,0,0-74.34,12.71,7.5,7.5,0,0,0,5.06,14.12,202.62,202.62,0,0,1,69.22-11.83,208,208,0,0,1,23.18,1.39A50.25,50.25,0,0,1,304.9,96.88a87.62,87.62,0,0,0,47.33,80.36L315,269.06c0-.23,0-.46,0-.69a7.5,7.5,0,1,0-15-.49c-1.21,36.37,48.43,62.56,80.67,43.39a7.5,7.5,0,0,0-5.56-13.75L420.83,201c10.76,9.82,16,22.29,16.15,37.79C437.57,290.53,417.19,340,379.62,378,319,439.26,231.23,453.26,157.88,422.71S32.78,319.83,35.5,234.61C37.81,162.51,79.84,99.89,141,67.35a7.5,7.5,0,0,0-7-13.25C68.51,88.92,23,156.15,20.51,234.13c-3.9,122,96.58,221.35,219.76,219.11l-9,22.1a26.43,26.43,0,0,0,14.42,34.46,27,27,0,0,0,35.15-13.22L307,441.34a217.85,217.85,0,0,0,83.25-52.82c40.61-41.07,63-95.13,61.65-152.66a64.85,64.85,0,0,0-24.46-49l20.34-43,2.73,1.15a16.09,16.09,0,0,0,21-8.24l5.74-13.08a15.66,15.66,0,0,0,.22-12.13,16.27,16.27,0,0,0-2.3-4,51.19,51.19,0,0,0,10.66-15.6,82.44,82.44,0,0,0,5.71-22.22,7.5,7.5,0,0,0-6.5-8.38ZM267.32,490.16A12.22,12.22,0,0,1,251.59,496a11.54,11.54,0,0,1-6.38-15l11.64-28.69a214.34,214.34,0,0,0,30.88-5.23Zm88.77-187.52a45.42,45.42,0,0,1-32.75-14.28L391.6,120.08l42.39,18Zm107.43-184.9-5.74,13.08a1.07,1.07,0,0,1-1.37.47l-75.32-32a.81.81,0,0,1-.49-1.07l5.74-13.07a1,1,0,0,1,1.37-.47l75.31,32a.9.9,0,0,1,.51.49A.72.72,0,0,1,463.52,117.74Z" transform="translate(-20.4 0)"/><path class="cls-1" d="M129.26,350.48a43.83,43.83,0,0,0,19.08,36.16,7.5,7.5,0,0,0,8.48-12.38,28.79,28.79,0,1,1,23.58,4.07,7.5,7.5,0,1,0,3.81,14.51,43.8,43.8,0,1,0-55-42.36Z" transform="translate(-20.4 0)"/></svg>