<svg id="Layer_1" data-name="Layer 1" xmlns="http://www.w3.org/2000/svg" viewBox="0 0 512 410.66"><defs><style>.cls-1{fill:#ffc107;}</style></defs><path class="cls-1" d="M440.13,121.62c-19.94-1.53-42.51-6.06-67.07-13.46-29.51-8.9-58.15-7.52-85.13,4.08A7.5,7.5,0,1,0,293.85,126c23.65-10.17,48.85-11.35,74.88-3.5C394.33,130.23,418,135,439,136.58l.58,0a7.5,7.5,0,0,0,.57-15Z" transform="translate(0 -50.67)"/><path class="cls-1" d="M440.13,153.49c-19.94-1.53-42.5-6.05-67.07-13.46-29.51-8.89-58.15-7.52-85.13,4.08a7.5,7.5,0,1,0,5.92,13.78c23.65-10.16,48.85-11.34,74.88-3.5,25.6,7.72,49.24,12.45,70.25,14.06a5.62,5.62,0,0,0,.58,0,7.5,7.5,0,0,0,.57-15Z" transform="translate(0 -50.67)"/><path class="cls-1" d="M440.13,312.87c-19.94-1.53-42.51-6.06-67.07-13.46-29.5-8.89-58.15-7.52-85.13,4.08a7.5,7.5,0,1,0,5.92,13.78c23.65-10.17,48.85-11.34,74.88-3.5,25.6,7.72,49.23,12.44,70.25,14.06l.58,0a7.5,7.5,0,0,0,.57-15Z" transform="translate(0 -50.67)"/><path class="cls-1" d="M440.13,344.75c-19.94-1.53-42.51-6.06-67.07-13.46-29.51-8.9-58.15-7.53-85.13,4.07a7.5,7.5,0,0,0,5.92,13.79c23.65-10.17,48.85-11.35,74.88-3.5,25.6,7.71,49.23,12.44,70.25,14.05a5.63,5.63,0,0,0,.58,0,7.5,7.5,0,0,0,.57-15Z" transform="translate(0 -50.67)"/><path class="cls-1" d="M440.13,185.37c-19.94-1.53-42.51-6.06-67.07-13.46-29.5-8.9-58.15-7.52-85.13,4.08a7.5,7.5,0,1,0,5.92,13.78c23.65-10.17,48.85-11.34,74.88-3.5C394.33,194,418,198.71,439,200.33l.58,0a7.5,7.5,0,0,0,.57-15Z" transform="translate(0 -50.67)"/><path class="cls-1" d="M440.13,249.12c-19.94-1.53-42.5-6.06-67.07-13.46-29.5-8.89-58.15-7.52-85.13,4.08a7.5,7.5,0,1,0,5.92,13.78c23.65-10.17,48.85-11.34,74.88-3.5,25.6,7.72,49.24,12.45,70.25,14.06l.58,0a7.5,7.5,0,0,0,.57-15Z" transform="translate(0 -50.67)"/><path class="cls-1" d="M440.13,217.25c-19.94-1.53-42.51-6.06-67.07-13.47-29.5-8.89-58.15-7.52-85.13,4.08a7.5,7.5,0,1,0,5.92,13.78c23.66-10.16,48.85-11.34,74.88-3.49,25.6,7.71,49.23,12.44,70.25,14a5.62,5.62,0,0,0,.58,0,7.5,7.5,0,0,0,.57-15Z" transform="translate(0 -50.67)"/><path class="cls-1" d="M440.13,281c-19.94-1.53-42.51-6.06-67.07-13.47-29.5-8.89-58.15-7.52-85.13,4.08a7.5,7.5,0,0,0,5.92,13.79c23.65-10.17,48.85-11.35,74.88-3.5C394.33,289.61,418,294.34,439,296a5.62,5.62,0,0,0,.58,0,7.5,7.5,0,0,0,.57-15Z" transform="translate(0 -50.67)"/><path class="cls-1" d="M72.44,136.6l.58,0c21-1.62,44.65-6.35,70.25-14.06,26-7.85,51.23-6.67,74.88,3.5a7.5,7.5,0,1,0,5.92-13.78c-27-11.6-55.62-13-85.13-4.08-24.56,7.4-47.13,11.93-67.07,13.46a7.5,7.5,0,0,0,.57,15Z" transform="translate(0 -50.67)"/><path class="cls-1" d="M72.44,168.47a5.62,5.62,0,0,0,.58,0c21-1.61,44.65-6.34,70.25-14.06,26-7.84,51.23-6.67,74.88,3.5a7.5,7.5,0,1,0,5.92-13.78c-27-11.6-55.62-13-85.13-4.08-24.57,7.41-47.13,11.93-67.06,13.46a7.5,7.5,0,0,0,.56,15Z" transform="translate(0 -50.67)"/><path class="cls-1" d="M72.44,327.85l.58,0c21-1.61,44.65-6.34,70.25-14.06,26-7.85,51.23-6.67,74.88,3.5a7.5,7.5,0,0,0,5.92-13.78c-27-11.6-55.62-13-85.13-4.08-24.56,7.4-47.12,11.93-67.07,13.46a7.5,7.5,0,0,0,.57,15Z" transform="translate(0 -50.67)"/><path class="cls-1" d="M72.44,359.73a5.63,5.63,0,0,0,.58,0c21-1.61,44.65-6.34,70.25-14.05,26-7.85,51.23-6.67,74.88,3.5a7.5,7.5,0,0,0,5.92-13.79c-27-11.6-55.62-13-85.13-4.07-24.56,7.4-47.13,11.93-67.07,13.46a7.5,7.5,0,0,0,.57,15Z" transform="translate(0 -50.67)"/><path class="cls-1" d="M72.44,200.35l.58,0c21-1.62,44.65-6.35,70.25-14.06,26-7.85,51.23-6.67,74.88,3.5A7.5,7.5,0,0,0,224.07,176c-27-11.6-55.62-13-85.13-4.08-24.56,7.4-47.12,11.93-67.07,13.46a7.5,7.5,0,0,0,.57,15Z" transform="translate(0 -50.67)"/><path class="cls-1" d="M72.44,264.1l.58,0c21-1.61,44.65-6.34,70.25-14.06,26-7.84,51.23-6.67,74.88,3.5a7.5,7.5,0,0,0,5.92-13.78c-27-11.6-55.62-13-85.13-4.08-24.57,7.4-47.13,11.93-67.06,13.46a7.5,7.5,0,0,0,.56,15Z" transform="translate(0 -50.67)"/><path class="cls-1" d="M72.44,232.22a5.62,5.62,0,0,0,.58,0c21-1.61,44.65-6.34,70.25-14,26-7.85,51.23-6.67,74.88,3.49a7.5,7.5,0,1,0,5.92-13.78c-27-11.6-55.62-13-85.13-4.08-24.56,7.41-47.13,11.94-67.07,13.47a7.5,7.5,0,0,0,.57,15Z" transform="translate(0 -50.67)"/><path class="cls-1" d="M72.44,296a5.62,5.62,0,0,0,.58,0c21-1.61,44.65-6.34,70.25-14.05,26-7.85,51.23-6.67,74.88,3.5a7.5,7.5,0,0,0,5.92-13.79c-27-11.6-55.62-13-85.13-4.08-24.56,7.41-47.13,11.94-67.06,13.47a7.5,7.5,0,0,0,.56,15Z" transform="translate(0 -50.67)"/><path class="cls-1" d="M493.68,93.32H481.94V86.47a16.46,16.46,0,0,0-17.76-16.41c-11.07.88-35.3.94-73.26-8.69a7.5,7.5,0,1,0-3.69,14.54c38,9.65,63.5,10.28,78.15,9.1a1.45,1.45,0,0,1,1.56,1.46V389.13c-28.41,3.07-66.36-5.07-93.88-13.36-61.46-18.52-101.19,13.3-109.56,17.83V93.81c8.1-7.6,40.77-34.52,89.38-26.7a7.5,7.5,0,1,0,2.39-14.81A121.35,121.35,0,0,0,256,80.37c-29.84-25.88-72.52-37.38-117-24-47.78,14.4-77.6,14.73-91.12,13.65A16.46,16.46,0,0,0,30.06,86.47v6.85H18.32A18.33,18.33,0,0,0,0,111.63V415.78a18.33,18.33,0,0,0,18.32,18.31H212.65a7.38,7.38,0,0,1,6.72,4.1c14.56,30.8,58.65,30.91,73.25,0a7.41,7.41,0,0,1,6.73-4.1H493.68A18.33,18.33,0,0,0,512,415.78V273.54a7.5,7.5,0,1,0-15,0V415.78a3.32,3.32,0,0,1-3.32,3.31H299.36a22.47,22.47,0,0,0-20.3,12.69c-9.16,19.4-36.92,19.47-46.12,0a22.47,22.47,0,0,0-20.29-12.69H18.32A3.32,3.32,0,0,1,15,415.78V111.63a3.32,3.32,0,0,1,3.32-3.31H30.06V395.53a7.5,7.5,0,0,0,5.58,7.25c1.43.38,35.78,9,107.63-12.65,34.76-10.47,68.31-4.05,94.94,14.72a31,31,0,0,0,35.59,0c16.08-11.34,49.78-28.32,94.93-14.72,71.86,21.66,106.21,13,107.63,12.65a7.5,7.5,0,0,0,5.58-7.25V108.32h11.74a3.32,3.32,0,0,1,3.32,3.31V238.54a7.5,7.5,0,0,0,15,0V111.63A18.33,18.33,0,0,0,493.68,93.32ZM45.06,86.47A1.45,1.45,0,0,1,46.62,85c14.57,1.17,46.51.88,96.65-14.23,40.61-12.24,79.4-1.15,105.23,23V393.6c-4.3-2.32-46.47-36.84-109.56-17.83-4.05,1.22-8.49,2.49-12.61,3.59l-.14,0c-24.15,6.44-56.28,12.41-81.13,9.73V86.47Z" transform="translate(0 -50.67)"/></svg>