<svg width="266" height="297" viewBox="0 0 266 297" fill="none" xmlns="http://www.w3.org/2000/svg">
<path d="M79.4867 25.3546C76.9231 25.3546 75.2822 25.291 74.5641 25.1637C73.1641 24.9274 72.0961 24.2501 71.36 23.1319C70.8965 22.4319 70.6058 21.6319 70.4879 20.7319C70.4516 20.4046 70.4335 20.0637 70.4336 19.7092C70.4337 19.3183 70.4565 18.9137 70.5021 18.4956C70.5658 17.9319 70.7342 17.1274 71.0072 16.0819C71.0891 15.7456 71.1801 15.4046 71.2802 15.0592C71.3166 14.941 71.3484 14.8319 71.3757 14.7319C71.3939 14.6501 71.4075 14.6001 71.4166 14.5819L75.7118 15.7956C75.2478 17.4501 74.9383 18.8046 74.7835 19.8592C74.7744 19.9319 74.7699 20.0046 74.7698 20.0774C74.7698 20.2501 74.8016 20.4001 74.8652 20.5274C74.9742 20.7637 75.1696 20.8819 75.4515 20.8819H90.2878C91.106 20.8819 91.6833 20.7728 92.0197 20.5546C92.3652 20.3456 92.538 20.0137 92.5382 19.5592C92.5382 19.4228 92.52 19.2728 92.4837 19.1092C92.3929 18.6456 92.3021 18.1728 92.2113 17.691C92.175 17.5092 92.1387 17.3137 92.1024 17.1046L92.0479 16.8456L92.0071 16.5865C91.9435 16.241 91.889 15.941 91.8436 15.6865L96.1258 14.4865C96.3528 15.6137 96.607 16.9274 96.8884 18.4274C96.9611 18.8637 96.9973 19.2819 96.9972 19.6819C96.9969 20.9183 96.6421 22.0274 95.9328 23.0092C94.796 24.5728 92.9458 25.3546 90.3822 25.3546H79.4867ZM86.812 15.0183L84.1399 12.3183L86.786 9.59102L89.5127 12.3183L86.812 15.0183ZM81.0984 15.0319L78.4263 12.3319L81.0588 9.60466L83.7854 12.3319L81.0984 15.0319ZM103.517 25.2046H99.0446L99.0494 5.54102H103.522L103.517 25.2046ZM113.36 9.52284L113.605 9.87738C113.66 9.9592 113.71 10.0274 113.755 10.0819C113.819 10.1728 113.878 10.2637 113.932 10.3546C114.087 10.5728 114.251 10.8001 114.423 11.0365C114.868 11.6819 115.364 12.3956 115.909 13.1774C116.618 14.1774 117.39 15.2728 118.226 16.4637C118.881 17.4092 119.253 18.3956 119.344 19.4228C119.362 19.6046 119.371 19.7865 119.371 19.9683C119.371 20.8228 119.175 21.6319 118.784 22.3956C118.302 23.3137 117.611 24.0274 116.711 24.5365C115.802 25.0546 114.783 25.3137 113.656 25.3137C112.347 25.3137 110.643 25.041 108.543 24.4956C107.915 24.3319 107.284 24.1501 106.647 23.9501C106.447 23.8956 106.256 23.8365 106.075 23.7728C106.011 23.7546 105.956 23.741 105.911 23.7319L105.87 23.7046H105.843L107.276 19.4637C107.621 19.5819 108.026 19.7092 108.489 19.8456C109.062 20.0092 109.626 20.1592 110.18 20.2956C111.671 20.6592 112.83 20.841 113.657 20.841C114.248 20.841 114.634 20.6728 114.816 20.3365C114.88 20.2092 114.912 20.0728 114.912 19.9274C114.912 19.6637 114.798 19.3683 114.571 19.041C113.735 17.8501 112.963 16.7501 112.254 15.741C111.718 14.9774 111.218 14.2637 110.754 13.6001C110.027 12.5728 109.664 12.0546 109.664 12.0456L113.36 9.52284ZM128.543 25.2046H127.316C126.307 25.2046 125.403 25.0274 124.603 24.6728C123.994 24.4092 123.462 24.0501 123.008 23.5956C122.553 23.141 122.194 22.6092 121.931 22.0001C121.576 21.2001 121.399 20.2956 121.399 19.2865L121.403 5.54102H125.862L125.859 19.2865C125.858 19.841 125.963 20.2228 126.172 20.4319C126.372 20.6319 126.754 20.7319 127.317 20.7319H128.545L128.543 25.2046ZM138.065 25.2728C138.156 24.891 138.27 24.5228 138.406 24.1683C138.452 24.041 138.497 23.9228 138.543 23.8137L138.597 23.7046C138.607 23.6774 138.616 23.6592 138.625 23.6501C137.452 24.2501 136.225 24.6001 134.943 24.7001C135.07 25.4274 135.488 26.1637 136.197 26.9092C136.806 27.5546 137.406 28.0001 137.996 28.2456C137.887 27.8637 137.833 27.4501 137.833 27.0046C137.833 26.4774 137.911 25.9001 138.065 25.2728ZM134.726 20.1865C136.362 19.9592 137.494 19.5319 138.121 18.9046C138.34 18.6865 138.494 18.4546 138.585 18.2092C138.612 18.1183 138.631 18.0274 138.64 17.9365L138.653 17.8274V17.7456C138.654 17.4092 138.545 17.1228 138.326 16.8865C138.072 16.6228 137.713 16.491 137.249 16.491C136.522 16.491 135.913 16.991 135.422 17.991C135.249 18.3456 135.094 18.7546 134.958 19.2183C134.903 19.391 134.858 19.5728 134.821 19.7637C134.785 19.9001 134.753 20.041 134.726 20.1865ZM141.205 13.4365C142.413 14.4274 143.018 15.8637 143.017 17.7456C143.017 18.891 142.721 19.9319 142.13 20.8683C142.521 20.7774 142.88 20.7319 143.207 20.7319H145.757L145.756 25.2046H143.506C143.197 25.2046 142.92 25.3319 142.674 25.5865C142.447 25.8319 142.288 26.1546 142.197 26.5546C142.142 26.7728 142.115 26.991 142.115 27.2092C142.115 27.8728 142.378 28.4865 142.905 29.0501L141.486 32.691C140.959 32.7637 140.477 32.8001 140.041 32.8001C137.232 32.8001 134.859 31.7637 132.923 29.691C132.214 28.9274 131.619 28.0819 131.138 27.1546C130.738 26.4001 130.483 25.7365 130.374 25.1637C129.447 25.191 128.602 25.2046 127.838 25.2046L127.839 20.7319H128.944C129.38 20.7228 129.785 20.7092 130.157 20.691C130.367 18.6456 130.867 16.941 131.659 15.5774C132.304 14.4683 133.104 13.6228 134.059 13.041C135.023 12.4501 136.087 12.1546 137.25 12.1546C138.85 12.1546 140.168 12.5819 141.205 13.4365ZM153.05 19.491C153.05 19.9274 153.155 20.2365 153.364 20.4183C153.6 20.6274 154.018 20.7319 154.618 20.7319H155.164L155.162 25.2046H154.617C154.026 25.2046 153.467 25.141 152.94 25.0137C152.522 24.9137 152.131 24.7728 151.767 24.591C151.349 24.391 151.035 24.191 150.826 23.991C150.617 24.191 150.281 24.391 149.817 24.591C148.899 25.0001 147.808 25.2046 146.544 25.2046H143.981L143.982 20.7319H146.859C147.514 20.7319 147.973 20.6228 148.236 20.4046C148.473 20.2137 148.591 19.9092 148.591 19.491L148.592 15.7819H153.051L153.05 19.491ZM147.012 9.49556L149.849 6.63193L152.739 9.52284L149.861 12.3865L147.012 9.49556ZM164.056 20.7319C164.52 20.7319 164.865 20.6365 165.093 20.4456C165.402 20.191 165.557 19.741 165.557 19.0956L165.558 15.7819H170.03L170.029 19.0956C170.029 19.6865 170.111 20.0865 170.275 20.2956C170.484 20.5865 170.911 20.7319 171.556 20.7319C172.02 20.7319 172.365 20.6365 172.593 20.4456C172.893 20.191 173.043 19.741 173.043 19.0956L173.044 15.7819H177.517L177.516 19.0956C177.516 19.6592 177.62 20.0592 177.829 20.2956C178.075 20.5865 178.525 20.7319 179.179 20.7319H180.925L180.923 25.2046H179.178C177.305 25.2046 176.001 24.791 175.265 23.9637C174.183 24.791 172.946 25.2046 171.555 25.2046C169.773 25.2046 168.514 24.791 167.778 23.9637C166.696 24.791 165.478 25.2046 164.123 25.2046C162.687 25.2046 161.428 24.791 160.346 23.9637C159.61 24.791 158.305 25.2046 156.433 25.2046H154.469L154.47 20.7319H156.434C157.088 20.7319 157.538 20.5865 157.784 20.2956C157.993 20.0592 158.098 19.6592 158.098 19.0956V15.7819H162.571L162.57 19.0956C162.57 19.741 162.725 20.191 163.034 20.4456C163.252 20.6365 163.593 20.7319 164.056 20.7319ZM167.523 10.1365L164.822 12.8637L162.123 10.1637L164.823 7.43647L167.523 10.1365ZM173.441 10.0956L170.767 12.7956L168 10.1228L170.728 7.39556L173.441 10.0956ZM170.169 6.57738L167.796 8.95011L165.451 6.60465L167.824 4.23193L170.169 6.57738ZM191.338 19.491C191.338 19.9274 191.442 20.2365 191.651 20.4183C191.888 20.6274 192.306 20.7319 192.906 20.7319H194.897L194.896 25.2046H192.905C192.314 25.2046 191.755 25.141 191.227 25.0137C190.809 24.9137 190.418 24.7728 190.055 24.591C189.637 24.391 189.323 24.191 189.114 23.991C188.905 24.191 188.569 24.391 188.105 24.591C187.187 25.0001 186.096 25.2046 184.832 25.2046H180.25L180.251 20.7319H185.147C185.801 20.7319 186.26 20.6228 186.524 20.4046C186.76 20.2137 186.879 19.9092 186.879 19.491L186.88 15.7819H191.339L191.338 19.491ZM189.548 33.0865L186.876 30.3865L189.522 27.6592L192.249 30.3865L189.548 33.0865ZM183.794 33.1001L181.122 30.4001L183.754 27.6728L186.481 30.4001L183.794 33.1001ZM206.063 18.2774C206.135 18.7137 206.172 19.1319 206.172 19.5319C206.171 20.7683 205.816 21.8774 205.107 22.8592C203.97 24.4228 202.12 25.2046 199.557 25.2046H194.225L194.226 20.7319H199.462C200.28 20.7319 200.858 20.6228 201.194 20.4046C201.54 20.1956 201.712 19.8637 201.713 19.4092C201.713 19.2728 201.694 19.1228 201.658 18.9592C201.567 18.4956 201.476 18.0228 201.386 17.541C201.349 17.3592 201.313 17.1637 201.277 16.9546L201.222 16.6956L201.181 16.4365C201.045 15.691 200.941 15.1592 200.868 14.841L205.137 13.5456C205.409 14.8274 205.718 16.4046 206.063 18.2774ZM197.427 32.7728L194.728 30.1274L197.429 27.3456L200.128 30.1274L197.427 32.7728ZM203.305 32.8274L200.578 30.1274L203.347 27.4274L206.019 30.1274L203.305 32.8274ZM200.427 35.9774L198.054 33.6046L200.401 31.2592L202.773 33.6319L200.427 35.9774ZM81.5421 66.1319C81.5414 68.9683 80.8273 71.1956 79.3996 72.8137C77.8082 74.6228 75.4807 75.5274 72.4171 75.5274H71.0671L71.0682 71.0546H72.4182C74.0909 71.0546 75.2819 70.6774 75.9912 69.9228C76.7096 69.1683 77.069 67.9046 77.0694 66.1319L77.0712 58.7819H81.5439L81.5421 66.1319ZM88.3018 68.2046H83.829L83.8338 48.541H88.3066L88.3018 68.2046ZM98.1444 52.5228L98.3898 52.8774C98.4443 52.9592 98.4943 53.0274 98.5398 53.0819C98.6034 53.1728 98.6624 53.2637 98.717 53.3546C98.8715 53.5728 99.035 53.8001 99.2077 54.0365C99.653 54.6819 100.148 55.3956 100.693 56.1774C101.402 57.1774 102.175 58.2728 103.011 59.4637C103.665 60.4092 104.038 61.3956 104.128 62.4228C104.146 62.6046 104.155 62.7865 104.155 62.9683C104.155 63.8228 103.96 64.6319 103.568 65.3956C103.086 66.3137 102.395 67.0274 101.495 67.5365C100.586 68.0546 99.5678 68.3137 98.4406 68.3137C97.1315 68.3137 95.427 68.041 93.3271 67.4956C92.6999 67.3319 92.0681 67.1501 91.4318 66.9501C91.2318 66.8956 91.0409 66.8365 90.8591 66.7728C90.7955 66.7546 90.741 66.741 90.6955 66.7319L90.6546 66.7046H90.6273L92.0602 62.4637C92.4056 62.5819 92.8101 62.7092 93.2737 62.8456C93.8464 63.0092 94.41 63.1592 94.9645 63.2956C96.4553 63.6592 97.6144 63.841 98.4417 63.841C99.0326 63.841 99.419 63.6728 99.6009 63.3365C99.6645 63.2092 99.6964 63.0728 99.6964 62.9274C99.6965 62.6637 99.5829 62.3683 99.3557 62.041C98.5197 60.8501 97.7472 59.7501 97.0384 58.741C96.5022 57.9774 96.0024 57.2637 95.5389 56.6001C94.8119 55.5728 94.4484 55.0546 94.4484 55.0456L98.1444 52.5228ZM140.428 56.0683C141.664 57.3774 142.281 58.9956 142.281 60.9228C142.281 61.9592 142.09 62.8956 141.708 63.7319H143.33L143.329 68.2046H141.352C139.134 68.2046 137.202 67.9546 135.557 67.4546C134.002 67.9546 132.066 68.2046 129.747 68.2046H124.388C121.825 68.2046 120.184 68.141 119.466 68.0137C118.066 67.7774 116.998 67.1001 116.262 65.9819C115.798 65.2819 115.507 64.4819 115.389 63.5819C115.353 63.2546 115.335 62.9137 115.335 62.5592C115.335 62.1683 115.358 61.7637 115.404 61.3456C115.467 60.7819 115.636 59.9774 115.909 58.9319C115.991 58.5956 116.082 58.2546 116.182 57.9092C116.218 57.791 116.25 57.6819 116.277 57.5819C116.295 57.5001 116.309 57.4501 116.318 57.4319L120.613 58.6456C120.149 60.3001 119.84 61.6546 119.685 62.7092C119.676 62.7819 119.671 62.8546 119.671 62.9274C119.671 63.1001 119.703 63.2501 119.767 63.3774C119.876 63.6137 120.071 63.7319 120.353 63.7319H129.394C129.012 62.8956 128.822 61.9592 128.822 60.9228C128.822 58.9956 129.441 57.3774 130.678 56.0683C131.96 54.7137 133.587 54.0365 135.56 54.0365C137.533 54.0365 139.155 54.7137 140.428 56.0683ZM135.558 63.3501C136.467 63.1046 137.112 62.7365 137.494 62.2456C137.767 61.891 137.904 61.4501 137.904 60.9228C137.904 60.2865 137.722 59.7456 137.359 59.3001C136.931 58.7728 136.332 58.5092 135.559 58.5092C134.786 58.5092 134.186 58.7728 133.759 59.3001C133.395 59.7456 133.213 60.2865 133.213 60.9228C133.213 61.4501 133.353 61.891 133.635 62.2456C134.008 62.7365 134.649 63.1046 135.558 63.3501ZM132.752 49.741L135.589 46.8774L138.479 49.7683L135.601 52.6319L132.752 49.741ZM153.769 62.491C153.769 62.9274 153.873 63.2365 154.082 63.4183C154.319 63.6274 154.737 63.7319 155.337 63.7319H157.328L157.326 68.2046H155.336C154.745 68.2046 154.186 68.141 153.658 68.0137C153.24 67.9137 152.849 67.7728 152.486 67.591C152.068 67.391 151.754 67.191 151.545 66.991C151.336 67.191 150.999 67.391 150.536 67.591C149.617 68.0001 148.526 68.2046 147.263 68.2046H142.681L142.682 63.7319H147.578C148.232 63.7319 148.691 63.6228 148.955 63.4046C149.191 63.2137 149.31 62.9092 149.31 62.491L149.311 58.7819H153.77L153.769 62.491ZM151.979 76.0865L149.307 73.3865L151.953 70.6592L154.68 73.3865L151.979 76.0865ZM146.225 76.1001L143.552 73.4001L146.185 70.6728L148.912 73.4001L146.225 76.1001ZM164.511 63.3501C165.421 63.1046 166.066 62.7365 166.448 62.2456C166.721 61.891 166.857 61.4501 166.857 60.9228C166.858 60.2865 166.676 59.7456 166.312 59.3001C165.885 58.7728 165.285 58.5092 164.513 58.5092C163.74 58.5092 163.14 58.7728 162.712 59.3001C162.349 59.7456 162.167 60.2865 162.167 60.9228C162.166 61.4501 162.307 61.891 162.589 62.2456C162.962 62.7365 163.602 63.1046 164.511 63.3501ZM164.514 54.0365C166.486 54.0365 168.109 54.7137 169.381 56.0683C170.617 57.3774 171.235 58.9956 171.235 60.9228C171.234 61.9592 171.043 62.8956 170.661 63.7319H172.284L172.283 68.2046H170.306C168.087 68.2046 166.156 67.9546 164.51 67.4546C162.956 67.9546 161.019 68.2046 158.701 68.2046H156.724L156.725 63.7319H158.348C157.966 62.8956 157.775 61.9592 157.776 60.9228C157.776 58.9956 158.395 57.3774 159.631 56.0683C160.913 54.7137 162.541 54.0365 164.514 54.0365ZM161.583 49.8637L164.42 47.0001L167.31 49.891L164.432 52.7546L161.583 49.8637ZM179.472 55.4956C180.218 55.6046 182.072 56.0683 185.036 56.8865C186.072 57.1683 187.167 57.4728 188.322 57.8001C189.231 58.0637 189.931 58.2683 190.422 58.4137L191.116 62.3546L190.721 62.6546L190.325 62.9274C190.007 63.1637 189.761 63.3456 189.589 63.4728C190.052 63.591 190.707 63.6683 191.552 63.7046C191.852 63.7137 192.175 63.7228 192.52 63.7319H193.229L193.228 68.2046C190.437 68.2046 188.451 67.9274 187.269 67.3728C186.579 67.0546 186.011 66.6274 185.565 66.091C184.801 66.5092 184.006 66.8592 183.179 67.141C181.088 67.8501 177.247 68.2046 171.656 68.2046L171.657 63.7319C175.266 63.7319 177.875 63.6046 179.484 63.3501C181.43 63.041 183.166 62.4001 184.694 61.4274L183.698 61.1546L182.744 60.8819C181.962 60.6546 181.376 60.491 180.985 60.391C179.785 60.0637 179.03 59.9001 178.721 59.9001C178.476 59.9001 178.244 60.041 178.026 60.3228C177.798 60.5956 177.626 60.9683 177.507 61.441L173.185 60.3092C173.603 58.691 174.381 57.441 175.518 56.5592C176.481 55.8046 177.518 55.4274 178.627 55.4274C178.9 55.4274 179.181 55.4501 179.472 55.4956ZM175.86 50.8046L178.697 47.941L181.587 50.8319L178.709 53.6956L175.86 50.8046ZM204.382 61.2774C204.455 61.7137 204.491 62.1319 204.491 62.5319C204.491 63.7683 204.136 64.8774 203.427 65.8592C202.29 67.4228 200.44 68.2046 197.876 68.2046H192.544L192.545 63.7319H197.782C198.6 63.7319 199.177 63.6228 199.514 63.4046C199.859 63.1956 200.032 62.8637 200.032 62.4092C200.032 62.2728 200.014 62.1228 199.978 61.9592C199.887 61.4956 199.796 61.0228 199.705 60.541C199.669 60.3592 199.633 60.1637 199.596 59.9546L199.542 59.6956L199.501 59.4365C199.365 58.691 199.26 58.1592 199.188 57.841L203.456 56.5456C203.729 57.8274 204.037 59.4046 204.382 61.2774ZM201.575 54.4728L198.903 51.7728L201.549 49.0456L204.276 51.7728L201.575 54.4728ZM195.861 54.4865L193.189 51.7865L195.822 49.0592L198.548 51.7865L195.861 54.4865Z" fill="#E69924"/>
<path d="M76.4867 21.3546C73.9231 21.3546 72.2822 21.291 71.5641 21.1637C70.1641 20.9274 69.0961 20.2501 68.36 19.1319C67.8965 18.4319 67.6058 17.6319 67.4879 16.7319C67.4516 16.4046 67.4335 16.0637 67.4336 15.7092C67.4337 15.3183 67.4565 14.9137 67.5021 14.4956C67.5658 13.9319 67.7342 13.1274 68.0072 12.0819C68.0891 11.7456 68.1801 11.4046 68.2802 11.0592C68.3166 10.941 68.3484 10.8319 68.3757 10.7319C68.3939 10.6501 68.4075 10.6001 68.4166 10.5819L72.7118 11.7956C72.2478 13.4501 71.9383 14.8046 71.7835 15.8592C71.7744 15.9319 71.7699 16.0046 71.7698 16.0774C71.7698 16.2501 71.8016 16.4001 71.8652 16.5274C71.9742 16.7637 72.1696 16.8819 72.4515 16.8819H87.2878C88.106 16.8819 88.6833 16.7728 89.0197 16.5546C89.3652 16.3456 89.538 16.0137 89.5382 15.5592C89.5382 15.4228 89.52 15.2728 89.4837 15.1092C89.3929 14.6456 89.3021 14.1728 89.2113 13.691C89.175 13.5092 89.1387 13.3137 89.1024 13.1046L89.0479 12.8456L89.0071 12.5865C88.9435 12.241 88.889 11.941 88.8436 11.6865L93.1258 10.4865C93.3528 11.6137 93.607 12.9274 93.8884 14.4274C93.9611 14.8637 93.9973 15.2819 93.9972 15.6819C93.9969 16.9183 93.6421 18.0274 92.9328 19.0092C91.796 20.5728 89.9458 21.3546 87.3822 21.3546H76.4867ZM83.812 11.0183L81.1399 8.3183L83.786 5.59103L86.5127 8.3183L83.812 11.0183ZM78.0984 11.0319L75.4263 8.33193L78.0588 5.60467L80.7854 8.33193L78.0984 11.0319ZM100.517 21.2046H96.0446L96.0494 1.54103H100.522L100.517 21.2046ZM110.36 5.52285L110.605 5.87739C110.66 5.95921 110.71 6.02739 110.755 6.08194C110.819 6.17285 110.878 6.26376 110.932 6.35466C111.087 6.57285 111.251 6.80012 111.423 7.03648C111.868 7.68194 112.364 8.39557 112.909 9.17739C113.618 10.1774 114.39 11.2728 115.226 12.4637C115.881 13.4092 116.253 14.3956 116.344 15.4228C116.362 15.6046 116.371 15.7865 116.371 15.9683C116.371 16.8228 116.175 17.6319 115.784 18.3956C115.302 19.3137 114.611 20.0274 113.711 20.5365C112.802 21.0546 111.783 21.3137 110.656 21.3137C109.347 21.3137 107.643 21.041 105.543 20.4956C104.915 20.3319 104.284 20.1501 103.647 19.9501C103.447 19.8956 103.256 19.8365 103.075 19.7728C103.011 19.7546 102.956 19.741 102.911 19.7319L102.87 19.7046H102.843L104.276 15.4637C104.621 15.5819 105.026 15.7092 105.489 15.8456C106.062 16.0092 106.626 16.1592 107.18 16.2956C108.671 16.6592 109.83 16.841 110.657 16.841C111.248 16.841 111.634 16.6728 111.816 16.3365C111.88 16.2092 111.912 16.0728 111.912 15.9274C111.912 15.6637 111.798 15.3683 111.571 15.041C110.735 13.8501 109.963 12.7501 109.254 11.741C108.718 10.9774 108.218 10.2637 107.754 9.60012C107.027 8.57285 106.664 8.05466 106.664 8.04557L110.36 5.52285ZM125.543 21.2046H124.316C123.307 21.2046 122.403 21.0274 121.603 20.6728C120.994 20.4092 120.462 20.0501 120.008 19.5956C119.553 19.141 119.194 18.6092 118.931 18.0001C118.576 17.2001 118.399 16.2956 118.399 15.2865L118.403 1.54103H122.862L122.859 15.2865C122.858 15.841 122.963 16.2228 123.172 16.4319C123.372 16.6319 123.754 16.7319 124.317 16.7319H125.545L125.543 21.2046ZM135.065 21.2728C135.156 20.891 135.27 20.5228 135.406 20.1683C135.452 20.041 135.497 19.9228 135.543 19.8137L135.597 19.7046C135.607 19.6774 135.616 19.6592 135.625 19.6501C134.452 20.2501 133.225 20.6001 131.943 20.7001C132.07 21.4274 132.488 22.1637 133.197 22.9092C133.806 23.5546 134.406 24.0001 134.996 24.2456C134.887 23.8637 134.833 23.4501 134.833 23.0046C134.833 22.4774 134.911 21.9001 135.065 21.2728ZM131.726 16.1865C133.362 15.9592 134.494 15.5319 135.121 14.9046C135.34 14.6865 135.494 14.4546 135.585 14.2092C135.612 14.1183 135.631 14.0274 135.64 13.9365L135.653 13.8274V13.7456C135.654 13.4092 135.545 13.1228 135.326 12.8865C135.072 12.6228 134.713 12.491 134.249 12.491C133.522 12.491 132.913 12.991 132.422 13.991C132.249 14.3456 132.094 14.7546 131.958 15.2183C131.903 15.391 131.858 15.5728 131.821 15.7637C131.785 15.9001 131.753 16.041 131.726 16.1865ZM138.205 9.43648C139.413 10.4274 140.018 11.8637 140.017 13.7456C140.017 14.891 139.721 15.9319 139.13 16.8683C139.521 16.7774 139.88 16.7319 140.207 16.7319H142.757L142.756 21.2046H140.506C140.197 21.2046 139.92 21.3319 139.674 21.5865C139.447 21.8319 139.288 22.1546 139.197 22.5546C139.142 22.7728 139.115 22.991 139.115 23.2092C139.115 23.8728 139.378 24.4865 139.905 25.0501L138.486 28.691C137.959 28.7637 137.477 28.8001 137.041 28.8001C134.232 28.8001 131.859 27.7637 129.923 25.691C129.214 24.9274 128.619 24.0819 128.138 23.1546C127.738 22.4001 127.483 21.7365 127.374 21.1637C126.447 21.191 125.602 21.2046 124.838 21.2046L124.839 16.7319H125.944C126.38 16.7228 126.785 16.7092 127.157 16.691C127.367 14.6456 127.867 12.941 128.659 11.5774C129.304 10.4683 130.104 9.62285 131.059 9.04103C132.023 8.45012 133.087 8.15466 134.25 8.15466C135.85 8.15466 137.168 8.58194 138.205 9.43648ZM150.05 15.491C150.05 15.9274 150.155 16.2365 150.364 16.4183C150.6 16.6274 151.018 16.7319 151.618 16.7319H152.164L152.162 21.2046H151.617C151.026 21.2046 150.467 21.141 149.94 21.0137C149.522 20.9137 149.131 20.7728 148.767 20.591C148.349 20.391 148.035 20.191 147.826 19.991C147.617 20.191 147.281 20.391 146.817 20.591C145.899 21.0001 144.808 21.2046 143.544 21.2046H140.981L140.982 16.7319H143.859C144.514 16.7319 144.973 16.6228 145.236 16.4046C145.473 16.2137 145.591 15.9092 145.591 15.491L145.592 11.7819H150.051L150.05 15.491ZM144.012 5.49557L146.849 2.63194L149.739 5.52285L146.861 8.38648L144.012 5.49557ZM161.056 16.7319C161.52 16.7319 161.865 16.6365 162.093 16.4456C162.402 16.191 162.557 15.741 162.557 15.0956L162.558 11.7819H167.03L167.029 15.0956C167.029 15.6865 167.111 16.0865 167.275 16.2956C167.484 16.5865 167.911 16.7319 168.556 16.7319C169.02 16.7319 169.365 16.6365 169.593 16.4456C169.893 16.191 170.043 15.741 170.043 15.0956L170.044 11.7819H174.517L174.516 15.0956C174.516 15.6592 174.62 16.0592 174.829 16.2956C175.075 16.5865 175.525 16.7319 176.179 16.7319H177.925L177.923 21.2046H176.178C174.305 21.2046 173.001 20.791 172.265 19.9637C171.183 20.791 169.946 21.2046 168.555 21.2046C166.773 21.2046 165.514 20.791 164.778 19.9637C163.696 20.791 162.478 21.2046 161.123 21.2046C159.687 21.2046 158.428 20.791 157.346 19.9637C156.61 20.791 155.305 21.2046 153.433 21.2046H151.469L151.47 16.7319H153.434C154.088 16.7319 154.538 16.5865 154.784 16.2956C154.993 16.0592 155.098 15.6592 155.098 15.0956V11.7819H159.571L159.57 15.0956C159.57 15.741 159.725 16.191 160.034 16.4456C160.252 16.6365 160.593 16.7319 161.056 16.7319ZM164.523 6.13648L161.822 8.86376L159.123 6.16376L161.823 3.43648L164.523 6.13648ZM170.441 6.09557L167.767 8.79557L165 6.12285L167.728 3.39557L170.441 6.09557ZM167.169 2.57739L164.796 4.95012L162.451 2.60466L164.824 0.231934L167.169 2.57739ZM188.338 15.491C188.338 15.9274 188.442 16.2365 188.651 16.4183C188.888 16.6274 189.306 16.7319 189.906 16.7319H191.897L191.896 21.2046H189.905C189.314 21.2046 188.755 21.141 188.227 21.0137C187.809 20.9137 187.418 20.7728 187.055 20.591C186.637 20.391 186.323 20.191 186.114 19.991C185.905 20.191 185.569 20.391 185.105 20.591C184.187 21.0001 183.096 21.2046 181.832 21.2046H177.25L177.251 16.7319H182.147C182.801 16.7319 183.26 16.6228 183.524 16.4046C183.76 16.2137 183.879 15.9092 183.879 15.491L183.88 11.7819H188.339L188.338 15.491ZM186.548 29.0865L183.876 26.3865L186.522 23.6592L189.249 26.3865L186.548 29.0865ZM180.794 29.1001L178.122 26.4001L180.754 23.6728L183.481 26.4001L180.794 29.1001ZM203.063 14.2774C203.135 14.7137 203.172 15.1319 203.172 15.5319C203.171 16.7683 202.816 17.8774 202.107 18.8592C200.97 20.4228 199.12 21.2046 196.557 21.2046H191.225L191.226 16.7319H196.462C197.28 16.7319 197.858 16.6228 198.194 16.4046C198.54 16.1956 198.712 15.8637 198.713 15.4092C198.713 15.2728 198.694 15.1228 198.658 14.9592C198.567 14.4956 198.476 14.0228 198.386 13.541C198.349 13.3592 198.313 13.1637 198.277 12.9546L198.222 12.6956L198.181 12.4365C198.045 11.691 197.941 11.1592 197.868 10.841L202.137 9.54557C202.409 10.8274 202.718 12.4046 203.063 14.2774ZM194.427 28.7728L191.728 26.1274L194.429 23.3456L197.128 26.1274L194.427 28.7728ZM200.305 28.8274L197.578 26.1274L200.347 23.4274L203.019 26.1274L200.305 28.8274ZM197.427 31.9774L195.054 29.6046L197.401 27.2592L199.773 29.6319L197.427 31.9774ZM78.5421 62.1319C78.5414 64.9683 77.8273 67.1956 76.3996 68.8137C74.8082 70.6228 72.4807 71.5274 69.4171 71.5274H68.0671L68.0682 67.0546H69.4182C71.0909 67.0546 72.2819 66.6774 72.9912 65.9228C73.7096 65.1683 74.069 63.9046 74.0694 62.1319L74.0712 54.7819H78.5439L78.5421 62.1319ZM85.3018 64.2046H80.829L80.8338 44.541H85.3066L85.3018 64.2046ZM95.1444 48.5228L95.3898 48.8774C95.4443 48.9592 95.4943 49.0274 95.5398 49.0819C95.6034 49.1728 95.6624 49.2637 95.717 49.3546C95.8715 49.5728 96.035 49.8001 96.2077 50.0365C96.653 50.6819 97.1483 51.3956 97.6935 52.1774C98.4024 53.1774 99.1748 54.2728 100.011 55.4637C100.665 56.4092 101.038 57.3956 101.128 58.4228C101.146 58.6046 101.155 58.7865 101.155 58.9683C101.155 59.8228 100.96 60.6319 100.568 61.3956C100.086 62.3137 99.3954 63.0274 98.4953 63.5365C97.5861 64.0546 96.5678 64.3137 95.4406 64.3137C94.1315 64.3137 92.427 64.041 90.3271 63.4956C89.6999 63.3319 89.0681 63.1501 88.4318 62.9501C88.2318 62.8956 88.0409 62.8365 87.8591 62.7728C87.7955 62.7546 87.741 62.741 87.6955 62.7319L87.6546 62.7046H87.6273L89.0602 58.4637C89.4056 58.5819 89.8101 58.7092 90.2737 58.8456C90.8464 59.0092 91.41 59.1592 91.9645 59.2956C93.4553 59.6592 94.6144 59.841 95.4417 59.841C96.0326 59.841 96.419 59.6728 96.6009 59.3365C96.6645 59.2092 96.6964 59.0728 96.6964 58.9274C96.6965 58.6637 96.5829 58.3683 96.3557 58.041C95.5197 56.8501 94.7472 55.7501 94.0384 54.741C93.5022 53.9774 93.0024 53.2637 92.5389 52.6001C91.8119 51.5728 91.4484 51.0546 91.4484 51.0456L95.1444 48.5228ZM137.428 52.0683C138.664 53.3774 139.281 54.9956 139.281 56.9228C139.281 57.9592 139.09 58.8956 138.708 59.7319H140.33L140.329 64.2046H138.352C136.134 64.2046 134.202 63.9546 132.557 63.4546C131.002 63.9546 129.066 64.2046 126.747 64.2046H121.388C118.825 64.2046 117.184 64.141 116.466 64.0137C115.066 63.7774 113.998 63.1001 113.262 61.9819C112.798 61.2819 112.507 60.4819 112.389 59.5819C112.353 59.2546 112.335 58.9137 112.335 58.5592C112.335 58.1683 112.358 57.7637 112.404 57.3456C112.467 56.7819 112.636 55.9774 112.909 54.9319C112.991 54.5956 113.082 54.2546 113.182 53.9092C113.218 53.791 113.25 53.6819 113.277 53.5819C113.295 53.5001 113.309 53.4501 113.318 53.4319L117.613 54.6456C117.149 56.3001 116.84 57.6546 116.685 58.7092C116.676 58.7819 116.671 58.8546 116.671 58.9274C116.671 59.1001 116.703 59.2501 116.767 59.3774C116.876 59.6137 117.071 59.7319 117.353 59.7319H126.394C126.012 58.8956 125.822 57.9592 125.822 56.9228C125.822 54.9956 126.441 53.3774 127.678 52.0683C128.96 50.7137 130.587 50.0365 132.56 50.0365C134.533 50.0365 136.155 50.7137 137.428 52.0683ZM132.558 59.3501C133.467 59.1046 134.112 58.7365 134.494 58.2456C134.767 57.891 134.904 57.4501 134.904 56.9228C134.904 56.2865 134.722 55.7456 134.359 55.3001C133.931 54.7728 133.332 54.5092 132.559 54.5092C131.786 54.5092 131.186 54.7728 130.759 55.3001C130.395 55.7456 130.213 56.2865 130.213 56.9228C130.213 57.4501 130.353 57.891 130.635 58.2456C131.008 58.7365 131.649 59.1046 132.558 59.3501ZM129.752 45.741L132.589 42.8774L135.479 45.7683L132.601 48.6319L129.752 45.741ZM150.769 58.491C150.769 58.9274 150.873 59.2365 151.082 59.4183C151.319 59.6274 151.737 59.7319 152.337 59.7319H154.328L154.326 64.2046H152.336C151.745 64.2046 151.186 64.141 150.658 64.0137C150.24 63.9137 149.849 63.7728 149.486 63.591C149.068 63.391 148.754 63.191 148.545 62.991C148.336 63.191 147.999 63.391 147.536 63.591C146.617 64.0001 145.526 64.2046 144.263 64.2046H139.681L139.682 59.7319H144.578C145.232 59.7319 145.691 59.6228 145.955 59.4046C146.191 59.2137 146.31 58.9092 146.31 58.491L146.311 54.7819H150.77L150.769 58.491ZM148.979 72.0865L146.307 69.3865L148.953 66.6592L151.68 69.3865L148.979 72.0865ZM143.225 72.1001L140.552 69.4001L143.185 66.6728L145.912 69.4001L143.225 72.1001ZM161.511 59.3501C162.421 59.1046 163.066 58.7365 163.448 58.2456C163.721 57.891 163.857 57.4501 163.857 56.9228C163.858 56.2865 163.676 55.7456 163.312 55.3001C162.885 54.7728 162.285 54.5092 161.513 54.5092C160.74 54.5092 160.14 54.7728 159.712 55.3001C159.349 55.7456 159.167 56.2865 159.167 56.9228C159.166 57.4501 159.307 57.891 159.589 58.2456C159.962 58.7365 160.602 59.1046 161.511 59.3501ZM161.514 50.0365C163.486 50.0365 165.109 50.7137 166.381 52.0683C167.617 53.3774 168.235 54.9956 168.235 56.9228C168.234 57.9592 168.043 58.8956 167.661 59.7319H169.284L169.283 64.2046H167.306C165.087 64.2046 163.156 63.9546 161.51 63.4546C159.956 63.9546 158.019 64.2046 155.701 64.2046H153.724L153.725 59.7319H155.348C154.966 58.8956 154.775 57.9592 154.776 56.9228C154.776 54.9956 155.395 53.3774 156.631 52.0683C157.913 50.7137 159.541 50.0365 161.514 50.0365ZM158.583 45.8637L161.42 43.0001L164.31 45.891L161.432 48.7546L158.583 45.8637ZM176.472 51.4956C177.218 51.6046 179.072 52.0683 182.036 52.8865C183.072 53.1683 184.167 53.4728 185.322 53.8001C186.231 54.0637 186.931 54.2683 187.422 54.4137L188.116 58.3546L187.721 58.6546L187.325 58.9274C187.007 59.1637 186.761 59.3456 186.589 59.4728C187.052 59.591 187.707 59.6683 188.552 59.7046C188.852 59.7137 189.175 59.7228 189.52 59.7319H190.229L190.228 64.2046C187.437 64.2046 185.451 63.9274 184.269 63.3728C183.579 63.0546 183.011 62.6274 182.565 62.091C181.801 62.5092 181.006 62.8592 180.179 63.141C178.088 63.8501 174.247 64.2046 168.656 64.2046L168.657 59.7319C172.266 59.7319 174.875 59.6046 176.484 59.3501C178.43 59.041 180.166 58.4001 181.694 57.4274L180.698 57.1546L179.744 56.8819C178.962 56.6546 178.376 56.491 177.985 56.391C176.785 56.0637 176.03 55.9001 175.721 55.9001C175.476 55.9001 175.244 56.041 175.026 56.3228C174.798 56.5956 174.626 56.9683 174.507 57.441L170.185 56.3092C170.603 54.691 171.381 53.441 172.518 52.5592C173.481 51.8046 174.518 51.4274 175.627 51.4274C175.9 51.4274 176.181 51.4501 176.472 51.4956ZM172.86 46.8046L175.697 43.941L178.587 46.8319L175.709 49.6956L172.86 46.8046ZM201.382 57.2774C201.455 57.7137 201.491 58.1319 201.491 58.5319C201.491 59.7683 201.136 60.8774 200.427 61.8592C199.29 63.4228 197.44 64.2046 194.876 64.2046H189.544L189.545 59.7319H194.782C195.6 59.7319 196.177 59.6228 196.514 59.4046C196.859 59.1956 197.032 58.8637 197.032 58.4092C197.032 58.2728 197.014 58.1228 196.978 57.9592C196.887 57.4956 196.796 57.0228 196.705 56.541C196.669 56.3592 196.633 56.1637 196.596 55.9546L196.542 55.6956L196.501 55.4365C196.365 54.691 196.26 54.1592 196.188 53.841L200.456 52.5456C200.729 53.8274 201.037 55.4046 201.382 57.2774ZM198.575 50.4728L195.903 47.7728L198.549 45.0456L201.276 47.7728L198.575 50.4728ZM192.861 50.4865L190.189 47.7865L192.822 45.0592L195.548 47.7865L192.861 50.4865Z" fill="white"/>
<path d="M31.8983 231.903C25.5247 231.903 20.3311 226.694 20.3311 220.301C20.3311 213.909 25.5247 208.699 31.8983 208.699C38.2718 208.699 43.4655 213.909 43.4655 220.301C43.4655 226.694 38.2834 231.903 31.8983 231.903ZM31.8983 212.18C27.4333 212.18 23.8012 215.823 23.8012 220.301C23.8012 224.78 27.4333 228.423 31.8983 228.423C36.3632 228.423 39.9953 224.78 39.9953 220.301C39.9953 215.823 36.3632 212.18 31.8983 212.18Z" fill="#359D96"/>
<path d="M259.049 180.121C256.816 180.121 255 178.3 255 176.061C255 173.822 256.816 172 259.049 172C261.281 172 263.097 173.822 263.097 176.061C263.097 178.3 261.281 180.121 259.049 180.121ZM259.049 173.16C257.452 173.16 256.157 174.46 256.157 176.061C256.157 177.662 257.452 178.961 259.049 178.961C260.645 178.961 261.94 177.662 261.94 176.061C261.94 174.46 260.645 173.16 259.049 173.16Z" fill="#82E1DB"/>
<path d="M71.2963 274.726C68.6821 274.726 66.5537 272.591 66.5537 269.969C66.5537 267.347 68.6821 265.212 71.2963 265.212C73.9105 265.212 76.0388 267.347 76.0388 269.969C76.0388 272.591 73.9105 274.726 71.2963 274.726ZM71.2963 266.604C69.4455 266.604 67.9418 268.112 67.9418 269.969C67.9418 271.825 69.4455 273.333 71.2963 273.333C73.147 273.333 74.6508 271.825 74.6508 269.969C74.6508 268.112 73.147 266.604 71.2963 266.604Z" fill="#EA3F3F"/>
<path d="M238.292 216.46C241.167 216.46 243.497 214.123 243.497 211.239C243.497 208.356 241.167 206.019 238.292 206.019C235.417 206.019 233.087 208.356 233.087 211.239C233.087 214.123 235.417 216.46 238.292 216.46Z" fill="#FFAE1F"/>
<path d="M22.8181 156.943C25.054 156.943 26.8666 155.125 26.8666 152.882C26.8666 150.639 25.054 148.821 22.8181 148.821C20.5821 148.821 18.7695 150.639 18.7695 152.882C18.7695 155.125 20.5821 156.943 22.8181 156.943Z" fill="#FFAE1F"/>
<path d="M198.466 132.369C201.021 132.369 203.093 130.292 203.093 127.729C203.093 125.166 201.021 123.088 198.466 123.088C195.91 123.088 193.839 125.166 193.839 127.729C193.839 130.292 195.91 132.369 198.466 132.369Z" fill="#359D96"/>
<path d="M255.47 214.961C257.387 214.961 258.94 213.403 258.94 211.481C258.94 209.558 257.387 208 255.47 208C253.554 208 252 209.558 252 211.481C252 213.403 253.554 214.961 255.47 214.961Z" fill="#359D96"/>
<path d="M52.0138 200.705C54.8886 200.705 57.2191 198.368 57.2191 195.485C57.2191 192.601 54.8886 190.264 52.0138 190.264C49.1391 190.264 46.8086 192.601 46.8086 195.485C46.8086 198.368 49.1391 200.705 52.0138 200.705Z" fill="#E54242"/>
<path d="M167.639 103.481C168.598 103.481 169.374 102.701 169.374 101.74C169.374 100.779 168.598 100 167.639 100C166.681 100 165.904 100.779 165.904 101.74C165.904 102.701 166.681 103.481 167.639 103.481Z" fill="#E54242"/>
<path d="M67.2478 224.361C68.206 224.361 68.9828 223.582 68.9828 222.621C68.9828 221.66 68.206 220.881 67.2478 220.881C66.2895 220.881 65.5127 221.66 65.5127 222.621C65.5127 223.582 66.2895 224.361 67.2478 224.361Z" fill="#E54242"/>
<path d="M203.682 205.184C204.641 205.184 205.417 204.405 205.417 203.443C205.417 202.482 204.641 201.703 203.682 201.703C202.724 201.703 201.947 202.482 201.947 203.443C201.947 204.405 202.724 205.184 203.682 205.184Z" fill="#FFAE1F"/>
<path d="M70.6247 113.853C71.583 113.853 72.3598 113.074 72.3598 112.112C72.3598 111.151 71.583 110.372 70.6247 110.372C69.6665 110.372 68.8896 111.151 68.8896 112.112C68.8896 113.074 69.6665 113.853 70.6247 113.853Z" fill="#FFC91F"/>
<path d="M134.661 127.079C136.258 127.079 137.553 125.78 137.553 124.178C137.553 122.576 136.258 121.278 134.661 121.278C133.064 121.278 131.77 122.576 131.77 124.178C131.77 125.78 133.064 127.079 134.661 127.079Z" fill="#FFDC73"/>
<path d="M224.03 192.259C225.627 192.259 226.921 190.96 226.921 189.359C226.921 187.757 225.627 186.458 224.03 186.458C222.432 186.458 221.138 187.757 221.138 189.359C221.138 190.96 222.432 192.259 224.03 192.259Z" fill="#E54242"/>
<path d="M243.506 260.357L231.696 247.966L219.654 254.533L218 251.482L232.366 243.627L243.656 255.473L262.407 238L264.766 240.552L243.506 260.357Z" fill="#82E1DB"/>
<path d="M228.538 159.221L227 142.038L244.05 142.015L238.81 123.486L258.393 122.361L253.061 108.682L257.375 107L265.021 126.619L244.837 127.791L250.169 146.656L232.066 146.679L233.142 158.803L228.538 159.221Z" fill="#EF4B4B"/>
<path d="M52.4298 160.377L49.1215 159.298L54.9283 141.315L39.0696 134.307L45.7902 117.461L26.8662 112.785L27.6875 109.397L50.4865 115.036L43.5346 132.474L59.1966 139.4L52.4298 160.377Z" fill="#FFAE1F"/>
<path d="M25.3091 159.515L15.7314 139.282L3.81718 156.719L0 154.097L16.4486 130L26.5468 151.301L37.1655 139.722L46.8472 155.849L42.8797 158.239L36.3904 147.426L25.3091 159.515Z" fill="#82E1DB"/>
<path d="M42.4818 253.924L39.2314 252.717C39.2777 252.601 43.8815 240.663 57.9703 242.183L57.6002 245.64C46.1486 244.41 42.5165 253.831 42.4818 253.924Z" fill="#FFAE1F"/>
<path d="M202.48 277L199.264 275.7C200.721 272.069 200.86 268.925 199.657 266.349C197.853 262.474 193.665 261.058 193.619 261.047L194.695 257.74C194.926 257.81 200.374 259.643 202.803 264.887C204.423 268.356 204.319 272.44 202.48 277Z" fill="#CC3232"/>
<path d="M82.111 126.882L80.4453 123.83C83.8576 121.951 85.9397 119.607 86.6453 116.869C87.698 112.75 85.3382 108.933 85.3151 108.899L88.2416 107.019C88.3689 107.228 91.4342 112.101 90.023 117.693C89.0629 121.429 86.414 124.515 82.111 126.882Z" fill="#CC3232"/>
<path d="M227.473 219.821C212.678 217.013 209.139 203.427 209 202.847L212.366 202.012L210.677 202.429L212.366 202C212.493 202.487 215.547 214.02 228.121 216.398L227.473 219.821Z" fill="#FFDC73"/>
<path d="M204.215 147.232C202.272 148.554 224.319 145.526 234.105 119.201C234.915 117.032 224.863 109.873 222.411 112.809C219.958 115.744 227.026 131.743 204.215 147.232Z" fill="#FFAE1F"/>
<path d="M76.0498 176.643C76.0498 176.643 76.1308 245.28 77.6923 247.821C79.2539 250.362 135.366 276.164 137.402 275.55L137.055 202.121L76.0498 176.643Z" fill="#E54242"/>
<path d="M97.3223 258.147C97.3223 258.147 102.261 265.607 113.181 265.607V196.343L97.3223 189.092V258.147Z" fill="#359D96"/>
<path opacity="0.2" d="M113.193 207.91V196.343L97.334 189.092V203.374C102.562 205.091 107.837 206.646 113.193 207.91Z" fill="#13514D"/>
<path d="M136.489 202.411L137.403 275.561C137.403 275.561 191.873 249.062 192.394 246.266C192.914 243.458 194.348 173.916 194.348 173.916L136.489 202.411Z" fill="#C13838"/>
<path d="M162.122 263.263C162.122 263.263 171.699 262.149 176.477 255.849L178.131 187.2L161.879 192.166L162.122 263.263Z" fill="#359D96"/>
<path opacity="0.17" d="M177.657 206.982L178.131 187.2L161.879 192.166L161.948 212.678C167.235 210.903 172.486 209.035 177.657 206.982Z" fill="#359D96"/>
<path d="M70.625 166.99C70.625 166.99 70.1623 182.548 70.7638 184.637C71.3653 186.725 138.582 214.524 140.051 215.092C140.051 215.092 139.623 196.227 139.6 195.485C139.577 194.591 70.625 166.99 70.625 166.99Z" fill="#EF4B4B"/>
<path d="M139.601 195.484L140.052 215.091C140.052 215.091 197.541 191.667 198.385 188.848C198.802 187.444 200.097 169.751 197.946 169.809L139.601 195.484Z" fill="#D33C3C"/>
<path d="M139.6 195.485L197.945 169.809C197.945 169.809 136.697 146.13 133.77 146.199C130.89 146.269 70.625 167.002 70.625 167.002L139.6 195.485Z" fill="#E54242"/>
<path d="M99.2891 157.233L166.772 183.534L168.045 203.397C168.045 203.397 176.963 204.348 181.486 197.538L180.341 177.559L112.302 152.882C112.314 152.882 102.794 152.951 99.2891 157.233Z" fill="#3FA8A1"/>
<path d="M155.239 153.59C155.239 153.59 164.805 153.462 169.524 158.95L110.659 183.535L110.393 202.701C110.393 202.701 97.3335 201.263 93.4932 195.496L93.9906 176.655L155.239 153.59Z" fill="#3FA8A1"/>
<path d="M178.999 131.163C154.557 105.012 132.348 161.514 137.704 166.99C144.991 174.462 204.851 158.834 178.999 131.163ZM139.335 165.586C138.375 164.287 158.328 115.674 173.793 136.059C191.827 159.843 140.839 167.628 139.335 165.586Z" fill="#82E1DB"/>
<path d="M181.624 134.342C181.567 134.864 181.509 135.386 181.439 135.908C180.826 140.34 179.207 143.948 177.449 147.696C177.113 149.424 176.338 151.014 175.251 152.476C174.985 153.021 174.638 153.404 174.245 153.682C166.309 162.337 146.807 165.969 140.977 165.888C139.751 166.073 138.502 166.166 137.229 166.212C137.345 166.526 137.507 166.793 137.692 166.99C144.702 174.16 200.248 160.005 181.624 134.342Z" fill="#57C4BC"/>
<path d="M137.877 165.099C141.601 163.452 141.786 131.163 124.563 139.215C106.333 147.731 132.799 167.338 137.877 165.099ZM126.159 142.661C137.807 135.665 138.073 163.626 137.345 164.078C136.199 164.786 112.568 150.817 126.159 142.661Z" fill="#82E1DB"/>
<path opacity="0.18" d="M122.631 140.259C122.55 140.526 122.481 140.792 122.412 141.071C121.845 143.38 121.926 145.48 122.053 147.684C121.879 148.601 121.949 149.54 122.192 150.48C122.215 150.805 122.307 151.06 122.446 151.269C124.656 157.116 133.562 162.778 136.454 163.892C137.021 164.229 137.622 164.519 138.235 164.797C138.108 164.925 137.993 165.029 137.854 165.087C132.996 167.245 108.369 149.227 122.631 140.259Z" fill="#359D96"/>
<path d="M138.074 166.886C143.43 161.409 121.221 104.908 96.7791 131.059C70.9148 158.718 130.787 174.346 138.074 166.886ZM101.984 135.943C117.438 115.558 137.403 164.171 136.443 165.47C134.939 167.512 83.9511 159.727 101.984 135.943Z" fill="#82E1DB"/>
<path d="M94.153 134.237C94.2109 134.759 94.2687 135.281 94.3381 135.804C94.9512 140.236 96.5706 143.844 98.3288 147.591C98.6643 149.32 99.4392 150.909 100.527 152.371C100.793 152.917 101.14 153.299 101.533 153.578C109.468 162.233 128.97 165.864 134.8 165.783C136.026 165.969 137.276 166.062 138.548 166.108C138.421 166.421 138.27 166.688 138.085 166.885C131.064 174.055 75.5183 159.901 94.153 134.237Z" fill="#57C4BC"/>
<path d="M153.204 150.829C142.747 142.185 137.114 164.519 139.392 166.317C142.504 168.777 164.274 159.983 153.204 150.829ZM139.948 165.714C139.52 165.273 144.679 146.014 151.48 152.929C159.415 160.992 140.607 166.398 139.948 165.714Z" fill="#82E1DB"/>
<path opacity="0.18" d="M154.337 151.896C154.337 152.093 154.349 152.29 154.337 152.499C154.314 154.193 153.886 155.631 153.412 157.128C153.366 157.789 153.158 158.427 152.811 159.031C152.741 159.251 152.626 159.414 152.487 159.53C149.919 163.173 142.759 165.493 140.561 165.737C140.11 165.864 139.647 165.957 139.173 166.038C139.231 166.154 139.3 166.247 139.381 166.305C142.377 168.672 162.596 160.643 154.337 151.896Z" fill="#359D96"/>
<path opacity="0.48" d="M104.066 178.302C108.415 176.19 112.915 174.508 117.565 173.208C119.716 172.617 118.802 169.252 116.639 169.855C111.688 171.224 106.923 173.057 102.307 175.297C100.295 176.271 102.053 179.276 104.066 178.302Z" fill="#62CBC4"/>
<path opacity="0.48" d="M97.4847 182.502C97.2996 184.973 97.1261 187.445 96.941 189.916C96.7791 192.155 100.249 192.143 100.411 189.916C100.596 187.445 100.77 184.973 100.955 182.502C101.117 180.263 97.6466 180.275 97.4847 182.502Z" fill="#62CBC4"/>
<path opacity="0.7" d="M155.841 174.589C161.046 176.341 166.251 178.081 171.445 179.833C173.562 180.541 174.476 177.188 172.37 176.48C167.165 174.728 161.96 172.988 156.766 171.236C154.65 170.517 153.736 173.881 155.841 174.589Z" fill="#54BDB6"/>
<path opacity="0.7" d="M174.626 182.652C174.684 185.124 174.637 187.583 174.499 190.055C174.371 192.294 177.841 192.282 177.969 190.055C178.107 187.595 178.154 185.124 178.096 182.652C178.05 180.413 174.58 180.402 174.626 182.652Z" fill="#54BDB6"/>
<path opacity="0.45" d="M100.48 239.375C100.504 242.298 100.538 245.222 100.561 248.146C100.585 250.385 104.055 250.385 104.032 248.146C104.008 245.222 103.974 242.298 103.951 239.375C103.939 237.136 100.469 237.136 100.48 239.375Z" fill="#54BDB6"/>
<path opacity="0.45" d="M100.503 219.048C100.549 223.828 100.596 228.62 100.63 233.4C100.653 235.639 104.124 235.639 104.1 233.4C104.054 228.62 104.008 223.828 103.973 219.048C103.95 216.809 100.48 216.797 100.503 219.048Z" fill="#54BDB6"/>
<path opacity="0.51" d="M171.63 212.748C171.468 219.639 171.398 226.543 171.445 233.446C171.456 235.685 174.926 235.685 174.915 233.446C174.869 226.543 174.938 219.651 175.1 212.748C175.158 210.509 171.688 210.509 171.63 212.748Z" fill="#72DBD4"/>
<path opacity="0.51" d="M171.537 240.013C171.294 243.053 171.364 246.081 171.745 249.109C172.023 251.302 175.493 251.325 175.216 249.109C174.834 246.081 174.764 243.064 175.007 240.013C175.181 237.785 171.711 237.797 171.537 240.013Z" fill="#72DBD4"/>
<path d="M83.0021 168.974C87.5248 167.605 92.0129 166.097 96.4432 164.461C98.5253 163.695 97.623 160.331 95.5178 161.108C91.076 162.744 86.5995 164.24 82.0767 165.621C79.9483 166.259 80.8506 169.624 83.0021 168.974Z" fill="#EF4B4B"/>
<path d="M79.0919 195.995C78.8259 204.267 78.8143 212.528 79.0341 220.8C79.0919 223.04 82.5621 223.04 82.5043 220.8C82.2845 212.528 82.296 204.267 82.5621 195.995C82.6315 193.744 79.1613 193.756 79.0919 195.995Z" fill="#EF4B4B"/>
<path d="M79.2662 226.59C79.1737 229.397 79.1621 232.193 79.2199 235.001C79.2662 237.24 82.7364 237.24 82.6901 235.001C82.6322 232.193 82.6554 229.397 82.7364 226.59C82.8058 224.35 79.3356 224.35 79.2662 226.59Z" fill="#EF4B4B"/>
<path opacity="0.51" d="M195.57 289.69C195.57 293.39 169.7 296.38 137.78 296.38C105.86 296.38 80 293.39 80 289.69C80 286 105.87 283 137.79 283C169.71 283 195.57 286 195.57 289.69Z" fill="#E3941B"/>
</svg>
