<svg width="230" height="277" viewBox="0 0 230 277" fill="none" xmlns="http://www.w3.org/2000/svg">
<g clip-path="url(#clip0_1539_11505)">
<path d="M37.1177 226.015C37.8576 227.852 35.9809 230.262 36.1087 232.133C36.2432 234.071 38.4092 236.212 37.9451 238.056C37.4742 239.92 34.5481 240.782 33.5256 242.41C32.5166 244.026 33.0279 247.041 31.5345 248.286C30.095 249.491 27.2361 248.468 25.3997 249.208C23.5634 249.948 22.2113 252.668 20.3345 252.795C18.3972 252.93 16.6752 250.399 14.8321 249.935C12.9688 249.464 10.2579 250.877 8.63004 249.854C7.01563 248.845 7.10307 245.803 5.8519 244.308C4.64782 242.868 1.62752 242.431 0.887585 240.593C0.147645 238.756 2.0244 236.346 1.89659 234.475C1.76206 232.537 -0.403946 230.397 0.0601981 228.552C0.531068 226.688 3.45719 225.827 4.47965 224.198C5.48866 222.583 4.97743 219.567 6.47076 218.322C7.91028 217.117 10.7691 218.14 12.6055 217.4C14.4419 216.66 15.794 213.941 17.6708 213.813C19.608 213.678 21.3301 216.209 23.1732 216.673C25.0365 217.144 27.7474 215.731 29.3752 216.754C30.9897 217.764 30.9022 220.806 32.1534 222.3C33.3575 223.74 36.3778 224.178 37.1177 226.015Z" fill="#B2D6FF"/>
<path d="M21.7339 249.42C30.6195 247.909 36.5983 239.477 35.0877 230.586C33.5772 221.695 25.1494 215.713 16.2637 217.225C7.37806 218.736 1.39933 227.169 2.90987 236.059C4.42041 244.95 12.8482 250.932 21.7339 249.42Z" fill="white"/>
<path d="M12.9952 218.369C21.3229 215.018 30.7807 219.022 34.1844 227.321C34.1709 227.287 34.1575 227.254 34.144 227.213C30.7807 218.847 21.2691 214.796 12.9078 218.161C4.54646 221.526 0.496975 231.043 3.86034 239.409C3.87379 239.442 3.88724 239.476 3.90742 239.51C0.618056 231.164 4.66754 221.721 12.9952 218.369Z" fill="white"/>
<path d="M16.393 221.217C16.9648 222.684 16.2719 224.326 14.8459 224.885C13.4198 225.443 11.7986 224.703 11.2269 223.229C10.6551 221.762 11.348 220.12 12.774 219.561C14.2001 219.002 15.8212 219.749 16.393 221.217Z" fill="white"/>
<path d="M16.3662 221.136C16.9245 222.563 16.2182 224.171 14.7922 224.723C13.3661 225.282 11.7584 224.575 11.2068 223.148C10.6485 221.721 11.3548 220.113 12.7809 219.561C14.2069 219.009 15.8079 219.716 16.3662 221.136Z" fill="#8BBAFF"/>
<path d="M13.7829 224.272C14.9568 224.272 15.9085 223.32 15.9085 222.145C15.9085 220.971 14.9568 220.019 13.7829 220.019C12.6089 220.019 11.6572 220.971 11.6572 222.145C11.6572 223.32 12.6089 224.272 13.7829 224.272Z" fill="#359D96"/>
<path d="M52.3944 205.985C50.6387 201.24 46.7439 197.767 42.3177 195.526C38.6517 193.675 34.3735 192.221 30.2164 192.868C27.4719 193.292 24.8955 194.752 23.5906 197.283C22.151 200.076 22.299 204.377 26.1938 204.888C28.5481 205.198 30.5258 203.354 31.333 201.287C32.2008 199.073 31.7837 196.63 30.4182 194.705C27.5997 190.714 21.8685 189.549 17.5432 191.521C11.5497 194.247 8.97339 200.264 9.07429 206.584C9.12138 209.7 9.75369 212.864 10.8569 215.771C11.6103 217.75 12.6193 220.133 14.4019 221.425C15.2292 222.024 14.3077 223.316 13.4803 222.717C11.5094 221.29 10.3255 218.78 9.47117 216.579C8.22673 213.355 7.54733 209.902 7.49352 206.45C7.37916 198.784 11.5228 190.788 19.6151 189.166C24.465 188.19 30.1827 190.525 32.4429 195.035C34.4542 199.046 32.9407 204.854 28.3329 206.275C26.3821 206.874 24.1758 206.295 22.7094 204.895C21.3438 203.589 21.0075 201.839 21.1824 200.022C21.4784 196.906 23.3013 194.187 26.0054 192.645C30.2366 190.236 35.5372 191.064 39.8692 192.719C45.8493 195.001 51.5334 199.12 53.8204 205.319C54.177 206.268 52.7442 206.941 52.3944 205.985Z" fill="#D5F1FF"/>
<path d="M27.3848 191.986L28.9992 193.13L27.5597 193.648L27.3848 191.986Z" fill="#ABD3FF"/>
<path d="M30.8882 192.787L29.3545 191.407L33.0609 192.74L30.8882 192.787Z" fill="#ABD3FF"/>
<path d="M138.523 116.188L26.4692 102.612C12.787 100.957 3.04003 88.512 4.6948 74.829L11.0919 21.9681C12.7534 8.27843 25.1844 -1.47397 38.8598 0.181718L151.674 13.8512C159.645 14.8137 166.667 19.5654 170.535 26.6054L185.186 53.2647C190.137 62.2767 189.061 73.4089 182.469 81.2969L160.661 107.411C155.252 113.899 146.918 117.204 138.523 116.188Z" fill="#EEF9FF"/>
<path d="M50.7795 105.554L162.544 17.8828C159.329 15.7291 155.622 14.3224 151.674 13.8446L86.2563 5.92285L5.35402 69.3841L4.6948 74.8291C3.04003 88.5121 12.787 100.957 26.4692 102.612L50.7795 105.554Z" fill="white"/>
<path d="M178.122 40.4028L170.535 26.5987C170.232 26.0468 169.902 25.5084 169.559 24.9834L64.7031 107.243L89.148 110.204L178.122 40.4028Z" fill="white"/>
<path d="M186.868 57.0406C186.418 55.7483 185.866 54.483 185.193 53.258L180.236 44.2393L95.21 110.938L115.087 113.347L186.868 57.0406Z" fill="white"/>
<path d="M38.7523 1.0836L151.566 14.7531C159.537 15.7156 166.56 20.4673 170.428 27.5073L185.079 54.1666C187.527 58.6221 188.496 63.5959 188.059 68.4418C188.711 63.3132 187.789 57.9962 185.186 53.2647L170.535 26.6054C166.668 19.5654 159.645 14.8204 151.674 13.8512L38.8599 0.181718C25.1845 -1.47397 12.7535 8.27843 11.092 21.9681L10.9844 22.87C12.6391 9.18031 25.0769 -0.572091 38.7523 1.0836Z" fill="#F8FFFF"/>
<path d="M179.125 66.3821C178.782 69.2358 176.253 71.2819 173.481 70.9454C170.71 70.6088 168.746 68.0244 169.089 65.1639C169.432 62.3102 171.961 60.2642 174.732 60.6007C177.511 60.9439 179.475 63.5284 179.125 66.3821Z" fill="white"/>
<path d="M179.146 66.2344C178.81 69.0073 176.294 70.9793 173.522 70.6428C170.751 70.3063 168.78 67.7891 169.116 65.0161C169.453 62.2432 171.969 60.2712 174.74 60.6077C177.511 60.9442 179.482 63.4614 179.146 66.2344Z" fill="#8BBAFF"/>
<path d="M177.975 66.0929C177.72 68.2197 175.789 69.734 173.664 69.4783C171.538 69.2225 170.024 67.2909 170.28 65.1641C170.536 63.0372 172.466 61.5229 174.592 61.7787C176.724 62.0344 178.238 63.966 177.975 66.0929Z" fill="#359D96"/>
<path d="M174.383 67.2908C184.076 71.9281 190.668 80.8526 194.536 90.6454C197.738 98.7623 199.978 108.104 197.812 116.78C196.386 122.507 192.787 127.683 187.19 129.951C180.995 132.462 171.934 131.304 171.618 122.972C171.423 117.931 175.701 114.101 180.228 112.789C185.085 111.382 190.163 112.741 193.971 115.999C201.861 122.75 203.213 135.093 198.202 143.876C191.267 156.032 178.049 160.326 164.703 158.885C158.124 158.172 151.559 156.234 145.619 153.326C141.576 151.347 136.733 148.743 134.359 144.731C133.255 142.867 130.35 144.563 131.453 146.427C134.09 150.876 139.162 153.871 143.662 156.099C150.24 159.363 157.404 161.47 164.703 162.251C180.894 163.987 198.599 156.752 203.61 139.939C206.61 129.864 202.776 117.305 193.688 111.644C185.589 106.603 173.024 108.676 169.116 118.166C167.468 122.178 168.268 126.963 170.945 130.342C173.434 133.485 177.08 134.541 180.955 134.528C187.594 134.508 193.702 131.169 197.489 125.745C203.402 117.264 202.682 105.87 200.025 96.3797C196.366 83.2823 188.744 70.4474 176.084 64.39C174.14 63.4544 172.432 66.3553 174.383 67.2908Z" fill="#D5F1FF"/>
<path d="M199.144 122.958L197.025 119.311L195.659 122.258L199.144 122.958Z" fill="#ABD3FF"/>
<path d="M198.129 115.373L200.752 118.9L198.647 110.776L198.129 115.373Z" fill="#ABD3FF"/>
<path opacity="0.51" d="M137.581 148.413L207.707 106.287L227.114 139.758L138.314 162.379L98.9561 170.233L112.181 155.19L137.581 148.413Z" fill="url(#paint0_radial_1539_11505)"/>
<path d="M138.314 162.375L44.7363 178.879L57.9717 254.003L151.549 237.498L138.314 162.375Z" fill="#FFBF5E"/>
<path d="M149.689 226.951L130.275 241.253L151.545 237.497L149.689 226.951Z" fill="#FDDD15"/>
<path d="M69.9912 251.88L99.8915 246.61L147.032 211.881L144.422 197.047L69.9912 251.88Z" fill="#FDDD15"/>
<path d="M48.4854 200.163L51.0953 214.997L117.549 166.04L87.6483 171.31L48.4854 200.163Z" fill="#FDDD15"/>
<path d="M53.752 230.067L56.3686 244.894L141.764 181.978L139.154 167.144L53.752 230.067Z" fill="#FDDD15"/>
<path d="M138.315 162.374L44.7373 178.879L44.8938 179.767L138.471 163.262L138.315 162.374Z" fill="#FDF470"/>
<path d="M108.404 167.65L74.6523 173.603L87.8877 248.726L121.639 242.773L108.404 167.65Z" fill="#D5F1FF"/>
<path d="M108.405 167.65L74.6533 173.603L74.8098 174.491L108.561 168.538L108.405 167.65Z" fill="#FAFFFF"/>
<path d="M79.7043 158.098C79.7043 158.098 100.779 121.552 84.2852 100.163L76.832 103.407C76.832 103.4 90.9043 125.355 79.7043 158.098Z" fill="#A1D3FF"/>
<path d="M79.7045 158.098C79.7045 158.098 61.2127 130.275 73.6774 100.748L84.2854 100.163C84.2854 100.156 70.3073 120.414 79.7045 158.098Z" fill="#D5F1FF"/>
<path d="M79.0381 156.974C79.0381 156.974 115.093 135.087 110.916 108.394L102.824 107.647C102.824 107.64 104.606 133.66 79.0381 156.974Z" fill="#A1D3FF"/>
<path d="M79.0386 156.974C79.0386 156.974 76.2134 123.685 101.338 103.797L110.917 108.387C110.923 108.387 88.9202 119.418 79.0386 156.974Z" fill="#D5F1FF"/>
<path d="M77.3569 159.491C77.3569 159.491 35.2006 160.488 24.3369 135.746L30.7542 130.752C30.7542 130.752 43.2659 153.636 77.3569 159.491Z" fill="#A1D3FF"/>
<path d="M77.3569 159.492C77.3569 159.492 61.8115 129.925 29.9335 126.714L24.3369 135.747C24.3369 135.747 48.8087 133.176 77.3569 159.492Z" fill="#D5F1FF"/>
<path d="M76.6908 158.368C76.6908 158.368 40.2118 179.535 18.7939 163.086L22.016 155.622C22.016 155.615 43.9922 169.648 76.6908 158.368Z" fill="#A1D3FF"/>
<path d="M76.6909 158.368C76.6909 158.368 48.8423 139.933 19.3591 152.472L18.8008 163.086C18.7941 163.079 39.0079 149.046 76.6909 158.368Z" fill="#D5F1FF"/>
<path d="M93.5681 146.986C95.6601 150.513 94.4963 155.069 90.9715 157.163C87.4467 159.256 82.8928 158.091 80.8008 154.565C78.7087 151.038 79.8725 146.481 83.3973 144.388C86.9153 142.295 91.4693 143.453 93.5681 146.986Z" fill="#B1D5FF"/>
<path d="M72.4323 160.931C74.5243 164.458 73.3606 169.015 69.8358 171.108C66.311 173.201 61.757 172.037 59.665 168.51C57.573 164.983 58.7367 160.427 62.2615 158.334C65.7863 156.24 70.3403 157.405 72.4323 160.931Z" fill="#B1D5FF"/>
<path d="M85.2376 167.285C90.4853 162.758 91.0717 154.832 86.5473 149.581C82.0229 144.33 74.1011 143.744 68.8534 148.271C63.6057 152.798 63.0193 160.724 67.5437 165.974C72.068 171.225 79.9899 171.812 85.2376 167.285Z" fill="#85BCFF"/>
<path d="M85.8052 152.566C88.6775 157.412 87.0833 163.664 82.2401 166.538C77.3968 169.412 71.1477 167.817 68.2754 162.971C65.4031 158.125 66.9973 151.873 71.8406 148.999C76.6838 146.125 82.9329 147.72 85.8052 152.566Z" fill="#A1D3FF"/>
<path opacity="0.31" d="M133.478 163.227L44.7393 178.882L48.7618 201.711L133.478 163.227Z" fill="#9FAFD2"/>
<path d="M124.278 125.898L30.0918 181.64L43.3928 204.139L137.579 148.397L124.278 125.898Z" fill="#FCAF39"/>
<path d="M124.282 125.899L30.0957 181.641L30.5854 182.469L124.772 126.728L124.282 125.899Z" fill="#FDF470"/>
<path d="M96.0832 142.585L58.2939 164.949L71.595 187.449L109.384 165.084L96.0832 142.585Z" fill="#D5F1FF"/>
<path d="M137.353 154.046L138.389 155.937L140.279 156.974L138.389 158.003L137.353 159.895L136.324 158.003L134.434 156.974L136.324 155.937L137.353 154.046Z" fill="#D5F1FF"/>
<path d="M146.845 166.908L147.215 167.595L147.901 167.965L147.215 168.342L146.845 169.022L146.468 168.342L145.789 167.965L146.468 167.595L146.845 166.908Z" fill="#D5F1FF"/>
<path d="M175.695 149.16L176.071 149.846L176.751 150.216L176.071 150.593L175.695 151.273L175.325 150.593L174.639 150.216L175.325 149.846L175.695 149.16Z" fill="#D5F1FF"/>
<path d="M192.296 136.688L192.666 137.375L193.352 137.745L192.666 138.122L192.296 138.802L191.92 138.122L191.24 137.745L191.92 137.375L192.296 136.688Z" fill="#D5F1FF"/>
<path d="M164.771 149.16L165.148 149.846L165.827 150.216L165.148 150.593L164.771 151.273L164.401 150.593L163.715 150.216L164.401 149.846L164.771 149.16Z" fill="#D5F1FF"/>
<path d="M157.049 163.704L158.556 166.457L161.314 167.964L158.556 169.472L157.049 172.225L155.542 169.472L152.791 167.964L155.542 166.457L157.049 163.704Z" fill="#D5F1FF"/>
<path d="M199.441 186.473L200.947 189.226L203.699 190.734L200.947 192.241L199.441 194.994L197.934 192.241L195.176 190.734L197.934 189.226L199.441 186.473Z" fill="#D5F1FF"/>
<path d="M213.722 107.976L216.143 112.411L220.576 114.841L216.143 117.264L213.722 121.699L211.293 117.264L206.86 114.841L211.293 112.411L213.722 107.976Z" fill="#D5F1FF"/>
<path d="M217.798 125.227L218.847 127.138L220.764 128.188L218.847 129.238L217.798 131.149L216.755 129.238L214.838 128.188L216.755 127.138L217.798 125.227Z" fill="#D5F1FF"/>
<path d="M192.25 173.78L193.273 175.644L195.136 176.667L193.273 177.683L192.25 179.548L191.234 177.683L189.371 176.667L191.234 175.644L192.25 173.78Z" fill="#D5F1FF"/>
<path d="M227.114 205.305L228.137 207.17L230 208.186L228.137 209.209L227.114 211.073L226.099 209.209L224.235 208.186L226.099 207.17L227.114 205.305Z" fill="#D5F1FF"/>
<path d="M180.169 169.513L181.185 171.377L183.048 172.4L181.185 173.416L180.169 175.281L179.147 173.416L177.283 172.4L179.147 171.377L180.169 169.513Z" fill="#D5F1FF"/>
<path d="M172.95 164.532L173.973 166.397L175.836 167.42L173.973 168.436L172.95 170.3L171.935 168.436L170.071 167.42L171.935 166.397L172.95 164.532Z" fill="#D5F1FF"/>
<path d="M159.02 150.216L159.719 151.488L160.991 152.188L159.719 152.888L159.02 154.16L158.327 152.888L157.049 152.188L158.327 151.488L159.02 150.216Z" fill="#D5F1FF"/>
<path d="M191.24 159.35L191.933 160.622L193.211 161.322L191.933 162.015L191.24 163.294L190.541 162.015L189.27 161.322L190.541 160.622L191.24 159.35Z" fill="#D5F1FF"/>
<path d="M151.735 145.047L152.427 146.319L153.706 147.019L152.427 147.713L151.735 148.991L151.035 147.713L149.764 147.019L151.035 146.319L151.735 145.047Z" fill="#D5F1FF"/>
<path d="M159.02 134.864L160.042 136.729L161.905 137.745L160.042 138.768L159.02 140.632L158.004 138.768L156.141 137.745L158.004 136.729L159.02 134.864Z" fill="#D5F1FF"/>
<path d="M160.587 171.781L162.989 176.169L167.374 178.572L162.989 180.968L160.587 185.356L158.192 180.968L153.807 178.572L158.192 176.169L160.587 171.781Z" fill="#D5F1FF"/>
<path d="M124.075 161.026L123.323 161.778L124.075 162.53L124.826 161.778L124.075 161.026Z" fill="#D5F1FF"/>
<path d="M153.363 150.503L152.616 151.25L153.363 151.998L154.11 151.25L153.363 150.503Z" fill="#D5F1FF"/>
<path d="M172.042 181.495L171.29 182.247L172.042 182.999L172.793 182.247L172.042 181.495Z" fill="#D5F1FF"/>
<path d="M212.053 144.065L211.307 144.812L212.053 145.559L212.8 144.812L212.053 144.065Z" fill="#D5F1FF"/>
<path d="M147.035 138.056L146.283 138.808L147.035 139.56L147.786 138.808L147.035 138.056Z" fill="#D5F1FF"/>
<path d="M164.848 111.288L164.102 112.036L164.848 112.783L165.595 112.036L164.848 111.288Z" fill="#D5F1FF"/>
<path d="M183.045 97.5142L182.294 98.2661L183.045 99.018L183.797 98.2661L183.045 97.5142Z" fill="#D5F1FF"/>
<path d="M163.711 130.001L162.96 130.752L163.711 131.504L164.463 130.752L163.711 130.001Z" fill="#D5F1FF"/>
<path d="M167.907 139.895L167.16 140.642L167.907 141.389L168.654 140.642L167.907 139.895Z" fill="#D5F1FF"/>
<path d="M130.271 158.76L129.524 159.507L130.271 160.254L131.018 159.507L130.271 158.76Z" fill="#D5F1FF"/>
<path d="M195.655 158.224L194.908 158.971L195.655 159.718L196.402 158.971L195.655 158.224Z" fill="#D5F1FF"/>
<path d="M216.314 166.43L215.567 167.177L216.314 167.924L217.061 167.177L216.314 166.43Z" fill="#D5F1FF"/>
<path d="M167.873 169.014L167.126 169.761L167.873 170.508L168.619 169.761L167.873 169.014Z" fill="#D5F1FF"/>
<path d="M42.8652 41.5638C40.6603 41.2907 39.2557 41.0611 38.6516 40.8751C37.4727 40.5227 36.6263 39.8263 36.1123 38.7862C35.7883 38.1347 35.6235 37.4157 35.6179 36.629C35.6216 36.3437 35.6423 36.0485 35.6802 35.7436C35.7219 35.4074 35.7846 35.0619 35.8684 34.7071C35.9833 34.2291 36.2138 33.555 36.56 32.6849C36.6663 32.4044 36.7809 32.1208 36.9038 31.8344C36.9476 31.7366 36.9867 31.6462 37.0208 31.5631C37.0452 31.4946 37.0622 31.4531 37.072 31.4384L40.6369 32.9399C40.0615 34.3135 39.6511 35.4456 39.4056 36.3361C39.39 36.3977 39.3783 36.4597 39.3705 36.5223C39.3521 36.6708 39.3635 36.8032 39.4046 36.9195C39.4732 37.1344 39.6287 37.2569 39.8711 37.2869L52.6317 38.8676C53.3354 38.9548 53.8436 38.9225 54.1562 38.7707C54.4756 38.6277 54.6596 38.3607 54.7081 37.9697C54.7227 37.8525 54.7231 37.7215 54.7093 37.5769C54.6806 37.1685 54.6528 36.7522 54.6261 36.3281C54.6142 36.1679 54.6038 35.9959 54.5949 35.8122L54.5756 35.5835L54.5681 35.3563C54.5502 35.0524 54.5353 34.7886 54.5234 34.5648L58.3343 33.989C58.4094 34.9827 58.4881 36.1396 58.5704 37.4598C58.5863 37.8428 58.573 38.2064 58.5303 38.5504C58.3983 39.6137 57.9749 40.5299 57.2602 41.2987C56.1159 42.5225 54.4413 42.9978 52.2363 42.7247L42.8652 41.5638ZM50.2669 33.454L48.2564 30.8471L50.8229 28.7833L52.8774 31.4195L50.2669 33.454ZM45.3512 32.857L43.3407 30.2501L45.8954 28.1848L47.95 30.821L45.3512 32.857ZM63.5498 43.9951L59.7028 43.5186L61.802 26.6065L65.649 27.0831L63.5498 43.9951ZM73.6862 31.556L73.8595 31.8871C73.8977 31.9633 73.9334 32.0272 73.9667 32.079C74.0117 32.164 74.0528 32.2484 74.09 32.3324C74.1996 32.5366 74.3161 32.7495 74.4394 32.9712C74.7537 33.5738 75.1036 34.2403 75.4893 34.9708C75.9924 35.9065 76.5401 36.931 77.1323 38.0443C77.5944 38.9272 77.8096 39.8153 77.7782 40.7085C77.7744 40.8668 77.7628 41.0241 77.7434 41.1805C77.6522 41.9155 77.3977 42.5905 76.9799 43.2057C76.4675 43.944 75.7971 44.4842 74.9686 44.8261C74.1314 45.175 73.228 45.2893 72.2585 45.1692C71.1325 45.0297 69.6956 44.6136 67.9476 43.9207C67.4256 43.7131 66.9016 43.4894 66.3756 43.2496C66.2094 43.1814 66.0515 43.1102 65.9019 43.0361C65.8491 43.0137 65.8037 42.9962 65.7655 42.9835L65.7333 42.9557L65.7098 42.9528L67.394 39.4579C67.6785 39.5963 68.0129 39.7489 68.3971 39.9156C68.8722 40.1173 69.341 40.3064 69.8034 40.4827C71.0469 40.9543 72.0244 41.2342 72.736 41.3224C73.2442 41.3853 73.5945 41.2818 73.7867 41.0119C73.8551 40.9092 73.897 40.7953 73.9125 40.6702C73.9407 40.4435 73.8745 40.1773 73.7139 39.8716C73.1217 38.7582 72.5745 37.7298 72.0724 36.7864C71.6926 36.0724 71.3387 35.4054 71.0108 34.7852C70.4949 33.8242 70.2375 33.3398 70.2385 33.332L73.6862 31.556ZM85.0747 46.6616L84.0191 46.5308C83.1512 46.4233 82.3921 46.1744 81.7419 45.7843C81.2462 45.4926 80.8271 45.1271 80.4846 44.6878C80.1422 44.2484 79.8901 43.7527 79.7284 43.2008C79.5089 42.475 79.453 41.6781 79.5607 40.8102L81.0281 28.9882L84.8633 29.4633L83.3959 41.2853C83.3367 41.7623 83.3859 42.1018 83.5434 42.3039C83.6941 42.4972 84.0118 42.6239 84.4966 42.684L85.5521 42.8147L85.0747 46.6616ZM93.257 47.7347C93.376 47.416 93.513 47.1114 93.6681 46.821C93.7208 46.7164 93.7725 46.6196 93.8233 46.5306L93.8818 46.4426C93.8926 46.4201 93.9023 46.4055 93.9111 46.3986C92.8384 46.7897 91.7455 46.96 90.6323 46.9094C90.6641 47.5485 90.9452 48.2263 91.4755 48.943C91.9305 49.5631 92.399 50.0101 92.881 50.2842C92.8279 49.9442 92.8252 49.5826 92.8727 49.1995C92.929 48.746 93.0571 48.2577 93.257 47.7347ZM90.9265 43.0041C92.3582 42.983 93.3773 42.7361 93.9838 42.2635C94.1947 42.099 94.3524 41.9161 94.4568 41.7147C94.4899 41.6394 94.5153 41.5632 94.5328 41.486L94.5562 41.3936L94.5649 41.3232C94.6008 41.0339 94.5376 40.776 94.3751 40.5495C94.1844 40.2956 93.8896 40.144 93.4908 40.0946C92.8653 40.0171 92.288 40.3822 91.759 41.19C91.5726 41.4765 91.396 41.8119 91.2293 42.1961C91.1639 42.3389 91.1054 42.4904 91.0537 42.6507C91.0079 42.7641 90.9655 42.8819 90.9265 43.0041ZM97.2182 37.8888C98.1523 38.8699 98.5189 40.1697 98.318 41.7881C98.1958 42.7733 97.8305 43.6371 97.2223 44.3795C97.5682 44.3429 97.8819 44.3421 98.1634 44.377L100.357 44.6486L99.8792 48.4955L97.944 48.2558C97.6781 48.2228 97.4261 48.3028 97.1878 48.4955C96.9661 48.6824 96.7948 48.943 96.6739 49.2774C96.6037 49.4592 96.557 49.644 96.5337 49.8316C96.4628 50.4024 96.6241 50.9582 97.0174 51.4992L95.4089 54.4795C94.9477 54.4859 94.5294 54.4658 94.1541 54.4193C91.738 54.12 89.8079 52.9759 88.3637 50.9869C87.8353 50.2546 87.4134 49.464 87.098 48.6151C86.8345 47.9235 86.6864 47.3257 86.6538 46.8214C85.8533 46.7461 85.1247 46.6678 84.4679 46.5864L84.9454 42.7396L85.8954 42.8572C86.2717 42.8959 86.6211 42.9273 86.9436 42.9514C87.3418 41.2144 87.9538 39.8017 88.7796 38.7131C89.4532 37.828 90.2315 37.1861 91.1146 36.7874C92.0065 36.3818 92.9529 36.241 93.9537 36.365C95.3299 36.5355 96.418 37.0434 97.2182 37.8888ZM106.761 44.3584C106.715 44.7337 106.772 45.0107 106.932 45.1893C107.113 45.3943 107.462 45.5288 107.978 45.5927L108.447 45.6508L107.969 49.4977L107.5 49.4396C106.992 49.3766 106.518 49.2623 106.078 49.0967C105.729 48.9661 105.408 48.8033 105.114 48.6081C104.776 48.3916 104.528 48.1861 104.369 47.9919C104.168 48.1416 103.857 48.2778 103.437 48.4004C102.604 48.6544 101.644 48.7141 100.557 48.5795L98.352 48.3063L98.8295 44.4595L101.304 44.766C101.867 44.8358 102.274 44.7909 102.524 44.6313C102.747 44.4923 102.882 44.2429 102.926 43.8833L103.322 40.6932L107.157 41.1683L106.761 44.3584ZM102.633 35.118L105.378 32.9573L107.556 35.7517L104.775 37.908L102.633 35.118ZM116.096 46.5983C116.494 46.6477 116.802 46.6024 117.017 46.4625C117.31 46.2765 117.491 45.9059 117.56 45.3508L117.914 42.5008L121.761 42.9774L121.407 45.8273C121.344 46.3355 121.372 46.6883 121.49 46.8855C121.639 47.158 121.991 47.3286 122.546 47.3974C122.945 47.4468 123.252 47.4015 123.468 47.2615C123.753 47.0746 123.93 46.7035 123.999 46.1484L124.353 43.2984L128.2 43.775L127.846 46.6249C127.786 47.1097 127.833 47.4649 127.988 47.6904C128.168 47.9668 128.54 48.1398 129.102 48.2096L130.604 48.3955L130.126 52.2424L128.625 52.0564C127.014 51.8569 125.936 51.3621 125.391 50.5722C124.373 51.1684 123.265 51.3925 122.069 51.2443C120.536 51.0544 119.497 50.5645 118.952 49.7745C117.934 50.3708 116.842 50.5968 115.677 50.4524C114.441 50.2994 113.403 49.8095 112.56 48.9827C111.839 49.6158 110.673 49.8325 109.062 49.633L107.373 49.4238L107.85 45.5769L109.539 45.7862C110.102 45.8559 110.505 45.7787 110.747 45.5547C110.952 45.3737 111.085 45.0408 111.145 44.556L111.499 41.7061L115.346 42.1826L114.992 45.0326C114.923 45.5877 115.008 45.9912 115.246 46.2431C115.414 46.4305 115.697 46.5489 116.096 46.5983ZM120.206 37.8546L117.592 39.9125L115.558 37.3027L118.172 35.2447L120.206 37.8546ZM125.3 38.4499L122.713 40.4873L120.618 37.8937L123.255 35.8386L125.3 38.4499ZM122.861 35.0754L120.567 36.8633L118.8 34.5961L121.094 32.8082L122.861 35.0754ZM139.692 48.4377C139.646 48.813 139.703 49.09 139.863 49.2687C140.044 49.4737 140.393 49.6082 140.909 49.6721L142.621 49.8842L142.144 53.7311L140.431 53.5189C139.923 53.456 139.449 53.3417 139.009 53.176C138.66 53.0455 138.339 52.8826 138.045 52.6875C137.707 52.4709 137.459 52.2655 137.3 52.0712C137.099 52.221 136.788 52.3571 136.368 52.4798C135.535 52.7338 134.575 52.7935 133.488 52.6588L129.547 52.1707L130.025 48.3238L134.235 48.8454C134.798 48.9151 135.205 48.8702 135.455 48.7107C135.678 48.5717 135.813 48.3223 135.857 47.9627L136.253 44.7726L140.088 45.2477L139.692 48.4377ZM136.705 59.9404L134.694 57.3335L137.261 55.2697L139.315 57.9059L136.705 59.9404ZM131.754 59.339L129.743 56.7321L132.298 54.6668L134.352 57.3031L131.754 59.339ZM152.486 48.9628C152.502 49.3458 152.489 49.7094 152.446 50.0534C152.314 51.1167 151.891 52.0329 151.176 52.8017C150.032 54.0255 148.357 54.5008 146.152 54.2277L141.567 53.6596L142.044 49.8127L146.548 50.3706C147.252 50.4578 147.76 50.4255 148.072 50.2737C148.392 50.1307 148.576 49.8637 148.624 49.4727C148.639 49.3555 148.639 49.2245 148.625 49.0799C148.597 48.6715 148.569 48.2552 148.542 47.8311C148.53 47.6709 148.52 47.4989 148.511 47.3152L148.492 47.0865L148.484 46.8593C148.447 46.2037 148.413 45.7351 148.385 45.4537L152.194 44.7943C152.292 45.9258 152.389 47.3153 152.486 48.9628ZM143.515 60.5102L141.475 57.9472L144.094 55.8423L146.12 58.5226L143.515 60.5102ZM148.564 61.1833L146.507 58.5705L149.176 56.5433L151.186 59.1502L148.564 61.1833ZM145.753 63.5859L143.966 61.2924L146.233 59.5251L148.021 61.8186L145.753 63.5859ZM31.4188 69.057L31.0213 72.2588C30.9796 72.595 31.1181 72.886 31.4369 73.1319C31.6893 73.3378 31.9562 73.4582 32.2376 73.4931L32.7772 73.5599L32.2997 77.4068L31.7602 77.34C31.3067 77.2838 30.835 77.1499 30.3452 76.9384C29.904 78.6383 29.1487 79.9579 28.0794 80.8972C26.5179 82.2836 24.4197 82.8136 21.7847 82.4872L20.6236 82.3434L21.1011 78.4965L22.2622 78.6403C23.7009 78.8186 24.7655 78.621 25.4559 78.0476C26.1542 77.4751 26.5979 76.4266 26.7872 74.9019L27.5718 68.5804L31.4188 69.057ZM27.6673 63.7812L30.4126 61.6205L32.5904 64.4149L29.81 66.5712L27.6673 63.7812ZM41.8643 73.6019C41.8177 73.9773 41.8746 74.2542 42.035 74.4329C42.216 74.6379 42.5645 74.7724 43.0806 74.8363L44.793 75.0484L44.3155 78.8953L42.6031 78.6831C42.0949 78.6202 41.6208 78.5059 41.1809 78.3402C40.8319 78.2097 40.5107 78.0468 40.2173 77.8517C39.879 77.6351 39.6306 77.4297 39.4721 77.2354C39.2709 77.3852 38.9603 77.5213 38.5402 77.644C37.7068 77.898 36.7467 77.9577 35.6598 77.823L31.719 77.3349L32.1965 73.488L36.4071 74.0096C36.97 74.0793 37.3765 74.0344 37.6266 73.8749C37.8502 73.7359 37.9844 73.4865 38.029 73.1269L38.425 69.9368L42.2602 70.4119L41.8643 73.6019ZM38.8765 85.1046L36.8659 82.4977L39.4324 80.4339L41.4869 83.0701L38.8765 85.1046ZM33.9256 84.5032L31.915 81.8963L34.4698 79.831L36.5243 82.4673L33.9256 84.5032ZM57.127 75.9214C57.621 76.4192 58.3567 76.7286 59.334 76.8497L58.8566 80.6966C57.0191 80.4689 55.535 79.7929 54.4043 78.6684C54.149 78.4224 53.8673 78.1017 53.5591 77.7063C52.9947 78.2873 52.3008 78.7293 51.4772 79.0322C50.4699 79.4076 49.4034 79.5255 48.2774 79.3861L43.7385 78.8238L44.216 74.9769L48.7549 75.5392C49.2006 75.5944 49.634 75.5568 50.0551 75.4264C50.4771 75.2881 50.7672 75.0938 50.9253 74.8435C51.0034 74.7261 51.0526 74.5854 51.073 74.4212C51.1225 74.0224 50.9852 73.4973 50.6612 72.8459L50.3279 72.2687C49.8846 71.5548 49.3072 70.61 48.5957 69.4342C48.3383 69.0133 48.1078 68.6315 47.9043 68.2887C47.7203 67.9801 47.6249 67.8214 47.618 67.8127L48.6476 64.9869L59.4262 61.3324L60.6739 65L52.1829 67.878C52.5137 68.4112 53.5232 70.128 55.2115 73.0285C56.0572 74.5305 56.6957 75.4948 57.127 75.9214ZM49.2807 61.4213L58.364 58.6643L58.8108 60.0534L48.9215 63.0678L49.2807 61.4213ZM67.1217 75.6709C67.1376 76.0539 67.1243 76.4175 67.0816 76.7615C66.9496 77.8249 66.5262 78.741 65.8115 79.5099C64.6672 80.7336 62.9926 81.2089 60.7876 80.9358L58.2777 80.6249L58.7552 76.778L61.183 77.0788C61.8867 77.1659 62.3949 77.1336 62.7075 76.9818C63.0269 76.8388 63.2109 76.5718 63.2594 76.1809C63.274 76.0636 63.2744 75.9326 63.2606 75.788C63.2319 75.3796 63.2042 74.9633 63.1774 74.5392C63.1655 74.379 63.1551 74.207 63.1462 74.0233L63.1269 73.7946L63.1194 73.5675C63.0817 72.9118 63.0485 72.4432 63.02 72.1618L66.8293 71.5024C66.927 72.6339 67.0245 74.0234 67.1217 75.6709ZM61.5519 66.2401L64.2971 64.0794L66.4749 66.8737L63.6945 69.0301L61.5519 66.2401ZM72.3849 82.3724L68.5379 81.8959L70.6371 64.9838L74.4841 65.4604L72.3849 82.3724ZM88.151 76.1086C87.5756 77.4822 87.1651 78.6143 86.9196 79.5048C86.9041 79.5664 86.8924 79.6284 86.8846 79.691C86.8662 79.8395 86.8775 79.9719 86.9187 80.0882C86.9873 80.3031 87.1428 80.4256 87.3851 80.4556L101.237 82.1714C101.8 82.2412 102.113 82.018 102.177 81.502L102.627 77.878L106.474 78.3545L106.119 81.2162C106.096 81.7215 106.151 82.0776 106.284 82.2846C106.456 82.56 106.82 82.7321 107.375 82.8008L108.724 82.9679L108.246 86.8148L106.897 86.6477C105.49 86.4733 104.491 86.0796 103.9 85.4666C103.24 85.7976 102.358 85.9584 101.256 85.9488C100.456 85.937 99.0467 85.8062 97.0294 85.5563L90.3793 84.7325C88.1743 84.4593 86.7698 84.2298 86.1657 84.0438C84.9868 83.6913 84.1404 82.995 83.6264 81.9549C83.3023 81.3034 83.1375 80.5844 83.132 79.7977C83.1356 79.5124 83.1564 79.2172 83.1942 78.9123C83.236 78.5761 83.2987 78.2306 83.3824 77.8758C83.4974 77.3978 83.7279 76.7237 84.0741 75.8536C84.1804 75.573 84.2949 75.2895 84.4178 75.0031C84.4617 74.9053 84.5007 74.8149 84.5349 74.7318C84.5592 74.6633 84.5763 74.6218 84.5861 74.6071L88.151 76.1086ZM97.781 76.6227L95.7704 74.0158L98.3369 71.952L100.391 74.5882L97.781 76.6227ZM92.8653 76.0257L90.8547 73.4187L93.4095 71.3535L95.464 73.9897L92.8653 76.0257ZM114.94 83.4045C115.748 83.2903 116.342 83.0424 116.723 82.6608C116.996 82.385 117.16 82.0203 117.216 81.5668C117.284 81.0195 117.185 80.5349 116.92 80.113C116.609 79.614 116.121 79.3233 115.457 79.241C114.792 79.1587 114.248 79.3215 113.824 79.7295C113.464 80.0738 113.25 80.5197 113.182 81.067C113.125 81.5205 113.199 81.9147 113.404 82.2497C113.672 82.7116 114.184 83.0966 114.94 83.4045ZM115.934 75.3942C117.631 75.6044 118.954 76.3597 119.904 77.6604C120.828 78.918 121.187 80.3756 120.981 82.0332C120.87 82.9245 120.606 83.7095 120.189 84.3882L121.584 84.5611L121.107 88.4079L119.406 88.1972C117.498 87.9609 115.863 87.54 114.502 86.9347C113.111 87.1991 111.419 87.2078 109.425 86.9608L107.725 86.7501L108.202 82.9033L109.598 83.0762C109.359 82.3162 109.294 81.4905 109.405 80.5992C109.611 78.9416 110.315 77.6157 111.518 76.6215C112.765 75.5931 114.237 75.184 115.934 75.3942ZM113.858 71.493L116.603 69.3323L118.781 72.1266L116.001 74.283L113.858 71.493ZM133.956 85.4386C134.45 85.9365 135.185 86.2459 136.163 86.367L135.685 90.2138C133.848 89.9862 132.364 89.3102 131.233 88.1857C130.978 87.9397 130.696 87.619 130.388 87.2235C129.824 87.8046 129.13 88.2466 128.306 88.5495C127.299 88.9249 126.232 89.0428 125.106 88.9033L120.567 88.3411L121.045 84.4942L125.584 85.0565C126.029 85.1117 126.463 85.0741 126.884 84.9437C127.306 84.8054 127.596 84.6111 127.754 84.3608C127.832 84.2434 127.881 84.1026 127.902 83.9384C127.951 83.5397 127.814 83.0146 127.49 82.3631L127.157 81.786C126.713 81.0721 126.136 80.1273 125.424 78.9515C125.167 78.5306 124.937 78.1488 124.733 77.806C124.549 77.4974 124.454 77.3387 124.447 77.3299L125.476 74.5042L136.255 70.8497L137.503 74.5173L129.012 77.3953C129.342 77.9285 130.352 79.6453 132.04 82.5457C132.886 84.0478 133.524 85.0121 133.956 85.4386ZM126.109 70.9386L135.193 68.1816L135.64 69.5707L125.75 72.5851L126.109 70.9386ZM145.373 87.2578C145.697 87.0757 145.894 86.7071 145.963 86.1519L146.316 83.302L150.163 83.7785L149.809 86.6285C149.749 87.1132 149.797 87.4684 149.951 87.694C150.131 87.9703 150.503 88.1434 151.066 88.2131C151.957 88.3235 152.441 88.0699 152.518 87.4522C152.534 87.3193 152.533 87.1683 152.514 86.9993C152.297 85.1067 152.16 83.8394 152.105 83.1974L155.945 82.7681C156.056 83.7344 156.196 85.0022 156.366 86.5714C156.403 86.9173 156.398 87.274 156.353 87.6415C156.316 87.9386 156.25 88.244 156.156 88.5578C155.932 89.2685 155.588 89.8967 155.124 90.4425C154.016 91.7581 152.57 92.3055 150.788 92.0846C149.982 91.9849 149.243 91.7702 148.569 91.4407C148.114 91.2018 147.71 90.9134 147.355 90.5757C146.336 91.172 145.224 91.3955 144.02 91.2463C142.754 91.0894 141.699 90.5976 140.857 89.7708C140.135 90.4039 138.969 90.6206 137.358 90.4211L135.107 90.1421L135.584 86.2953L137.836 86.5742C138.399 86.644 138.801 86.5668 139.044 86.3428C139.249 86.1618 139.381 85.8289 139.441 85.3441L139.795 82.4942L143.642 82.9707L143.288 85.8207C143.219 86.3758 143.304 86.7793 143.543 87.0312C143.71 87.2186 143.993 87.337 144.392 87.3864C144.807 87.4377 145.133 87.3949 145.373 87.2578ZM148.684 78.3317L146.07 80.3897L144.036 77.7798L146.65 75.7218L148.684 78.3317ZM153.778 78.9271L151.191 80.9645L149.096 78.3708L151.733 76.3158L153.778 78.9271ZM151.339 75.5525L149.045 77.3404L147.278 75.0733L149.572 73.2854L151.339 75.5525Z" fill="#E6EFEE"/>
<path d="M42.0283 39.0574C39.8234 38.7843 38.4188 38.5547 37.8147 38.3688C36.6358 38.0163 35.7894 37.32 35.2754 36.2798C34.9514 35.6284 34.7866 34.9093 34.781 34.1227C34.7847 33.8373 34.8054 33.5422 34.8433 33.2373C34.885 32.9011 34.9477 32.5555 35.0315 32.2007C35.1464 31.7227 35.3769 31.0487 35.7231 30.1786C35.8294 29.898 35.944 29.6145 36.0668 29.328C36.1107 29.2303 36.1497 29.1398 36.1839 29.0567C36.2083 28.9883 36.2253 28.9467 36.2351 28.9321L39.8 30.4335C39.2246 31.8072 38.8141 32.9392 38.5686 33.8297C38.5531 33.8913 38.5414 33.9534 38.5336 34.0159C38.5152 34.1645 38.5265 34.2969 38.5677 34.4131C38.6363 34.6281 38.7918 34.7505 39.0342 34.7806L51.7948 36.3613C52.4985 36.4485 53.0067 36.4161 53.3193 36.2643C53.6387 36.1213 53.8227 35.8543 53.8712 35.4634C53.8858 35.3461 53.8862 35.2152 53.8724 35.0705C53.8437 34.6621 53.8159 34.2458 53.7892 33.8218C53.7773 33.6615 53.7669 33.4895 53.7579 33.3058L53.7387 33.0772L53.7312 32.85C53.7133 32.5461 53.6984 32.2823 53.6865 32.0585L57.4974 31.4826C57.5725 32.4764 57.6512 33.6333 57.7335 34.9534C57.7494 35.3365 57.7361 35.7 57.6934 36.044C57.5614 37.1074 57.138 38.0235 56.4233 38.7924C55.279 40.0161 53.6044 40.4915 51.3994 40.2183L42.0283 39.0574ZM49.43 30.9477L47.4195 28.3407L49.9859 26.277L52.0405 28.9132L49.43 30.9477ZM44.5143 30.3507L42.5037 27.7437L45.0585 25.6785L47.1131 28.3147L44.5143 30.3507ZM62.7129 41.4888L58.8659 41.0122L60.9651 24.1002L64.8121 24.5767L62.7129 41.4888ZM72.8493 29.0497L73.0226 29.3807C73.0607 29.4569 73.0965 29.5209 73.1297 29.5726C73.1748 29.6576 73.2159 29.7421 73.2531 29.8261C73.3627 30.0302 73.4792 30.2431 73.6025 30.4648C73.9168 31.0674 74.2667 31.734 74.6524 32.4645C75.1555 33.4001 75.7032 34.4246 76.2954 35.538C76.7574 36.4209 76.9727 37.3089 76.9412 38.2021C76.9375 38.3604 76.9259 38.5178 76.9065 38.6742C76.8152 39.4091 76.5608 40.0842 76.143 40.6993C75.6306 41.4377 74.9602 41.9778 74.1317 42.3198C73.2945 42.6686 72.3911 42.783 71.4216 42.6629C70.2956 42.5234 68.8587 42.1072 67.1107 41.4143C66.5887 41.2068 66.0646 40.9831 65.5387 40.7433C65.3725 40.675 65.2146 40.6039 65.065 40.5298C65.0122 40.5073 64.9667 40.4898 64.9286 40.4771L64.8963 40.4493L64.8729 40.4464L66.5571 36.9515C66.8416 37.09 67.176 37.2425 67.5602 37.4092C68.0353 37.611 68.5041 37.8 68.9665 37.9764C70.21 38.448 71.1875 38.7279 71.899 38.816C72.4073 38.879 72.7575 38.7755 72.9498 38.5056C73.0182 38.4029 73.0601 38.289 73.0756 38.1639C73.1038 37.9371 73.0376 37.6709 72.877 37.3652C72.2848 36.2519 71.7376 35.2235 71.2355 34.28C70.8557 33.5661 70.5018 32.8991 70.1739 32.2789C69.658 31.3179 69.4006 30.8335 69.4015 30.8256L72.8493 29.0497ZM84.2377 44.1552L83.1822 44.0244C82.3143 43.9169 81.5552 43.6681 80.905 43.2779C80.4092 42.9863 79.9902 42.6208 79.6477 42.1814C79.3053 41.742 79.0532 41.2464 78.8915 40.6944C78.672 39.9686 78.6161 39.1718 78.7238 38.3039L80.1912 26.4819L84.0264 26.957L82.559 38.779C82.4998 39.2559 82.549 39.5954 82.7065 39.7975C82.8572 39.9909 83.1749 40.1176 83.6597 40.1776L84.7152 40.3084L84.2377 44.1552ZM92.4201 45.2284C92.539 44.9097 92.6761 44.6051 92.8312 44.3147C92.8839 44.2101 92.9356 44.1133 92.9864 44.0243L93.0449 43.9363C93.0556 43.9138 93.0654 43.8991 93.0742 43.8923C92.0015 44.2834 90.9086 44.4536 89.7954 44.4031C89.8272 45.0421 90.1083 45.72 90.6386 46.4367C91.0936 47.0567 91.5621 47.5038 92.0441 47.7778C91.991 47.4378 91.9883 47.0763 92.0358 46.6931C92.0921 46.2396 92.2202 45.7514 92.4201 45.2284ZM90.0896 40.4978C91.5213 40.4767 92.5404 40.2298 93.1468 39.7571C93.3578 39.5927 93.5155 39.4098 93.6199 39.2084C93.653 39.1331 93.6784 39.0568 93.6959 38.9796L93.7193 38.8872L93.728 38.8169C93.7639 38.5276 93.7006 38.2697 93.5382 38.0431C93.3474 37.7893 93.0527 37.6376 92.6539 37.5882C92.0284 37.5107 91.4511 37.8759 90.9221 38.6836C90.7357 38.9702 90.5591 39.3056 90.3923 39.6898C90.327 39.8325 90.2685 39.9841 90.2168 40.1444C90.171 40.2578 90.1286 40.3756 90.0896 40.4978ZM96.3813 35.3825C97.3154 36.3635 97.682 37.6633 97.4811 39.2818C97.3588 40.267 96.9936 41.1307 96.3854 41.8731C96.7313 41.8366 97.045 41.8357 97.3265 41.8706L99.5198 42.1423L99.0423 45.9891L97.1071 45.7494C96.8412 45.7165 96.5891 45.7964 96.3509 45.9892C96.1292 46.1761 95.9579 46.4367 95.837 46.771C95.7668 46.9529 95.72 47.1376 95.6967 47.3253C95.6259 47.896 95.7871 48.4519 96.1805 48.9928L94.572 51.9732C94.1108 51.9795 93.6925 51.9595 93.3172 51.913C90.9011 51.6137 88.9709 50.4695 87.5268 48.4805C86.9984 47.7482 86.5765 46.9576 86.2611 46.1088C85.9976 45.4172 85.8495 44.8193 85.8168 44.3151C85.0164 44.2398 84.2878 44.1614 83.631 44.08L84.1085 40.2332L85.0585 40.3509C85.4348 40.3896 85.7842 40.4209 86.1067 40.445C86.5049 38.7081 87.1169 37.2953 87.9427 36.2068C88.6163 35.3216 89.3946 34.6797 90.2777 34.281C91.1696 33.8755 92.116 33.7347 93.1168 33.8587C94.493 34.0291 95.5811 34.5371 96.3813 35.3825ZM105.925 41.852C105.878 42.2273 105.935 42.5043 106.095 42.683C106.276 42.888 106.625 43.0224 107.141 43.0864L107.61 43.1445L107.132 46.9913L106.663 46.9332C106.155 46.8703 105.681 46.756 105.241 46.5903C104.892 46.4598 104.571 46.2969 104.278 46.1018C103.939 45.8852 103.691 45.6798 103.532 45.4855C103.331 45.6352 103.021 45.7714 102.6 45.894C101.767 46.148 100.807 46.2077 99.72 46.0731L97.5151 45.8L97.9926 41.9531L100.467 42.2597C101.03 42.3294 101.437 42.2845 101.687 42.1249C101.91 41.9859 102.045 41.7366 102.089 41.3769L102.485 38.1869L106.32 38.662L105.925 41.852ZM101.796 32.6116L104.541 30.4509L106.719 33.2453L103.938 35.4017L101.796 32.6116ZM115.259 44.092C115.657 44.1414 115.965 44.0961 116.181 43.9561C116.474 43.7701 116.655 43.3995 116.723 42.8444L117.077 39.9945L120.924 40.471L120.57 43.321C120.507 43.8292 120.535 44.1819 120.653 44.3792C120.802 44.6517 121.154 44.8223 121.709 44.8911C122.108 44.9405 122.415 44.8952 122.631 44.7552C122.916 44.5682 123.094 44.1972 123.162 43.642L123.516 40.7921L127.363 41.2686L127.009 44.1186C126.949 44.6034 126.996 44.9585 127.151 45.1841C127.331 45.4604 127.703 45.6335 128.266 45.7032L129.767 45.8892L129.289 49.736L127.788 49.5501C126.177 49.3505 125.099 48.8558 124.554 48.0658C123.536 48.6621 122.428 48.8861 121.232 48.7379C119.699 48.5481 118.661 48.0582 118.115 47.2682C117.097 47.8644 116.005 48.0904 114.84 47.9461C113.604 47.793 112.566 47.3031 111.723 46.4764C111.002 47.1094 109.836 47.3262 108.225 47.1267L106.536 46.9174L107.013 43.0706L108.702 43.2798C109.265 43.3495 109.668 43.2724 109.91 43.0483C110.115 42.8673 110.248 42.5344 110.308 42.0497L110.662 39.1997L114.509 39.6763L114.155 42.5262C114.086 43.0814 114.171 43.4849 114.41 43.7367C114.577 43.9242 114.86 44.0426 115.259 44.092ZM119.369 35.3482L116.755 37.4062L114.721 34.7963L117.335 32.7384L119.369 35.3482ZM124.463 35.9436L121.876 37.981L119.781 35.3873L122.418 33.3323L124.463 35.9436ZM122.024 32.569L119.73 34.3569L117.963 32.0898L120.257 30.3019L122.024 32.569ZM138.855 45.9314C138.809 46.3067 138.866 46.5837 139.026 46.7623C139.207 46.9673 139.556 47.1018 140.072 47.1657L141.784 47.3779L141.307 51.2247L139.594 51.0126C139.086 50.9496 138.612 50.8353 138.172 50.6697C137.823 50.5391 137.502 50.3763 137.209 50.1812C136.87 49.9646 136.622 49.7592 136.463 49.5649C136.262 49.7146 135.951 49.8508 135.531 49.9734C134.698 50.2274 133.738 50.2871 132.651 50.1525L128.71 49.6643L129.188 45.8175L133.398 46.3391C133.961 46.4088 134.368 46.3639 134.618 46.2043C134.841 46.0653 134.976 45.816 135.02 45.4563L135.416 42.2662L139.251 42.7413L138.855 45.9314ZM135.868 57.4341L133.857 54.8271L136.424 52.7633L138.478 55.3996L135.868 57.4341ZM130.917 56.8327L128.906 54.2257L131.461 52.1605L133.516 54.7967L130.917 56.8327ZM151.65 46.4564C151.666 46.8395 151.652 47.203 151.609 47.547C151.477 48.6104 151.054 49.5265 150.339 50.2954C149.195 51.5192 147.521 51.9945 145.316 51.7213L140.73 51.1532L141.207 47.3064L145.711 47.8643C146.415 47.9515 146.923 47.9192 147.235 47.7673C147.555 47.6243 147.739 47.3573 147.787 46.9664C147.802 46.8491 147.802 46.7182 147.788 46.5736C147.76 46.1651 147.732 45.7488 147.705 45.3248C147.693 45.1645 147.683 44.9925 147.674 44.8088L147.655 44.5802L147.647 44.353C147.61 43.6973 147.576 43.2288 147.548 42.9474L151.357 42.288C151.455 43.4195 151.552 44.809 151.65 46.4564ZM142.678 58.0038L140.638 55.4409L143.257 53.336L145.283 56.0162L142.678 58.0038ZM147.727 58.6769L145.67 56.0642L148.339 54.0369L150.349 56.6439L147.727 58.6769ZM144.916 61.0796L143.129 58.7861L145.396 57.0187L147.184 59.3122L144.916 61.0796ZM30.5818 66.5506L30.1844 69.7524C30.1427 70.0886 30.2812 70.3797 30.6 70.6256C30.8523 70.8315 31.1192 70.9519 31.4007 70.9868L31.9402 71.0536L31.4628 74.9004L30.9232 74.8336C30.4697 74.7774 29.9981 74.6436 29.5083 74.4321C29.0671 76.1319 28.3118 77.4515 27.2425 78.3908C25.681 79.7772 23.5828 80.3073 20.9478 79.9808L19.7867 79.837L20.2642 75.9902L21.4253 76.134C22.864 76.3122 23.9285 76.1146 24.619 75.5412C25.3172 74.9688 25.761 73.9202 25.9502 72.3956L26.7349 66.0741L30.5818 66.5506ZM26.8304 61.2749L29.5757 59.1142L31.7535 61.9085L28.9731 64.0649L26.8304 61.2749ZM41.0274 71.0956C40.9808 71.4709 41.0377 71.7479 41.1981 71.9265C41.3791 72.1315 41.7276 72.266 42.2437 72.3299L43.956 72.5421L43.4786 76.3889L41.7662 76.1768C41.2579 76.1138 40.7839 75.9995 40.344 75.8339C39.995 75.7033 39.6738 75.5405 39.3804 75.3454C39.0421 75.1288 38.7937 74.9234 38.6352 74.7291C38.434 74.8788 38.1234 75.015 37.7032 75.1376C36.8699 75.3916 35.9097 75.4513 34.8229 75.3167L30.8821 74.8285L31.3596 70.9817L35.5701 71.5033C36.1331 71.573 36.5396 71.5281 36.7897 71.3685C37.0133 71.2295 37.1475 70.9802 37.1921 70.6205L37.5881 67.4304L41.4233 67.9055L41.0274 71.0956ZM38.0395 82.5983L36.029 79.9913L38.5955 77.9275L40.65 80.5638L38.0395 82.5983ZM33.0886 81.9969L31.0781 79.3899L33.6328 77.3247L35.6874 79.9609L33.0886 81.9969ZM56.2901 73.415C56.7841 73.9128 57.5198 74.2223 58.4971 74.3434L58.0196 78.1902C56.1822 77.9626 54.6981 77.2865 53.5674 76.162C53.3121 75.916 53.0304 75.5953 52.7222 75.1999C52.1578 75.781 51.4639 76.223 50.6403 76.5258C49.633 76.9012 48.5664 77.0192 47.4405 76.8797L42.9016 76.3174L43.3791 72.4706L47.918 73.0329C48.3637 73.0881 48.7971 73.0505 49.2182 72.92C49.6402 72.7818 49.9303 72.5875 50.0884 72.3371C50.1665 72.2198 50.2157 72.079 50.2361 71.9148C50.2856 71.5161 50.1483 70.991 49.8243 70.3395L49.491 69.7623C49.0477 69.0485 48.4703 68.1037 47.7588 66.9279C47.5014 66.507 47.2709 66.1252 47.0674 65.7824C46.8834 65.4738 46.7879 65.3151 46.7811 65.3063L47.8106 62.4805L58.5892 58.8261L59.837 62.4937L51.346 65.3716C51.6768 65.9048 52.6863 67.6217 54.3746 70.5221C55.2203 72.0241 55.8588 72.9884 56.2901 73.415ZM48.4438 58.915L57.5271 56.158L57.9739 57.5471L48.0846 60.5615L48.4438 58.915ZM66.2848 73.1645C66.3007 73.5476 66.2874 73.9111 66.2447 74.2552C66.1127 75.3185 65.6893 76.2346 64.9746 77.0035C63.8303 78.2273 62.1557 78.7026 59.9507 78.4294L57.4408 78.1185L57.9183 74.2717L60.3461 74.5724C61.0498 74.6596 61.558 74.6273 61.8706 74.4755C62.19 74.3324 62.374 74.0654 62.4225 73.6745C62.4371 73.5572 62.4375 73.4263 62.4237 73.2817C62.395 72.8732 62.3672 72.457 62.3405 72.0329C62.3286 71.8726 62.3182 71.7006 62.3093 71.5169L62.29 71.2883L62.2825 71.0611C62.2448 70.4054 62.2116 69.9369 62.183 69.6555L65.9924 68.9961C66.0901 70.1276 66.1876 71.5171 66.2848 73.1645ZM60.7149 63.7337L63.4602 61.573L65.638 64.3674L62.8576 66.5237L60.7149 63.7337ZM71.548 79.8661L67.701 79.3895L69.8002 62.4775L73.6472 62.954L71.548 79.8661ZM87.3141 73.6022C86.7387 74.9758 86.3282 76.1079 86.0827 76.9984C86.0671 77.06 86.0555 77.1221 86.0477 77.1846C86.0293 77.3332 86.0406 77.4656 86.0818 77.5818C86.1504 77.7967 86.3058 77.9192 86.5482 77.9492L100.4 79.6651C100.963 79.7348 101.276 79.5117 101.34 78.9956L101.79 75.3716L105.637 75.8482L105.282 78.7099C105.259 79.2151 105.314 79.5712 105.447 79.7783C105.619 80.0536 105.983 80.2257 106.538 80.2945L107.887 80.4616L107.409 84.3084L106.06 84.1413C104.653 83.967 103.654 83.5733 103.063 82.9603C102.403 83.2913 101.521 83.452 100.419 83.4425C99.6186 83.4307 98.2098 83.2998 96.1925 83.0499L89.5424 82.2261C87.3374 81.953 85.9329 81.7234 85.3288 81.5374C84.1499 81.185 83.3034 80.4887 82.7895 79.4485C82.4654 78.7971 82.3006 78.078 82.2951 77.2914C82.2987 77.006 82.3195 76.7109 82.3573 76.4059C82.3991 76.0697 82.4618 75.7242 82.5455 75.3694C82.6604 74.8914 82.891 74.2174 83.2372 73.3473C83.3434 73.0667 83.458 72.7832 83.5809 72.4967C83.6248 72.3989 83.6638 72.3085 83.698 72.2254C83.7223 72.157 83.7394 72.1154 83.7491 72.1008L87.3141 73.6022ZM96.9441 74.1164L94.9335 71.5094L97.5 69.4457L99.5546 72.0819L96.9441 74.1164ZM92.0284 73.5193L90.0178 70.9124L92.5726 68.8472L94.6271 71.4834L92.0284 73.5193ZM114.103 80.8982C114.911 80.7839 115.505 80.536 115.886 80.1545C116.159 79.8786 116.323 79.5139 116.379 79.0605C116.447 78.5131 116.349 78.0285 116.083 77.6067C115.772 77.1077 115.284 76.817 114.62 76.7347C113.955 76.6523 113.411 76.8152 112.987 77.2231C112.627 77.5675 112.413 78.0133 112.345 78.5607C112.288 79.0141 112.362 79.4084 112.567 79.7433C112.835 80.2053 113.347 80.5902 114.103 80.8982ZM115.097 72.8878C116.794 73.098 118.117 73.8534 119.067 75.154C119.991 76.4116 120.35 77.8692 120.144 79.5268C120.033 80.4182 119.769 81.2032 119.352 81.8818L120.747 82.0547L120.27 85.9015L118.569 85.6909C116.661 85.4545 115.027 85.0337 113.665 84.4284C112.274 84.6928 110.582 84.7015 108.588 84.4545L106.888 84.2438L107.365 80.397L108.761 80.5699C108.522 79.8098 108.457 78.9842 108.568 78.0928C108.774 76.4352 109.478 75.1094 110.681 74.1152C111.928 73.0868 113.4 72.6776 115.097 72.8878ZM113.021 68.9866L115.766 66.8259L117.944 69.6203L115.164 71.7767L113.021 68.9866ZM133.119 82.9323C133.613 83.4301 134.349 83.7396 135.326 83.8606L134.848 87.7075C133.011 87.4799 131.527 86.8038 130.396 85.6793C130.141 85.4333 129.859 85.1126 129.551 84.7172C128.987 85.2983 128.293 85.7403 127.469 86.0431C126.462 86.4185 125.395 86.5365 124.269 86.397L119.73 85.8347L120.208 81.9879L124.747 82.5501C125.192 82.6053 125.626 82.5677 126.047 82.4373C126.469 82.2991 126.759 82.1048 126.917 81.8544C126.995 81.7371 127.044 81.5963 127.065 81.4321C127.114 81.0333 126.977 80.5082 126.653 79.8568L126.32 79.2796C125.876 78.5658 125.299 77.6209 124.588 76.4452C124.33 76.0243 124.1 75.6424 123.896 75.2997C123.712 74.9911 123.617 74.8324 123.61 74.8236L124.639 71.9978L135.418 68.3434L136.666 72.0109L128.175 74.8889C128.506 75.4221 129.515 77.1389 131.203 80.0394C132.049 81.5414 132.688 82.5057 133.119 82.9323ZM125.273 68.4322L134.356 65.6753L134.803 67.0644L124.913 70.0787L125.273 68.4322ZM144.536 84.7515C144.86 84.5693 145.057 84.2007 145.126 83.6456L145.479 80.7956L149.326 81.2722L148.973 84.1221C148.912 84.6069 148.96 84.9621 149.114 85.1876C149.294 85.464 149.666 85.637 150.229 85.7068C151.12 85.8172 151.604 85.5635 151.681 84.9459C151.697 84.8129 151.696 84.662 151.677 84.4929C151.46 82.6003 151.323 81.333 151.268 80.691L155.108 80.2617C155.219 81.2281 155.359 82.4958 155.53 84.0651C155.566 84.411 155.561 84.7676 155.516 85.1351C155.479 85.4322 155.413 85.7377 155.319 86.0515C155.095 86.7622 154.752 87.3904 154.287 87.9362C153.179 89.2518 151.733 89.7991 149.951 89.5783C149.145 89.4785 148.406 89.2639 147.732 88.9343C147.278 88.6954 146.873 88.4071 146.518 88.0694C145.499 88.6656 144.387 88.8891 143.183 88.74C141.917 88.5831 140.862 88.0912 140.02 87.2645C139.298 87.8975 138.132 88.1143 136.521 87.9147L134.27 87.6358L134.747 83.7889L136.999 84.0679C137.562 84.1376 137.964 84.0605 138.207 83.8364C138.412 83.6554 138.544 83.3225 138.605 82.8378L138.958 79.9878L142.805 80.4644L142.451 83.3143C142.383 83.8695 142.467 84.2729 142.706 84.5248C142.873 84.7122 143.156 84.8307 143.555 84.8801C143.97 84.9314 144.296 84.8885 144.536 84.7515ZM147.847 75.8253L145.233 77.8833L143.199 75.2735L145.813 73.2155L147.847 75.8253ZM152.941 76.4207L150.354 78.4581L148.259 75.8645L150.896 73.8094L152.941 76.4207ZM150.502 73.0462L148.208 74.8341L146.441 72.5669L148.735 70.779L150.502 73.0462Z" fill="#359D96"/>
</g>
<g clip-path="url(#clip1_1539_11505)">
<path opacity="0.51" d="M157.57 269.69C157.57 273.39 131.7 276.38 99.78 276.38C67.86 276.38 42 273.39 42 269.69C42 266 67.87 263 99.79 263C131.71 263 157.57 266 157.57 269.69Z" fill="#22857E"/>
</g>
<defs>
<radialGradient id="paint0_radial_1539_11505" cx="0" cy="0" r="1" gradientUnits="userSpaceOnUse" gradientTransform="translate(107.082 166.482) rotate(-10.0028) scale(102.244 102.297)">
<stop stop-color="white"/>
<stop offset="0.1053" stop-color="#FEFAFA" stop-opacity="0.8947"/>
<stop offset="0.2292" stop-color="#FDEDEC" stop-opacity="0.7708"/>
<stop offset="0.3626" stop-color="#FAD8D4" stop-opacity="0.6374"/>
<stop offset="0.5027" stop-color="#F5B9B3" stop-opacity="0.4973"/>
<stop offset="0.648" stop-color="#F09288" stop-opacity="0.352"/>
<stop offset="0.7978" stop-color="#E96254" stop-opacity="0.2022"/>
<stop offset="0.9482" stop-color="#E22B18" stop-opacity="0.0518"/>
<stop offset="1" stop-color="#DF1601" stop-opacity="0"/>
</radialGradient>
<clipPath id="clip0_1539_11505">
<rect width="230" height="254" fill="white"/>
</clipPath>
<clipPath id="clip1_1539_11505">
<rect width="115.57" height="13.38" fill="white" transform="translate(42 263)"/>
</clipPath>
</defs>
</svg>
