<svg width="43" height="43" viewBox="0 0 43 43" fill="none" xmlns="http://www.w3.org/2000/svg">
<path d="M2.40427 14.7655C3.84299 8.63206 8.63206 3.84299 14.7655 2.40427C19.1951 1.36524 23.8049 1.36524 28.2345 2.40427C34.3679 3.84299 39.157 8.63206 40.5957 14.7655C41.6348 19.1951 41.6348 23.8049 40.5957 28.2345C39.157 34.3679 34.3679 39.157 28.2345 40.5957C23.8049 41.6348 19.1951 41.6348 14.7655 40.5957C8.63207 39.157 3.84299 34.368 2.40427 28.2345C1.36524 23.8049 1.36524 19.1951 2.40427 14.7655Z" stroke="white" stroke-width="1.5"/>
<path d="M29.2295 21.5002L13.7712 21.5002M13.7712 21.5002L19.292 27.021M13.7712 21.5002L19.292 15.9793" stroke="white" stroke-width="1.5" stroke-linecap="round" stroke-linejoin="round"/>
</svg>
