<svg width="37" height="37" viewBox="0 0 37 37" fill="none" xmlns="http://www.w3.org/2000/svg">
<path d="M5.16902 13.7986C6.17341 9.51672 9.51672 6.17341 13.7986 5.16902C16.8909 4.44366 20.1091 4.44366 23.2014 5.16902C27.4833 6.17341 30.8266 9.51672 31.831 13.7986C32.5563 16.8909 32.5563 20.1091 31.831 23.2014C30.8266 27.4833 27.4833 30.8266 23.2014 31.831C20.1091 32.5563 16.8909 32.5563 13.7986 31.831C9.51673 30.8266 6.17341 27.4833 5.16902 23.2014C4.44366 20.1091 4.44366 16.8909 5.16902 13.7986Z" stroke="#D4E0E4" stroke-width="1.5"/>
<path d="M23.8955 18.4998L13.1038 18.4998M13.1038 18.4998L16.958 22.354M13.1038 18.4998L16.958 14.6457" stroke="#D4E0E4" stroke-width="1.5" stroke-linecap="round" stroke-linejoin="round"/>
</svg>
