<svg width="25" height="25" viewBox="0 0 25 25" fill="none" xmlns="http://www.w3.org/2000/svg">
<path d="M16.9434 11.8164H0.732422C0.327588 11.8164 0 12.144 0 12.5488V22.8027C0 24.0144 0.985645 25 2.19727 25H15.4785C16.6901 25 17.6758 24.0144 17.6758 22.8027V12.5488C17.6758 12.144 17.3482 11.8164 16.9434 11.8164ZM13.1836 16.2109C13.1836 18.6342 11.2124 20.6055 8.78906 20.6055C6.36577 20.6055 4.39453 18.6342 4.39453 16.2109V15.4785C4.39453 15.0737 4.72212 14.7461 5.12695 14.7461C5.53179 14.7461 5.85938 15.0737 5.85938 15.4785V16.2109C5.85938 17.8267 7.17329 19.1406 8.78906 19.1406C10.4048 19.1406 11.7188 17.8267 11.7188 16.2109V15.4785C11.7188 15.0737 12.0463 14.7461 12.4512 14.7461C12.856 14.7461 13.1836 15.0737 13.1836 15.4785V16.2109Z" fill="#646464"/>
<path d="M24.2676 5.95703H20.5078V4.39453C20.5078 1.97124 18.5366 0 16.1133 0C13.69 0 11.7188 1.97124 11.7188 4.39453V5.95703H7.95898C7.55415 5.95703 7.22656 6.28462 7.22656 6.68945V10.3516H16.9434C18.155 10.3516 19.1406 11.3372 19.1406 12.5488V22.8027C19.1406 23.6303 18.8542 24.386 18.3895 25H22.8027C24.0144 25 25 24.0144 25 22.8027V6.68945C25 6.28462 24.6724 5.95703 24.2676 5.95703ZM19.043 5.95703H13.1836V4.39453C13.1836 2.77876 14.4975 1.46484 16.1133 1.46484C17.7291 1.46484 19.043 2.77876 19.043 4.39453V5.95703Z" fill="#646464"/>
</svg>
