<svg width="41" height="41" viewBox="0 0 41 41" fill="none" xmlns="http://www.w3.org/2000/svg">
<path d="M33.2731 35.7101L31.7422 31.1167C31.2072 29.5131 29.8423 28.3294 28.1785 28.0265L23.7591 27.2224V26.8798C24.5282 26.4335 25.1974 25.8363 25.7304 25.1294H27.0655C28.1593 25.1294 29.0494 24.2393 29.0494 23.1455V15.2101C29.0494 10.4699 25.1928 6.61328 20.4526 6.61328C15.7125 6.61328 11.8559 10.4699 11.8559 15.2101V19.8391C11.8559 21.1141 12.7625 22.1807 13.9647 22.4294C14.3357 24.3299 15.5234 25.9382 17.1462 26.8798V27.2224L12.7261 28.0265C11.063 28.3294 9.6974 29.5131 9.16308 31.1167L8.89856 31.9109L6.64621 29.6586C6.3883 29.4007 6.3883 28.9808 6.64621 28.7229L9.2583 26.1114L4.3555 21.2086L1.4035 24.1606C0.529271 25.0348 0.0478516 26.1974 0.0478516 27.434C0.0478516 28.6706 0.529271 29.8325 1.4035 30.7067L10.3408 39.6441C11.2151 40.5183 12.3776 41.0004 13.6142 41.0004C14.8508 41.0004 16.0127 40.5183 16.8664 39.6639L20.0876 36.7126L19.0831 35.7101H33.2731ZM27.7268 23.1455C27.7268 23.5106 27.4299 23.8068 27.0655 23.8068H26.5094C26.7012 23.3697 26.8466 22.9088 26.9405 22.4294C27.2236 22.3705 27.4841 22.2581 27.7268 22.1166V23.1455ZM27.0655 20.9778V18.7003C27.459 18.9298 27.7268 19.3517 27.7268 19.8391C27.7268 20.3265 27.459 20.7484 27.0655 20.9778ZM13.8397 20.9778C13.4463 20.7484 13.1784 20.3265 13.1784 19.8391C13.1784 19.3517 13.4463 18.9298 13.8397 18.7003V20.9778ZM13.8397 16.5326V17.2878C13.6043 17.3493 13.3834 17.4419 13.1784 17.5616V15.2101C13.1784 11.1993 16.4419 7.93586 20.4526 7.93586C24.4634 7.93586 27.7268 11.1993 27.7268 15.2101V17.5616C27.5218 17.4419 27.301 17.3487 27.0655 17.2878V16.5326H26.4042C24.4488 16.5326 22.6104 15.7708 21.227 14.3881L20.4526 13.6137L19.6783 14.3881C18.2948 15.7708 16.4564 16.5326 14.501 16.5326H13.8397ZM15.1623 21.1617V17.8301C17.1482 17.6806 18.9998 16.8613 20.4526 15.4799C21.9055 16.8613 23.7571 17.6813 25.743 17.8301V21.1617C25.743 22.1258 25.4798 23.0278 25.0274 23.8068H20.4526V25.1294H23.9403C23.0079 25.9501 21.7891 26.452 20.4526 26.452C17.5357 26.452 15.1623 24.0786 15.1623 21.1617ZM22.4365 27.4697V27.5008L20.4526 29.4847L18.4688 27.5008V27.4697C19.0957 27.6668 19.7616 27.7746 20.4526 27.7746C21.1437 27.7746 21.8096 27.6668 22.4365 27.4697ZM10.4169 31.5347C10.7984 30.3893 11.7739 29.5435 12.9622 29.3266L17.5846 28.4868L20.4526 31.3548L23.32 28.4874L27.9417 29.3273C29.1301 29.5442 30.1055 30.3893 30.487 31.5353L31.4386 34.3875H17.7605L15.1848 31.8117L12.3227 34.4007C12.0734 34.6513 11.6376 34.6513 11.3877 34.4007L9.9434 32.9564L10.4169 31.5347ZM4.35484 23.0787L7.38751 26.1114L6.66935 26.8296L3.63667 23.7969L4.35484 23.0787ZM15.9506 38.7103C15.3263 39.3333 14.4957 39.6778 13.6129 39.6778C12.7301 39.6778 11.8995 39.3333 11.2746 38.709L2.33724 29.7723C1.71298 29.1481 1.36911 28.3175 1.36911 27.4347C1.36911 26.5512 1.71298 25.7206 2.33724 25.0963L2.70095 24.7326L5.73363 27.7653L5.70982 27.7891C4.93677 28.5628 4.93677 29.8213 5.70982 30.595L10.4519 35.3371C10.8269 35.7114 11.3248 35.9184 11.8552 35.9184C12.3855 35.9184 12.8835 35.712 13.234 35.3602L13.2836 35.3159L16.3301 38.3625L15.9506 38.7103ZM17.3062 37.4671L14.2663 34.4271L15.1398 33.6376L18.1745 36.6722L17.3062 37.4671Z" fill="#FCAF39"/>
<path d="M38.9685 0H29.7104C28.6167 0 27.7266 0.890097 27.7266 1.98387V7.27419C27.7266 8.36797 28.6167 9.25807 29.7104 9.25807H31.4767L30.793 13.2463L37.1744 9.25807H38.9685C40.0623 9.25807 40.9524 8.36797 40.9524 7.27419V1.98387C40.9524 0.890097 40.0623 0 38.9685 0ZM39.6298 7.27419C39.6298 7.63856 39.3329 7.93548 38.9685 7.93548H36.7948L32.595 10.5601L33.0453 7.93548H29.7104C29.3461 7.93548 29.0491 7.63856 29.0491 7.27419V1.98387C29.0491 1.6195 29.3461 1.32258 29.7104 1.32258H38.9685C39.3329 1.32258 39.6298 1.6195 39.6298 1.98387V7.27419Z" fill="#FCAF39"/>
<path d="M38.3076 2.64551H30.3721V3.96809H38.3076V2.64551Z" fill="#FCAF39"/>
<path d="M35.6624 5.29004H30.3721V6.61262H35.6624V5.29004Z" fill="#FCAF39"/>
<path d="M38.3079 5.29004H36.9854V6.61262H38.3079V5.29004Z" fill="#FCAF39"/>
<path d="M20.4523 1.9834C11.8119 1.9834 4.36907 7.96014 2.43413 16.297L1.18099 14.208L0.046875 14.8885L2.37131 18.7617L6.24449 16.4372L5.56402 15.3031L3.77192 16.3784C5.64602 8.7517 12.5043 3.30598 20.4523 3.30598C22.1895 3.30598 23.9036 3.56388 25.5469 4.07308L25.9384 2.81001C24.1681 2.26114 22.3224 1.9834 20.4523 1.9834Z" fill="#FCAF39"/>
<path d="M40.6314 14.6418L36.7582 12.3174L34.4345 16.1912L35.5686 16.8717L36.7258 14.9427C37.3349 16.7249 37.6463 18.5891 37.6463 20.4995C37.6463 24.4322 36.2841 28.277 33.8115 31.3248L34.8385 32.1581C37.5022 28.8754 38.9689 24.7344 38.9689 20.4995C38.9689 18.4766 38.6429 16.5014 38.0074 14.6101L39.9509 15.7759L40.6314 14.6418Z" fill="#FCAF39"/>
</svg>
