<svg width="46" height="46" viewBox="0 0 46 46" fill="none" xmlns="http://www.w3.org/2000/svg">
<g clip-path="url(#clip0_1543_1238)">
<path d="M42.0136 21.2188L38.4095 15.8125H30.696L31.1988 12.5781H27.9078C27.5685 9.15301 24.6711 6.46875 21.1583 6.46875C17.6455 6.46875 14.7481 9.15301 14.4088 12.5781H6.06445V13.9258H14.4087C14.748 17.3509 17.6454 20.0352 21.1582 20.0352C24.671 20.0352 27.5684 17.3509 27.9077 13.9258H29.6254L27.1396 29.918H14.5518C12.083 26.0822 6.50882 26.0913 4.04575 29.918H0V33.9609H3.09161C3.4288 37.0881 6.0835 39.5312 9.29883 39.5312C12.5142 39.5312 15.1689 37.0881 15.506 33.9609H28.3377C28.6749 37.0881 31.3296 39.5312 34.5449 39.5312C37.7603 39.5312 40.415 37.0881 40.7521 33.9609H46C46 32.7237 46 26.5792 46 25.5605C46 23.2827 44.2434 21.4076 42.0136 21.2188ZM21.1582 18.6875C18.161 18.6875 15.7227 16.2491 15.7227 13.252C15.7227 10.2549 18.161 7.81641 21.1582 7.81641C24.1554 7.81641 26.5938 10.2549 26.5938 13.252C26.5938 16.2491 24.1554 18.6875 21.1582 18.6875ZM3.09161 32.6133H1.34766V31.2656H3.39241C3.24471 31.6959 3.14193 32.1467 3.09161 32.6133ZM9.29883 38.1836C6.59893 38.1836 4.40234 35.9871 4.40234 33.2871C4.40234 30.5871 6.59893 28.3906 9.29883 28.3906C11.9987 28.3906 14.1953 30.5871 14.1953 33.2871C14.1953 35.9871 11.9987 38.1836 9.29883 38.1836ZM33.6783 17.1602H37.6883L40.3836 21.2031H33.0045L33.6783 17.1602ZM28.3377 32.6133H15.506C15.4557 32.1467 15.3529 31.6959 15.2052 31.2656H28.6385C28.4908 31.6959 28.388 32.1467 28.3377 32.6133ZM34.5449 38.1836C31.845 38.1836 29.6484 35.9871 29.6484 33.2871C29.6484 30.5871 31.845 28.3906 34.5449 28.3906C37.2448 28.3906 39.4414 30.5871 39.4414 33.2871C39.4414 35.9871 37.2448 38.1836 34.5449 38.1836ZM44.6523 32.6133H40.7521C40.7018 32.1467 40.599 31.6959 40.4513 31.2656H44.6523V32.6133ZM44.6523 29.918H39.7979C37.3291 26.0822 31.7549 26.0913 29.2918 29.918H28.5034L30.4864 17.1602H32.3119L31.4134 22.5508H41.6425C43.0704 22.5508 44.2684 23.5507 44.5753 24.8867H42.1816C41.0669 24.8867 40.1602 25.7936 40.1602 26.9082C40.1602 28.0228 41.0669 28.9297 42.1816 28.9297H44.6523V29.918ZM44.6523 27.582H42.1816C41.2899 27.582 41.2907 26.2344 42.1816 26.2344H44.6523V27.582Z" fill="#FCAF39"/>
<path d="M1.39258 15.9922H2.74023V17.3398H1.39258V15.9922Z" fill="#FCAF39"/>
<path d="M4.08789 15.9922H10.1074V17.3398H4.08789V15.9922Z" fill="#FCAF39"/>
<path d="M4.17773 19.2715H5.52539V20.6191H4.17773V19.2715Z" fill="#FCAF39"/>
<path d="M6.87305 19.2715H14.5996V20.6191H6.87305V19.2715Z" fill="#FCAF39"/>
<path d="M2.83008 22.5508H10.5566V23.8984H2.83008V22.5508Z" fill="#FCAF39"/>
<path d="M0.134766 22.5508H1.48242V23.8984H0.134766V22.5508Z" fill="#FCAF39"/>
<path d="M9.29883 31.2656C8.18414 31.2656 7.27734 32.1725 7.27734 33.2871C7.27734 34.4017 8.18414 35.3086 9.29883 35.3086C10.4135 35.3086 11.3203 34.4017 11.3203 33.2871C11.3203 32.1725 10.4135 31.2656 9.29883 31.2656ZM8.625 33.2871C8.625 32.3953 9.97266 32.3962 9.97266 33.2871C9.97266 33.6587 8.625 34.178 8.625 33.2871Z" fill="#FCAF39"/>
<path d="M34.5449 31.2656C33.4302 31.2656 32.5234 32.1725 32.5234 33.2871C32.5234 34.4017 33.4302 35.3086 34.5449 35.3086C35.6596 35.3086 36.5664 34.4017 36.5664 33.2871C36.5664 32.1725 35.6596 31.2656 34.5449 31.2656ZM34.5449 33.9609C33.6531 33.9609 33.654 32.6133 34.5449 32.6133C35.4367 32.6133 35.4358 33.9609 34.5449 33.9609Z" fill="#FCAF39"/>
<path d="M21.9219 9.38867H20.5742V14.2852H23.7637V12.9375H21.9219V9.38867Z" fill="#FCAF39"/>
</g>
<defs>
<clipPath id="clip0_1543_1238">
<rect width="46" height="46" fill="white"/>
</clipPath>
</defs>
</svg>
