<svg width="21" height="21" viewBox="0 0 21 21" fill="none" xmlns="http://www.w3.org/2000/svg">
<path d="M21 10.5C21 4.70039 16.2996 0 10.5 0C4.70039 0 0 4.70039 0 10.5C0 16.2996 4.70039 21 10.5 21C10.5615 21 10.623 21 10.6846 20.9959V12.8256H8.42871V10.1965H10.6846V8.26055C10.6846 6.01699 12.0545 4.79473 14.0561 4.79473C15.0158 4.79473 15.8402 4.86445 16.0781 4.89727V7.24336H14.7C13.6131 7.24336 13.3998 7.76016 13.3998 8.51894V10.1924H16.0043L15.6639 12.8215H13.3998V20.5939C17.7885 19.3348 21 15.2947 21 10.5Z" fill="white"/>
</svg>
