<svg width="21" height="21" viewBox="0 0 21 21" fill="none" xmlns="http://www.w3.org/2000/svg">
<path d="M15.3155 0H5.6845C2.55001 0 0 2.55001 0 5.6845V15.3156C0 18.4499 2.55001 21 5.6845 21H15.3156C18.4499 21 21 18.4499 21 15.3156V5.6845C21 2.55001 18.4499 0 15.3155 0V0ZM10.5 16.242C7.33377 16.242 4.75796 13.6662 4.75796 10.5C4.75796 7.33377 7.33377 4.75796 10.5 4.75796C13.6662 4.75796 16.242 7.33377 16.242 10.5C16.242 13.6662 13.6662 16.242 10.5 16.242V16.242ZM16.3793 6.11212C15.4436 6.11212 14.6826 5.35109 14.6826 4.41542C14.6826 3.47975 15.4436 2.71856 16.3793 2.71856C17.315 2.71856 18.0762 3.47975 18.0762 4.41542C18.0762 5.35109 17.315 6.11212 16.3793 6.11212Z" fill="#359D96"/>
<path d="M10.5002 5.98926C8.01296 5.98926 5.98926 8.0128 5.98926 10.5002C5.98926 12.9874 8.01296 15.0111 10.5002 15.0111C12.9875 15.0111 15.0111 12.9874 15.0111 10.5002C15.0111 8.0128 12.9875 5.98926 10.5002 5.98926Z" fill="#359D96"/>
<path d="M16.3797 3.94922C16.123 3.94922 15.9141 4.15814 15.9141 4.41481C15.9141 4.67148 16.123 4.8804 16.3797 4.8804C16.6365 4.8804 16.8454 4.67164 16.8454 4.41481C16.8454 4.15798 16.6365 3.94922 16.3797 3.94922Z" fill="#359D96"/>
</svg>
