<svg width="40" height="40" viewBox="0 0 40 40" fill="none" xmlns="http://www.w3.org/2000/svg">
<g clip-path="url(#clip0_1543_1259)">
<path d="M19.9993 7.28906C18.9039 7.28906 17.8496 7.61859 16.9505 8.24203C16.6847 8.42633 16.6175 8.79281 16.8004 9.06063C16.9834 9.32844 17.3471 9.39609 17.6129 9.21188C18.3163 8.72414 19.1415 8.46633 19.9993 8.46633C22.3238 8.46633 24.2149 10.3716 24.2149 12.7136C24.2149 15.0555 22.3238 16.9609 19.9993 16.9609C17.6748 16.9609 15.7837 15.0555 15.7837 12.7136C15.7837 12.0227 15.9429 11.3641 16.2569 10.7562C16.4058 10.4677 16.2945 10.1123 16.0083 9.96234C15.722 9.81242 15.3694 9.92438 15.2204 10.2128C14.8245 10.9794 14.6152 11.8441 14.6152 12.7136C14.6153 15.7048 17.0305 18.1382 19.9993 18.1382C22.9681 18.1382 25.3833 15.7048 25.3833 12.7136C25.3833 9.7225 22.9681 7.28906 19.9993 7.28906Z" fill="#FCAF39"/>
<path d="M39.9561 39.1852L34.1902 25.227C34.0995 25.0076 33.8868 24.8646 33.6509 24.8646H27.905C29.0226 23.3413 29.9528 21.8241 30.6793 20.3343C31.9668 17.6941 32.6195 15.1302 32.6195 12.7134C32.6195 5.7032 26.9588 0 20.0009 0C13.043 0 7.38242 5.7032 7.38242 12.7134C7.38242 15.1301 8.03516 17.6941 9.32266 20.3342C10.0491 21.824 10.9793 23.3413 12.097 24.8645H6.35109C6.11516 24.8645 5.90234 25.0076 5.8118 25.227L1.88273 34.7384C1.75875 35.0385 1.89969 35.383 2.19758 35.5079C2.27101 35.5387 2.34695 35.5533 2.4218 35.5533C2.6507 35.5533 2.86797 35.4169 2.96133 35.1907L3.52195 33.8335H7.49898L5.43805 38.8227H1.46109L2.05851 37.3764C2.1825 37.0762 2.04156 36.7317 1.74367 36.6069C1.44562 36.4818 1.10375 36.624 0.979842 36.9241L0.0458579 39.1852C-0.0292203 39.3669 -0.00922027 39.5744 0.0992173 39.738C0.207499 39.9016 0.389842 40 0.585155 40H39.4167C39.612 40 39.7944 39.9016 39.9027 39.738C40.0111 39.5744 40.0312 39.3669 39.9561 39.1852ZM8.55086 12.7134C8.55086 6.35227 13.6873 1.17719 20.0009 1.17719C26.3145 1.17719 31.451 6.35234 31.451 12.7134C31.451 15.3808 30.5311 19.6433 26.2756 25.0752C26.2713 25.0802 26.2675 25.0856 26.2634 25.0909C26.0461 25.368 25.8203 25.648 25.5852 25.9313C23.2468 28.7486 20.8804 30.8059 20.0009 31.5368C19.1239 30.8084 16.7687 28.7614 14.4319 25.9495C14.1909 25.6595 13.9598 25.3729 13.7374 25.0893C13.7338 25.0848 13.7305 25.0801 13.7267 25.0756C9.47141 19.6441 8.55086 15.3818 8.55086 12.7134ZM6.7407 26.0418H10.7178L9.26719 29.5534H5.29016L6.7407 26.0418ZM10.157 38.8228L13.8086 29.9831L24.2003 38.8228H10.157ZM26.0115 38.8228L13.9527 28.565C13.8104 28.4438 13.6191 28.3984 13.4384 28.4427C13.2574 28.4868 13.108 28.6153 13.0366 28.7885L8.89149 38.8227H6.70367L8.9143 33.471C8.98938 33.2894 8.96938 33.082 8.86094 32.9183C8.75266 32.7546 8.57024 32.6562 8.37492 32.6562H4.00844L4.80391 30.7305H9.65688C9.89281 30.7305 10.1056 30.5874 10.1962 30.368L11.9834 26.0417H12.9973C13.1733 26.2628 13.3522 26.484 13.5359 26.7051C16.5503 30.3324 19.5185 32.6613 19.6434 32.7587C19.7488 32.8408 19.8748 32.8817 20.0009 32.8817C20.127 32.8817 20.2532 32.8407 20.3584 32.7587C20.4271 32.7052 21.3551 31.9767 22.6766 30.7305H29.2924C29.615 30.7305 29.8766 30.467 29.8766 30.142C29.8766 29.8169 29.615 29.5534 29.2924 29.5534H23.8807C24.6907 28.7328 25.576 27.7761 26.4661 26.7052C26.6498 26.4841 26.8288 26.263 27.0047 26.0418H33.2612L34.7117 29.5534H31.6291C31.3065 29.5534 31.0449 29.8169 31.0449 30.142C31.0449 30.467 31.3064 30.7305 31.6291 30.7305H35.198L35.9934 32.6563H23.9567C23.7129 32.6563 23.4948 32.8088 23.4094 33.039C23.3241 33.2691 23.3896 33.5284 23.5738 33.6895L29.4435 38.8228H26.0115ZM31.226 38.8228L25.521 33.8336H36.4799L38.5409 38.8228H31.226Z" fill="#FCAF39"/>
</g>
<defs>
<clipPath id="clip0_1543_1259">
<rect width="40" height="40" fill="white"/>
</clipPath>
</defs>
</svg>
