<svg width="24" height="24" viewBox="0 0 24 24" fill="none" xmlns="http://www.w3.org/2000/svg">
<path d="M17.0008 18.4305H13.0008L8.55077 21.3905C8.40037 21.4895 8.22601 21.5461 8.04611 21.5543C7.86621 21.5624 7.68745 21.5219 7.52869 21.4369C7.36993 21.3519 7.23708 21.2255 7.14416 21.0713C7.05124 20.917 7.0017 20.7405 7.00077 20.5605V18.4305C6.33366 18.4707 5.6656 18.369 5.04073 18.1319C4.41586 17.8949 3.84839 17.528 3.37582 17.0554C2.90324 16.5828 2.53632 16.0154 2.29929 15.3905C2.06225 14.7656 1.96051 14.0976 2.00077 13.4305V7.43045C1.96051 6.76335 2.06225 6.09529 2.29929 5.47042C2.53632 4.84554 2.90324 4.27808 3.37582 3.8055C3.84839 3.33293 4.41586 2.96601 5.04073 2.72897C5.6656 2.49194 6.33366 2.39019 7.00077 2.43045H17.0008C17.6679 2.39019 18.3359 2.49194 18.9608 2.72897C19.5857 2.96601 20.1531 3.33293 20.6257 3.8055C21.0983 4.27808 21.4652 4.84554 21.7022 5.47042C21.9393 6.09529 22.041 6.76335 22.0008 7.43045V13.4305C22.041 14.0976 21.9393 14.7656 21.7022 15.3905C21.4652 16.0154 21.0983 16.5828 20.6257 17.0554C20.1531 17.528 19.5857 17.8949 18.9608 18.1319C18.3359 18.369 17.6679 18.4707 17.0008 18.4305V18.4305Z" stroke="#359D96" stroke-width="1.5" stroke-linecap="round" stroke-linejoin="round"/>
<path d="M11.9998 11.3604V11.1504C12.0102 10.8743 12.0933 10.6059 12.2409 10.3723C12.3884 10.1387 12.595 9.94832 12.8398 9.82035C13.0789 9.69502 13.2806 9.50881 13.4245 9.28054C13.5685 9.05228 13.6497 8.79004 13.6598 8.52035C13.6598 8.08009 13.485 7.65786 13.1736 7.34655C12.8623 7.03524 12.4401 6.86035 11.9998 6.86035C11.5596 6.86035 11.1374 7.03524 10.826 7.34655C10.5147 7.65786 10.3398 8.08009 10.3398 8.52035" stroke="#359D96" stroke-width="1.5" stroke-linecap="round" stroke-linejoin="round"/>
</svg>
