<svg width="13" height="13" viewBox="0 0 13 13" fill="none" xmlns="http://www.w3.org/2000/svg">
<path d="M12.9661 4.98661C12.881 4.72337 12.6475 4.53641 12.3713 4.51151L8.61915 4.17082L7.13544 0.698062C7.02604 0.443554 6.77689 0.278809 6.50007 0.278809C6.22324 0.278809 5.97409 0.443554 5.86469 0.698657L4.38099 4.17082L0.628234 4.51151C0.352501 4.537 0.119615 4.72337 0.0340187 4.98661C-0.0515777 5.24985 0.0274725 5.53857 0.236058 5.72058L3.07224 8.20793L2.23592 11.8919C2.17472 12.1628 2.27986 12.4428 2.50461 12.6053C2.62542 12.6926 2.76675 12.737 2.90928 12.737C3.03217 12.737 3.15407 12.7039 3.26347 12.6384L6.50007 10.704L9.73547 12.6384C9.97222 12.7808 10.2707 12.7678 10.4949 12.6053C10.7198 12.4423 10.8248 12.1622 10.7636 11.8919L9.92729 8.20793L12.7635 5.72107C12.9721 5.53857 13.0517 5.25034 12.9661 4.98661Z" fill="#FCAF39"/>
</svg>
