<svg width="40" height="40" viewBox="0 0 40 40" fill="none" xmlns="http://www.w3.org/2000/svg">
<path d="M39.6911 35.548L39.1205 34.9773C38.8916 34.7484 38.5206 34.7484 38.2919 34.9772C38.063 35.206 38.063 35.577 38.2918 35.8058L38.7795 36.2936L36.2938 38.7795L32.0677 34.5534L34.5535 32.0676L36.5251 34.0391C36.754 34.2679 37.1249 34.2679 37.3537 34.0391C37.5826 33.8102 37.5826 33.4393 37.3537 33.2105L34.9689 30.8257C34.9685 30.8253 34.9682 30.8249 34.9679 30.8245L33.3106 29.1673C33.3102 29.1668 33.3097 29.1665 33.3092 29.166L31.8466 27.7034C31.6474 27.5041 31.3826 27.3944 31.1008 27.3944C30.819 27.3944 30.5541 27.5041 30.355 27.7033L30.2721 27.7863L28.1755 25.6891C29.6741 23.8167 30.7564 21.5979 31.2817 19.1736H35.4102C35.7339 19.1736 35.9962 18.9113 35.9962 18.5877C35.9962 18.264 35.7339 18.0017 35.4102 18.0017H31.4895C31.5411 17.6291 31.5797 17.2523 31.6048 16.872H38.2031C38.5268 16.872 38.7891 16.6097 38.7891 16.286C38.7891 15.9623 38.5268 15.7001 38.2031 15.7001H31.6394C31.6366 15.3209 31.6209 14.9442 31.5921 14.5702H35.4103C35.734 14.5702 35.9963 14.308 35.9963 13.9843C35.9963 13.6606 35.734 13.3984 35.4103 13.3984H31.4583C31.0489 10.7047 29.9541 8.185 28.2314 6.00859C28.0305 5.75492 27.6621 5.71211 27.4083 5.91281C27.1546 6.11367 27.1117 6.48219 27.3125 6.73594C29.3773 9.34445 30.4688 12.4858 30.4688 15.8203C30.4688 23.8975 23.8975 30.4688 15.8203 30.4688C7.74312 30.4688 1.17188 23.8975 1.17188 15.8203C1.17188 7.74312 7.74312 1.17188 15.8203 1.17188C19.4717 1.17188 22.9696 2.52328 25.6695 4.97711C25.9088 5.19492 26.2796 5.17711 26.4971 4.93766C26.7148 4.6982 26.6971 4.32758 26.4576 4.10992C23.5416 1.45961 19.7639 0 15.8203 0C7.09695 0 0 7.09695 0 15.8203C0 23.522 5.53234 29.9548 12.8315 31.3562V35.3092C12.8315 35.6329 13.0938 35.8952 13.4174 35.8952C13.7411 35.8952 14.0034 35.6329 14.0034 35.3092V31.5357C14.3762 31.5785 14.753 31.6085 15.1332 31.6248V38.0647C15.1332 38.3884 15.3955 38.6506 15.7191 38.6506C16.0428 38.6506 16.3051 38.3884 16.3051 38.0647V31.6325C16.6851 31.621 17.062 31.5968 17.4349 31.5588V35.3092C17.4349 35.6329 17.6972 35.8952 18.0209 35.8952C18.3445 35.8952 18.6068 35.6329 18.6068 35.3092V31.3948C21.2523 30.9228 23.6716 29.7903 25.6891 28.1755L27.7863 30.2722L27.7035 30.355C27.5042 30.5542 27.3945 30.8191 27.3945 31.1009C27.3945 31.3827 27.5042 31.6475 27.7034 31.8466L29.1665 33.3097C29.1668 33.31 29.167 33.3103 29.1673 33.3106L30.8246 34.9679C30.8249 34.9682 30.8254 34.9685 30.8257 34.9689L35.5478 39.6909C35.747 39.8903 36.0119 40 36.2937 40C36.5755 40 36.8402 39.8903 37.0395 39.6911L39.6911 37.0395C39.8903 36.8402 40 36.5755 40 36.2937C40 36.0119 39.8903 35.747 39.6911 35.548ZM27.4079 26.5788L29.4434 28.6147L28.6148 29.4433L26.5788 27.4078C26.8652 27.1418 27.1418 26.8652 27.4079 26.5788ZM31.239 33.7248L30.4103 32.8962L32.8962 30.4104L33.7248 31.2391L31.239 33.7248ZM31.1009 28.6149L32.0676 29.5816L29.5817 32.0675L28.615 31.1008L31.1009 28.6149Z" fill="#FCAF39"/>
<path d="M7.6604 26.5462C10.0072 28.3102 12.8264 29.2614 15.8201 29.2969C23.2511 29.2969 29.2966 23.2513 29.2966 15.8203C29.2966 8.3893 23.2511 2.34375 15.8201 2.34375C12.2339 2.34375 8.86087 3.74742 6.32251 6.29617C3.79485 8.83406 2.3818 12.2143 2.34352 15.8141C2.30837 19.128 3.51251 22.3134 5.73407 24.7832C5.95048 25.0238 6.32094 25.0434 6.56157 24.827C6.80219 24.6106 6.8218 24.2401 6.6054 23.9995C4.58071 21.7486 3.48329 18.846 3.5154 15.8266C3.55032 12.5341 4.84212 9.4432 7.15282 7.1232C9.46969 4.7968 12.5477 3.51562 15.8201 3.51562C22.6049 3.51562 28.1248 9.03547 28.1248 15.8203C28.1248 22.6052 22.6049 28.125 15.827 28.1251C13.0912 28.0926 10.5107 27.2227 8.36446 25.6095C8.10594 25.4149 7.73844 25.4672 7.54407 25.7259C7.34954 25.9845 7.40165 26.3519 7.6604 26.5462Z" fill="#FCAF39"/>
<g clip-path="url(#clip0_1543_1269)">
<path d="M23.7657 23.19H23.6405C23.545 22.9149 23.356 22.3037 23.356 21.7732C23.356 21.2427 23.545 20.6314 23.6405 20.3564H23.7657C23.8951 20.3564 24 20.2515 24 20.1221C24 19.9928 23.8951 19.8878 23.7657 19.8878H21.9978C22.1272 19.8878 22.2321 19.7829 22.2321 19.6536C22.2321 19.5242 22.1272 19.4193 21.9978 19.4193H21.9724C21.7413 19.1734 21.5459 18.8979 21.3916 18.5985C21.3323 18.4835 21.191 18.4383 21.076 18.4976C20.961 18.5568 20.9158 18.6981 20.9751 18.8132C21.085 19.0266 21.2139 19.2289 21.3591 19.4193H10.507C9.86625 19.4193 9.345 18.898 9.345 18.2573V15.6367C9.345 14.996 9.86625 14.4748 10.507 14.4748H17.37V15.3209C17.37 15.46 17.4541 15.5815 17.5843 15.6305C17.6752 15.6697 17.8413 15.6553 17.9495 15.5393L18.2052 15.2483L18.4609 15.5393C18.5527 15.6438 18.6962 15.6796 18.8262 15.6305C18.9563 15.5815 19.0405 15.4599 19.0405 15.3209V14.4748H21.3581C20.8173 15.182 20.5242 16.0425 20.5242 16.947C20.5242 17.1869 20.5452 17.4275 20.5866 17.6619C20.6067 17.7756 20.7056 17.8555 20.8171 17.8555C20.8306 17.8555 20.8443 17.8543 20.8582 17.8518C20.9856 17.8293 21.0706 17.7078 21.0481 17.5803C21.0113 17.3728 20.9927 17.1597 20.9927 16.947C20.9927 16.021 21.3397 15.1469 21.9718 14.4748H21.9978C22.1272 14.4748 22.2321 14.3698 22.2321 14.2405C22.2321 14.1111 22.1272 14.0062 21.9978 14.0062H23.6854C23.8148 14.0062 23.9197 13.9013 23.9197 13.7719C23.9197 13.6425 23.8148 13.5376 23.6854 13.5376H23.5875C23.4999 13.2832 23.3357 12.7437 23.3357 12.2748C23.3357 11.8058 23.4999 11.2663 23.5875 11.0119H23.6854C23.8148 11.0119 23.9197 10.907 23.9197 10.7776C23.9197 10.6483 23.8148 10.5433 23.6854 10.5433H23.4194C23.4191 10.5433 23.4188 10.5433 23.4185 10.5433H21.9664C22.0618 10.5433 22.1476 10.4856 22.1835 10.3972C22.2194 10.3088 22.1981 10.2076 22.1298 10.1411C21.9393 9.95585 21.8343 9.70775 21.8343 9.4426C21.8343 9.17744 21.9392 8.92935 22.1298 8.7441C22.2657 8.61938 22.1909 8.33744 21.9664 8.34185H11.3962C11.2668 8.34185 11.1619 8.44675 11.1619 8.57613C11.1619 8.7055 11.2668 8.81041 11.3962 8.81041H21.5109C21.416 9.00469 21.3658 9.2195 21.3658 9.44257C21.3658 9.66563 21.4158 9.88047 21.5107 10.0747H9.11175C8.76316 10.0747 8.47959 9.79113 8.47959 9.44257C8.47959 9.094 8.76319 8.81041 9.11175 8.81041H10.2053C10.3347 8.81041 10.4395 8.7055 10.4395 8.57613C10.4395 8.44675 10.3346 8.34185 10.2053 8.34185H9.11175C8.50478 8.34185 8.011 8.83563 8.011 9.4426C8.011 10.0496 8.50478 10.5433 9.11175 10.5433H11.2974C10.3427 10.5433 9.56597 11.3201 9.56597 12.2748C9.56597 13.2295 10.3427 14.0062 11.2974 14.0062H10.507C9.60787 14.0062 8.87644 14.7377 8.87644 15.6368V18.2573C8.87644 19.1564 9.60787 19.8878 10.507 19.8878H9.88538C8.84578 19.8878 8 20.7336 8 21.7732C8 22.8128 8.84578 23.6586 9.88538 23.6586H19.7428C19.8722 23.6586 19.9771 23.5537 19.9771 23.4243C19.9771 23.2949 19.8722 23.19 19.7428 23.19H9.88538C9.10416 23.19 8.46859 22.5544 8.46859 21.7732C8.46859 20.992 9.10416 20.3564 9.88538 20.3564H23.1461C23.0366 20.6977 22.8874 21.2572 22.8874 21.7732C22.8874 22.2892 23.0366 22.8488 23.1461 23.19H20.9435C20.8141 23.19 20.7092 23.2949 20.7092 23.4243C20.7092 23.5537 20.8141 23.6586 20.9435 23.6586H23.7657C23.8951 23.6586 24 23.5537 24 23.4243C24 23.2949 23.8951 23.19 23.7657 23.19ZM18.4279 14.7919C18.3716 14.7278 18.2905 14.6912 18.2052 14.6912C18.12 14.6912 18.0389 14.7278 17.9826 14.7919L17.8386 14.9557V12.1205H18.5719V14.9557L18.4279 14.7919ZM10.0346 12.2748C10.0346 11.5784 10.6011 11.0119 11.2974 11.0119H23.0937C22.9949 11.3249 22.8671 11.8184 22.8671 12.2748C22.8671 12.7311 22.9949 13.2246 23.0937 13.5376H19.0404V12.1205H21.1637C21.2931 12.1205 21.3979 12.0156 21.3979 11.8863C21.3979 11.7569 21.2931 11.652 21.1637 11.652H17.2896C17.1602 11.652 17.0553 11.7569 17.0553 11.8863C17.0553 12.0156 17.1602 12.1205 17.2896 12.1205H17.37V13.5376H11.2974C10.6011 13.5376 10.0346 12.9711 10.0346 12.2748Z" fill="#FCAF39"/>
<path d="M14.8915 17.0711H20.0413C20.1707 17.0711 20.2756 16.9662 20.2756 16.8368C20.2756 16.7074 20.1707 16.6025 20.0413 16.6025H14.8915C14.7621 16.6025 14.6572 16.7074 14.6572 16.8368C14.6572 16.9662 14.7621 17.0711 14.8915 17.0711Z" fill="#FCAF39"/>
<path d="M17.2899 21.8516C17.1605 21.8516 17.0557 21.9565 17.0557 22.0858C17.0557 22.2152 17.1605 22.3201 17.2899 22.3201H18.3425C18.4719 22.3201 18.5768 22.2152 18.5768 22.0858C18.5768 21.9565 18.4719 21.8516 18.3425 21.8516H17.2899Z" fill="#FCAF39"/>
<path d="M12.2831 21.8516C12.1537 21.8516 12.0488 21.9565 12.0488 22.0858C12.0488 22.2152 12.1537 22.3201 12.2831 22.3201H16.2638C16.3932 22.3201 16.4981 22.2152 16.4981 22.0858C16.4981 21.9565 16.3932 21.8516 16.2638 21.8516H12.2831Z" fill="#FCAF39"/>
<path d="M15.7099 12.1209H16.312C16.4414 12.1209 16.5462 12.016 16.5462 11.8866C16.5462 11.7573 16.4414 11.6523 16.312 11.6523H15.7099C15.5805 11.6523 15.4756 11.7573 15.4756 11.8866C15.4756 12.016 15.5805 12.1209 15.7099 12.1209Z" fill="#FCAF39"/>
<path d="M11.5706 18.5411C11.6916 18.6025 11.8348 18.5909 11.9443 18.5108L12.6835 17.9702L13.4227 18.5108C13.6032 18.6659 13.9956 18.535 13.9926 18.2215V16.1219H14.6816C14.811 16.1219 14.9158 16.017 14.9158 15.8876C14.9158 15.7582 14.8109 15.6533 14.6816 15.6533H10.8075C10.6781 15.6533 10.5732 15.7582 10.5732 15.8876C10.5732 16.017 10.6781 16.1219 10.8075 16.1219H11.3744V18.2215C11.3744 18.3571 11.4496 18.4796 11.5706 18.5411ZM13.5241 18.0043L12.8219 17.4907C12.7807 17.4606 12.7321 17.4456 12.6836 17.4456C12.635 17.4456 12.5864 17.4606 12.5452 17.4907L11.843 18.0043V16.1218H13.5241V18.0043H13.5241Z" fill="#FCAF39"/>
</g>
<defs>
<clipPath id="clip0_1543_1269">
<rect width="16" height="16" fill="white" transform="translate(8 8)"/>
</clipPath>
</defs>
</svg>
