<svg width="21" height="18" viewBox="0 0 21 18" fill="none" xmlns="http://www.w3.org/2000/svg">
<path d="M21 2.01994C20.2191 2.3625 19.3869 2.58956 18.5194 2.69981C19.4119 2.16694 20.0931 1.32956 20.4133 0.32025C19.5812 0.816375 18.6624 1.16681 17.6833 1.36238C16.8932 0.521063 15.7671 0 14.5386 0C12.1551 0 10.2362 1.93463 10.2362 4.30631C10.2362 4.64756 10.2651 4.97569 10.3359 5.28806C6.75675 5.1135 3.58969 3.39806 1.46212 0.784875C1.09069 1.42931 0.872813 2.16694 0.872813 2.961C0.872813 4.452 1.64062 5.77369 2.78513 6.53887C2.09344 6.52575 1.41488 6.32494 0.84 6.00863C0.84 6.02175 0.84 6.03881 0.84 6.05587C0.84 8.148 2.33231 9.88575 4.28925 10.2861C3.93881 10.3819 3.55687 10.4278 3.1605 10.4278C2.88488 10.4278 2.60662 10.4121 2.34544 10.3543C2.90325 12.0592 4.48613 13.3127 6.36825 13.3534C4.9035 14.4992 3.04369 15.1896 1.03031 15.1896C0.67725 15.1896 0.338625 15.1738 0 15.1305C1.90706 16.3603 4.16719 17.0625 6.6045 17.0625C14.5267 17.0625 18.858 10.5 18.858 4.81163C18.858 4.62131 18.8514 4.43756 18.8423 4.25513C19.6967 3.64875 20.4146 2.89144 21 2.01994Z" fill="white"/>
</svg>
