<svg width="37" height="37" viewBox="0 0 37 37" fill="none" xmlns="http://www.w3.org/2000/svg">
<g clip-path="url(#clip0_1543_1252)">
<path d="M25.7973 11.3662C25.6631 11.3663 25.5345 11.4196 25.4397 11.5145L16.6296 20.3245L11.5595 15.2541C11.4629 15.1627 11.3349 15.1118 11.2019 15.1118C11.0689 15.1118 10.941 15.1627 10.8443 15.2541L8.80038 17.2984C8.70559 17.3932 8.65234 17.5218 8.65234 17.6559C8.65234 17.79 8.70559 17.9186 8.80038 18.0135L16.2729 25.4855C16.3199 25.5325 16.3756 25.5698 16.437 25.5952C16.4983 25.6206 16.5641 25.6337 16.6305 25.6337C16.6969 25.6337 16.7627 25.6206 16.8241 25.5952C16.8854 25.5698 16.9411 25.5325 16.9881 25.4855L28.1988 14.2739C28.2936 14.179 28.3468 14.0503 28.3468 13.9162C28.3468 13.782 28.2936 13.6534 28.1988 13.5585L26.1548 11.5145C26.06 11.4196 25.9314 11.3663 25.7973 11.3662V11.3662ZM16.6296 24.4125L9.87338 17.6559L11.2031 16.3262L16.2729 21.3973C16.3199 21.4443 16.3756 21.4816 16.437 21.507C16.4983 21.5324 16.5641 21.5455 16.6305 21.5455C16.6969 21.5455 16.7627 21.5324 16.8241 21.507C16.8854 21.4816 16.9411 21.4443 16.9881 21.3973L25.7973 12.5875L27.1269 13.9172L16.6296 24.4125Z" fill="#FCAF39"/>
<path d="M18.4997 4.7207C15.7745 4.7207 13.1105 5.52883 10.8445 7.04289C8.57857 8.55695 6.81248 10.7089 5.76958 13.2267C4.72667 15.7445 4.4538 18.515 4.98547 21.1879C5.51714 23.8608 6.82946 26.3159 8.75649 28.243C10.6835 30.17 13.1387 31.4823 15.8116 32.014C18.4845 32.5457 21.255 32.2728 23.7727 31.2299C26.2905 30.187 28.4425 28.4209 29.9566 26.155C31.4706 23.889 32.2788 21.225 32.2788 18.4997C32.2746 14.8466 30.8216 11.3442 28.2384 8.76105C25.6553 6.17788 22.1529 4.72483 18.4997 4.7207V4.7207ZM18.4997 31.267C15.9746 31.267 13.5062 30.5183 11.4066 29.1154C9.30703 27.7125 7.67061 25.7185 6.70428 23.3856C5.73795 21.0527 5.48512 18.4856 5.97775 16.009C6.47038 13.5323 7.68635 11.2574 9.47189 9.47188C11.2574 7.68634 13.5323 6.47037 16.009 5.97774C18.4856 5.48511 21.0527 5.73795 23.3856 6.70428C25.7185 7.6706 27.7125 9.30702 29.1154 11.4066C30.5183 13.5062 31.2671 15.9746 31.2671 18.4997C31.2632 21.8847 29.9169 25.1299 27.5234 27.5234C25.1299 29.9169 21.8847 31.2632 18.4997 31.267V31.267Z" fill="#FCAF39"/>
<path d="M36.4291 20.1217C36.8006 19.6625 37.0032 19.0898 37.0032 18.4992C37.0032 17.9086 36.8006 17.3359 36.4291 16.8767L35.6001 15.8418C35.4412 15.6432 35.3324 15.4093 35.283 15.1598C35.2335 14.9103 35.2448 14.6526 35.316 14.4084L35.686 13.1391C35.8484 12.5716 35.8138 11.9657 35.5878 11.4203C35.3617 10.8749 34.9576 10.4222 34.4413 10.136L33.283 9.5001C33.0599 9.37791 32.8694 9.2038 32.7278 8.99249C32.5862 8.78117 32.4975 8.53886 32.4693 8.28604L32.3247 6.96936C32.2629 6.38172 32.0012 5.83312 31.5834 5.4153C31.1655 4.99748 30.6169 4.73576 30.0293 4.67392L28.7126 4.52939C28.4598 4.50127 28.2175 4.41266 28.0062 4.27107C27.7948 4.12949 27.6207 3.93908 27.4985 3.71597L26.8626 2.5574C26.5808 2.03683 26.1285 1.62901 25.5817 1.40238C25.0348 1.17574 24.4267 1.14408 23.8593 1.3127L22.5903 1.68241C22.3459 1.75341 22.0881 1.76463 21.8385 1.71513C21.589 1.66563 21.355 1.55685 21.1562 1.39798L20.1214 0.568944C19.6621 0.197661 19.0894 -0.00488281 18.4989 -0.00488281C17.9083 -0.00488281 17.3356 0.197661 16.8764 0.568944L15.8415 1.39798C15.6427 1.55652 15.4088 1.66507 15.1594 1.71451C14.9099 1.76395 14.6523 1.75284 14.4081 1.68212L13.1388 1.31212C12.5712 1.14953 11.9653 1.18408 11.4199 1.41014C10.8745 1.63619 10.4218 2.0404 10.1357 2.55683L9.49978 3.7151C9.37759 3.93822 9.20348 4.12865 8.99216 4.27028C8.78084 4.41191 8.53854 4.50059 8.28572 4.52881L6.96904 4.67334C6.38139 4.73518 5.83279 4.9969 5.41497 5.41472C4.99715 5.83254 4.73543 6.38114 4.67359 6.96879L4.52906 8.28546C4.50094 8.53828 4.41233 8.7806 4.27075 8.99192C4.12916 9.20325 3.93875 9.37736 3.71564 9.49953L2.55708 10.1355C2.03661 10.4174 1.6289 10.8697 1.40228 11.4165C1.17566 11.9633 1.14392 12.5714 1.31237 13.1388L1.68266 14.4075C1.75366 14.6518 1.76488 14.9097 1.71538 15.1592C1.66588 15.4088 1.5571 15.6428 1.39822 15.8416L0.569193 16.8764C0.197758 17.3356 -0.00488281 17.9083 -0.00488281 18.4989C-0.00488281 19.0895 0.197758 19.6622 0.569193 20.1214L1.39822 21.1563C1.55713 21.3549 1.66591 21.5888 1.71537 21.8383C1.76482 22.0878 1.75351 22.3455 1.68237 22.5897L1.31237 23.859C1.14977 24.4265 1.18424 25.0324 1.41018 25.5778C1.63612 26.1233 2.04019 26.576 2.5565 26.8623L3.71477 27.4983C3.93789 27.6205 4.12832 27.7946 4.26995 28.0059C4.41158 28.2172 4.50026 28.4595 4.52848 28.7123L4.67301 30.029C4.73486 30.6167 4.99657 31.1653 5.41439 31.5831C5.83221 32.0009 6.38081 32.2626 6.96846 32.3245L8.28514 32.469C8.53795 32.4971 8.78027 32.5857 8.9916 32.7273C9.20292 32.8689 9.37703 33.0593 9.4992 33.2824L10.1351 34.441C10.4169 34.9616 10.8692 35.3694 11.4161 35.596C11.9629 35.8226 12.5711 35.8543 13.1385 35.6857L14.4072 35.3154C14.6515 35.2446 14.9093 35.2335 15.1588 35.283C15.4084 35.3325 15.6424 35.4411 15.8412 35.5998L16.8761 36.4289C17.3353 36.8003 17.908 37.0029 18.4986 37.0029C19.0892 37.0029 19.6619 36.8003 20.1211 36.4289L21.1559 35.5998C21.3546 35.441 21.5885 35.3323 21.838 35.2828C22.0875 35.2333 22.3452 35.2446 22.5894 35.3157L23.8587 35.6857C24.4261 35.8541 25.0341 35.8224 25.5809 35.5957C26.1276 35.3691 26.5799 34.9614 26.8617 34.441L27.4977 33.2827C27.6199 33.0596 27.794 32.8692 28.0053 32.7275C28.2166 32.5859 28.4589 32.4972 28.7117 32.469L30.0284 32.3245C30.6161 32.2626 31.1647 32.0009 31.5825 31.5831C32.0003 31.1653 32.262 30.6167 32.3239 30.029L32.4684 28.7123C32.4965 28.4595 32.5851 28.2172 32.7267 28.0059C32.8683 27.7946 33.0587 27.6205 33.2818 27.4983L34.4404 26.8623C34.9608 26.5804 35.3686 26.1281 35.5952 25.5813C35.8218 25.0345 35.8535 24.4264 35.6851 23.859L35.3148 22.5903C35.2438 22.346 35.2326 22.0882 35.2821 21.8386C35.3316 21.589 35.4404 21.355 35.5992 21.1563L36.4291 20.1217ZM34.8104 20.5244C34.55 20.8499 34.3718 21.2333 34.2907 21.6422C34.2096 22.0512 34.228 22.4736 34.3444 22.8739L34.715 24.1426C34.8177 24.4888 34.7983 24.8598 34.66 25.1934C34.5217 25.527 34.2729 25.8029 33.9553 25.9749L32.7965 26.6109C32.4306 26.8114 32.1185 27.0971 31.8866 27.4438C31.6546 27.7906 31.5096 28.1881 31.4639 28.6028L31.3194 29.9195C31.2814 30.278 31.1216 30.6127 30.8667 30.8676C30.6118 31.1225 30.2771 31.2823 29.9186 31.3203L28.6016 31.4648C28.187 31.5107 27.7895 31.6558 27.4428 31.8878C27.0962 32.1198 26.8105 32.4319 26.61 32.7977L25.974 33.9562C25.8019 34.2736 25.526 34.5223 25.1925 34.6605C24.859 34.7988 24.4881 34.8184 24.142 34.7159L22.873 34.3456C22.4728 34.229 22.0504 34.2104 21.6415 34.2915C21.2326 34.3725 20.8492 34.5508 20.5238 34.8113L19.4889 35.6403C19.2087 35.8671 18.8591 35.9908 18.4986 35.9908C18.1381 35.9908 17.7885 35.8671 17.5083 35.6403L16.4734 34.8113C16.1479 34.5509 15.7645 34.3726 15.3555 34.2915C14.9466 34.2104 14.5242 34.2288 14.1239 34.3453L12.8555 34.7156C12.5093 34.818 12.1384 34.7984 11.8048 34.6601C11.4713 34.5219 11.1954 34.2733 11.0231 33.9559L10.3872 32.7971C10.1867 32.4312 9.90097 32.1191 9.55423 31.8872C9.20748 31.6552 8.80994 31.5102 8.39527 31.4645L7.07859 31.32C6.72006 31.282 6.3854 31.1222 6.13046 30.8673C5.87553 30.6124 5.71575 30.2777 5.67779 29.9192L5.53326 28.6022C5.48739 28.1876 5.34231 27.7901 5.1103 27.4435C4.8783 27.0968 4.56619 26.8111 4.2004 26.6106L3.04183 25.9746C2.72682 25.8 2.48026 25.5239 2.34236 25.1911C2.20445 24.8584 2.18334 24.4888 2.28247 24.1426L2.65276 22.8736C2.76928 22.4734 2.78779 22.051 2.70674 21.6421C2.62569 21.2332 2.44745 20.8499 2.18708 20.5244L1.35747 19.4895C1.13078 19.2092 1.00711 18.8597 1.00711 18.4992C1.00711 18.1387 1.13078 17.7891 1.35747 17.5089L2.1865 16.474C2.44686 16.1485 2.62511 15.7651 2.70621 15.3561C2.78731 14.9472 2.76888 14.5248 2.65247 14.1245L2.28247 12.8558C2.17974 12.5096 2.19916 12.1386 2.33747 11.805C2.47578 11.4714 2.72456 11.1954 3.04212 11.0235L4.20097 10.3875C4.56681 10.187 4.87894 9.9013 5.1109 9.55455C5.34287 9.20781 5.48785 8.81027 5.53355 8.3956L5.67808 7.07892C5.71631 6.72024 5.87646 6.38553 6.13179 6.13073C6.38711 5.87593 6.72214 5.71647 7.0809 5.67899L8.39787 5.53446C8.81249 5.48858 9.20996 5.3435 9.55663 5.1115C9.90331 4.87949 10.189 4.56738 10.3895 4.20159L11.0255 3.04303C11.2 2.72843 11.4758 2.48211 11.808 2.34409C12.1403 2.20607 12.5094 2.18447 12.8555 2.2828L14.1245 2.65308C14.5247 2.76965 14.9471 2.7882 15.356 2.70714C15.7649 2.62609 16.1482 2.44783 16.4737 2.1874L17.5085 1.3578C17.7888 1.13106 18.1384 1.00735 18.4989 1.00735C18.8594 1.00735 19.2089 1.13106 19.4892 1.3578L20.524 2.18683C20.8497 2.44704 21.2331 2.6252 21.642 2.70629C22.0509 2.78738 22.4732 2.76903 22.8735 2.6528L24.1422 2.2828C24.4885 2.18046 24.8594 2.20007 25.1929 2.33834C25.5264 2.4766 25.8023 2.72516 25.9746 3.04245L26.6105 4.2013C26.8111 4.56714 27.0968 4.87926 27.4435 5.11123C27.7903 5.3432 28.1878 5.48817 28.6025 5.53388L29.9192 5.67841C30.2777 5.71636 30.6124 5.87614 30.8673 6.13108C31.1222 6.38601 31.282 6.72068 31.32 7.07921L31.4645 8.39618C31.5104 8.81079 31.6554 9.20826 31.8874 9.55493C32.1195 9.90161 32.4316 10.1873 32.7974 10.3878L33.9559 11.0238C34.2709 11.1983 34.5175 11.4745 34.6555 11.8072C34.7934 12.1399 34.8146 12.5095 34.7156 12.8558L34.3453 14.1248C34.2288 14.525 34.2102 14.9474 34.2913 15.3563C34.3723 15.7652 34.5506 16.1485 34.811 16.474L35.64 17.5089C35.8667 17.7891 35.9904 18.1387 35.9904 18.4992C35.9904 18.8597 35.8667 19.2092 35.64 19.4895L34.8104 20.5244Z" fill="#FCAF39"/>
</g>
<defs>
<clipPath id="clip0_1543_1252">
<rect width="37" height="37" fill="white"/>
</clipPath>
</defs>
</svg>
